<svg width="48" height="48" viewBox="0 0 48 48" fill="none" xmlns="http://www.w3.org/2000/svg">
<path fill-rule="evenodd" clip-rule="evenodd" d="M23.9359 15.9352C24.524 16.5187 24.5277 17.4685 23.9442 18.0565L17.5506 24.5L23.9442 30.9435C24.5277 31.5315 24.524 32.4813 23.9359 33.0648C23.3478 33.6483 22.3981 33.6446 21.8146 33.0565L14.3727 25.5565C13.7924 24.9717 13.7924 24.0283 14.3727 23.4435L21.8146 15.9435C22.3981 15.3554 23.3478 15.3517 23.9359 15.9352Z" fill="#FF4040"/>
<path fill-rule="evenodd" clip-rule="evenodd" d="M14.9717 24.5C14.9717 23.6716 15.6433 23 16.4717 23H31.5626C32.3911 23 33.0626 23.6716 33.0626 24.5C33.0626 25.3284 32.3911 26 31.5626 26H16.4717C15.6433 26 14.9717 25.3284 14.9717 24.5Z" fill="#FF4040"/>
<path fill-rule="evenodd" clip-rule="evenodd" d="M4 24.5C4 13.7341 12.7341 5 23.5 5C34.2659 5 43 13.7341 43 24.5C43 35.2659 34.2659 44 23.5 44C12.7341 44 4 35.2659 4 24.5ZM23.5 8C14.3909 8 7 15.3909 7 24.5C7 33.6091 14.3909 41 23.5 41C32.6091 41 40 33.6091 40 24.5C40 15.3909 32.6091 8 23.5 8Z" fill="#FF4040"/>
</svg>
