<svg width="153" height="127" viewBox="0 0 153 127" fill="none" xmlns="http://www.w3.org/2000/svg">
<path d="M72.5 0L83.2389 16.45L100.052 6.28848L102.59 25.7688L122.146 23.9084L115.981 42.5608L134.408 49.3699L120.76 63.5L134.408 77.6301L115.981 84.4392L122.146 103.092L102.59 101.231L100.052 120.712L83.2389 110.55L72.5 127L61.7611 110.55L44.9484 120.712L42.4104 101.231L22.8537 103.092L29.0192 84.4392L10.5921 77.6301L24.24 63.5L10.5921 49.3699L29.0192 42.5608L22.8537 23.9084L42.4104 25.7688L44.9484 6.28848L61.7611 16.45L72.5 0Z" fill="#D8D8D8"/>
<path d="M67.7041 30.5023L68.4757 27.2938C68.8479 28.6329 69.3724 29.9161 70.023 31.06L67.7041 30.5023ZM63.5913 29.5132C64.6763 28.7868 65.7088 27.8934 66.6456 26.8845L65.881 30.0639L63.5913 29.5132ZM74.3889 27.0188L74.8098 25.2687L69.2824 23.9394L69.9593 21.1247L68.1363 20.6863L67.4593 23.501L61.9757 22.1822L61.5548 23.9323L66.003 25.0021C64.3399 26.978 61.9972 28.6362 59.6708 29.2646C59.9985 29.6983 60.3913 30.5024 60.5924 31.0136C61.5173 30.6961 62.441 30.2548 63.3164 29.694L62.9482 31.2253L65.4567 31.8286L64.8639 34.2933L66.6869 34.7317L67.2797 32.267L69.7007 32.8492L70.1005 31.1866C70.6438 32.1349 71.2881 32.9841 72.0077 33.7126C72.4333 33.2904 73.2066 32.705 73.7283 32.4602C71.9058 30.8648 70.523 28.4032 69.9115 25.942L74.3889 27.0188ZM80.7464 33.6851L82.0298 33.9938C82.1526 34.7021 82.3658 35.3551 82.6403 35.9456C81.8393 35.8764 81.0272 35.7891 80.2589 35.7123L80.7464 33.6851ZM82.0648 31.4103L84.2379 31.9329L83.9994 32.9247L81.8263 32.4021L82.0648 31.4103ZM82.6435 29.0039L84.8166 29.5265L84.5851 30.4891L82.4121 29.9665L82.6435 29.0039ZM79.5243 25.6157L87.2394 27.4711L86.9939 28.492L79.2788 26.6366L79.5243 25.6157ZM85.953 34.9372C85.4529 35.1564 84.811 35.3877 84.2269 35.5712C83.9943 35.1913 83.8089 34.8073 83.6632 34.3866L85.953 34.9372ZM86.4634 35.06L87.9947 35.4283L88.3455 33.9698L85.6036 33.3105L85.8421 32.3187L87.9423 32.8238L88.2895 31.38L86.1894 30.8749L86.4209 29.9123L88.4043 30.3893L89.3548 26.437L78.125 23.7364L77.0903 28.0387C76.5326 30.3576 75.6268 33.611 73.6428 35.5097C74.0418 35.7754 74.6914 36.4099 74.9748 36.7711C77.0814 34.7476 78.2266 31.0118 78.8404 28.4596L78.9246 28.1096L81.0539 28.6216L80.8224 29.5842L78.9848 29.1423L78.6376 30.5861L80.4752 31.028L80.2367 32.0198L78.0053 31.4831L77.6545 32.9416L79.1567 33.3028L78.6201 35.5342C78.0629 35.4773 77.5385 35.4129 77.0904 35.3515L76.945 36.9827C78.5179 37.1141 80.6117 37.3245 82.5813 37.4742L82.807 36.2788C83.499 37.5715 84.5744 38.6169 86.1387 39.4251C86.4662 39.0256 87.0727 38.4926 87.5034 38.2413C86.5572 37.8133 85.7704 37.3001 85.1575 36.7053C85.8472 36.5317 86.6309 36.2882 87.3305 36.0091L86.4634 35.06ZM95.333 38.273C95.4663 37.7188 96.1047 37.502 96.936 37.7019C97.3297 37.7966 97.7095 37.9497 98.0641 38.143C98.0396 38.245 98.0185 38.3326 98.001 38.4055C97.794 39.2659 97.3755 39.659 96.4859 39.445C95.7129 39.2591 95.1892 38.8709 95.333 38.273ZM101.955 29.7912L99.8693 29.2896C99.8574 29.5953 99.7925 30.058 99.7399 30.2767C99.6662 30.583 99.537 31.1845 99.3651 31.8991C99.0262 31.833 98.6762 31.7488 98.3407 31.6682C97.4657 31.4577 96.6303 31.2105 95.8201 30.9231L95.4027 32.6586C96.2491 32.9239 97.0734 33.153 97.9339 33.3599C98.2693 33.4406 98.6193 33.5248 98.9729 33.5944C98.7384 34.6333 98.5407 35.712 98.3524 36.6232C98.0713 36.5094 97.7539 36.4176 97.4185 36.3369C95.4351 35.8599 93.9353 36.5792 93.5811 38.0522C93.2128 39.5835 94.2636 40.7311 96.2762 41.2151C98.2451 41.6886 99.2711 40.8862 99.6953 39.5072C100.184 40.0413 100.645 40.692 101.12 41.4081L102.495 40.1188C101.949 39.3087 101.209 38.3439 100.118 37.557C100.298 36.5512 100.506 35.3669 100.817 33.9453C101.633 34.0798 102.413 34.1747 103.137 34.241L103.576 32.4179C102.84 32.3954 102.054 32.3297 101.234 32.2097C101.403 31.5716 101.548 31.0354 101.639 30.7181C101.731 30.4008 101.844 30.0577 101.955 29.7912ZM94.7991 28.24L92.8286 27.581C92.7018 28.0442 92.4956 28.5808 92.339 28.9752C91.9086 30.0596 90.8081 32.7108 90.2785 34.913C89.8015 36.8964 89.6788 38.6257 89.7396 39.7202L91.4191 39.9853C91.4537 39.7776 91.4987 39.5262 91.5338 39.3803C91.5723 39.2199 91.6787 38.9061 91.7715 38.7124C92.1359 37.9669 92.9604 36.5916 93.6563 35.4939L92.9421 34.5507C92.6041 34.994 92.2369 35.4302 91.9245 35.8951C91.9509 35.5929 92.024 35.2248 92.0942 34.9331C92.4449 33.4747 93.6978 30.3819 94.1515 29.4573C94.2584 29.2053 94.6123 28.5036 94.7991 28.24ZM29.3967 50.1344L31.6427 50.6745C32.6224 46.7292 33.9127 44.5711 37.3276 41.9829L37.6468 40.6557L29.7276 38.7512L29.2962 40.5451L34.8819 41.8884C32.057 44.1403 30.6051 46.1361 29.3967 50.1344ZM48.9377 42.4608L46.7938 41.9452C46.768 42.3093 46.6504 42.9907 46.5732 43.3115C46.468 43.749 46.3517 44.1685 46.2389 44.5733L44.1534 44.0718C43.5992 43.9385 42.8513 43.7124 42.2528 43.5067L41.7934 45.4173C42.4345 45.5097 43.2366 45.7026 43.7325 45.8219L45.6576 46.2849C44.8036 48.4245 43.6816 49.8826 42.0026 50.8981C41.2754 51.3558 40.427 51.6763 39.7484 51.8679L41.1104 53.6457C44.1664 52.4213 46.1026 50.4648 47.5681 46.7443L50.8496 47.5335C50.4708 49.1086 49.5797 51.9798 48.9358 52.7969C48.6912 53.1083 48.4485 53.2197 47.9818 53.1074C47.413 52.9706 46.6722 52.7153 45.9891 52.4122L45.7525 54.4226C46.4385 54.6493 47.2995 54.9181 48.1308 55.118C49.1371 55.36 49.7825 55.1141 50.2822 54.4475C51.2671 53.1107 52.4206 49.0838 52.8578 47.5227C52.8963 47.3623 53.0459 46.9971 53.1457 46.7743L52.0242 45.8566C51.6602 45.8308 51.2705 45.7834 50.9059 45.6957L48.164 45.0363C48.2949 44.6204 48.4147 44.1864 48.538 43.7378C48.6368 43.3912 48.8133 42.7857 48.9377 42.4608ZM62.9974 45.9037L56.5512 44.3535L56.1724 45.9286L62.6186 47.4788L62.9974 45.9037ZM60.0149 49.6451L59.5695 51.4972L57.2214 50.9326L57.6669 49.0804L60.0149 49.6451ZM60.8568 53.4576L62.0493 48.499L56.376 47.1346L55.4852 50.839C55.0818 52.5162 54.4618 54.7738 53.1239 56.1028C53.454 56.3982 54.0389 57.1096 54.2458 57.468C55.4938 56.2562 56.3016 54.2443 56.817 52.4861L60.8568 53.4576ZM68.871 51.7594L64.1895 50.6336L64.6455 48.7376C66.3117 48.7372 68.1187 48.601 69.6148 48.2819L68.3991 46.6011C67.4304 46.9081 65.9478 47.1069 64.4968 47.1745L63.3676 46.6098L62.3995 50.6351C61.8804 52.7935 60.9818 55.6321 58.4601 57.201C58.8193 57.5033 59.3172 58.2556 59.4629 58.6763C61.8691 57.2031 63.0891 54.5036 63.757 52.3037L65.4488 52.7106L63.7582 59.7402L65.4792 60.154L67.1697 53.1245L68.4677 53.4366L68.871 51.7594ZM76.5197 50.683L76.0708 52.5498C77.8663 53.1667 80.5096 53.787 82.342 54.058L82.7945 52.1766C81.1738 51.9874 78.254 51.3624 76.5197 50.683ZM76.1888 57.1911L74.5502 56.6273C74.2109 57.3325 73.9831 57.8948 73.8464 58.4636C73.4851 59.9658 74.4816 61.1465 76.9901 61.7498C78.6381 62.1461 79.8294 62.3246 80.8195 62.3776L81.2638 60.4017C79.9173 60.3556 78.81 60.2127 77.512 59.9005C76.0244 59.5428 75.5649 59.0157 75.7192 58.374C75.8139 57.9803 75.9564 57.6443 76.1888 57.1911ZM74.5088 49.1658L72.5091 48.4997C72.3823 48.9629 72.1615 49.4961 72.0195 49.8939C71.589 50.9783 70.5442 53.3343 70.0181 55.5219C69.5411 57.5054 69.3903 59.3513 69.44 60.4277L71.1598 60.7179C71.1943 60.5102 71.2358 60.2734 71.2744 60.113C71.3095 59.9671 71.4158 59.6533 71.5122 59.445C71.8585 58.7107 72.7221 57.2367 73.4215 56.1244L72.6892 55.1924C72.3693 55.6245 72.0132 56.0789 71.6751 56.5221C71.7015 56.2199 71.7781 55.8372 71.8448 55.5601C72.1955 54.1017 73.4074 51.3076 73.832 50.3761C73.9535 50.1276 74.3184 49.444 74.5088 49.1658ZM92.1758 52.8128L90.2903 52.3131C90.2453 52.5645 90.1319 52.9075 90.0507 53.1811C89.9619 53.422 89.8696 53.6775 89.7738 53.9476C89.5842 53.902 89.3946 53.8564 89.1905 53.8073C88.3008 53.5934 87.0455 53.1681 86.5561 52.9578L86.193 54.6601C86.8714 54.8541 87.9949 55.186 88.7533 55.3684C88.9138 55.407 89.0596 55.442 89.22 55.4806C89.0179 56.0645 88.8268 56.6666 88.6468 57.2867C86.3736 57.7582 84.3577 59.3407 83.9052 61.2221C83.551 62.6951 84.3009 63.5542 85.3655 63.8103C86.1385 63.9961 86.9676 63.9487 87.7664 63.7705C87.7756 63.9887 87.7994 64.2104 87.8122 64.4141L89.6121 64.307C89.5796 63.9289 89.5506 63.5362 89.5362 63.1471C90.8656 62.4948 92.4006 61.2441 93.6651 59.45C94.5767 60.0858 94.9013 60.9815 94.6908 61.8566C94.3471 63.2858 92.8658 64.4415 89.9774 64.0708L90.5717 65.8337C94.2892 66.1569 95.9802 64.4499 96.4782 62.379C96.8851 60.6872 96.0813 59.09 94.5228 58.1289C94.6769 57.8729 94.8673 57.5947 94.9642 57.4483L93.2866 56.5974C93.2194 56.8127 93.0734 57.1633 92.9449 57.4409C92.8574 57.4199 92.7699 57.3988 92.6824 57.3778C91.9678 57.2059 91.1848 57.1256 90.4462 57.1177C90.566 56.6837 90.7185 56.2421 90.8675 55.8151C92.6789 56.1736 94.6752 56.4686 96.1676 56.5498L96.5599 54.8545C94.8644 54.8479 93.2437 54.6587 91.4469 54.3037C91.5608 54.0225 91.6823 53.7741 91.7857 53.5366C91.8966 53.3319 92.0181 53.0834 92.1758 52.8128ZM85.7173 61.2567C85.9173 60.4254 86.913 59.4924 88.1857 59.0117C87.9729 60.025 87.8475 61.0594 87.7905 62.0022C87.1918 62.1822 86.6247 62.2309 86.2164 62.1327C85.7497 62.0205 85.6051 61.7234 85.7173 61.2567ZM90.0056 58.6934L90.0161 58.6496C90.627 58.6114 91.3294 58.6415 92.1059 58.8128C91.3259 59.8748 90.4557 60.6066 89.5984 61.1564C89.6571 60.3992 89.7916 59.583 90.0056 58.6934ZM102.804 65.9677C102.892 65.6031 103.323 65.3518 103.877 65.4851C104.665 65.6745 105.057 66.4168 104.916 67.3858C104.647 67.3518 104.366 67.2998 104.06 67.2261C103.185 67.0157 102.675 66.5073 102.804 65.9677ZM102.584 55.9792L102.186 57.8892C102.532 57.9261 103.009 57.9946 103.41 58.0601C104.194 58.2023 106.227 58.5988 106.975 58.763C106.109 59.2183 104.298 60.0786 103.32 60.5531C102.287 61.0608 100.165 62.124 98.9297 62.7063L99.9271 64.3963C101.916 62.9923 103.658 62.1618 105.889 62.6984C107.61 63.1122 108.709 64.3175 108.393 65.6301C108.179 66.5198 107.61 67.0924 106.706 67.3225C106.835 65.8879 106.008 64.5164 104.199 64.0815C102.653 63.7097 101.326 64.5475 101.041 65.7288C100.691 67.1872 101.998 68.4889 104.025 68.9764C107.554 69.8252 109.743 68.4231 110.297 66.1187C110.809 63.9895 109.299 61.9911 106.82 61.3948C106.353 61.2826 105.905 61.2211 105.396 61.2221C106.49 60.7138 108.33 59.7987 109.251 59.4339C109.646 59.2666 110.045 59.1466 110.433 59.0085L109.797 57.4826C109.608 57.4988 109.262 57.4619 108.65 57.3764C107.802 57.2494 104.666 56.5572 103.894 56.3713C103.485 56.2731 102.978 56.1358 102.584 55.9792ZM118.737 67.6547L120.224 68.0125L121.818 63.1194L122.413 60.9639L119.992 60.3817L119.542 62.5723L118.737 67.6547ZM118.548 71.713C119.277 71.8884 119.957 71.4966 120.14 70.7382C120.325 69.9653 119.898 69.307 119.168 69.1316C118.439 68.9562 117.759 69.348 117.573 70.121C117.39 70.8793 117.804 71.5341 118.548 71.713ZM9.63105 60.603L9.01376 63.1698L7.67201 62.8471L8.2893 60.2803L9.63105 60.603ZM6.64787 67.1057L7.30725 64.3638L8.649 64.6865L7.98962 67.4284L6.64787 67.1057ZM11.6217 59.4463L7.05682 58.3485L4.36319 69.5492L5.96745 69.935L6.27609 68.6516L9.23669 69.3636L11.6217 59.4463ZM10.3918 68.3455C10.8692 69.2471 11.364 70.4614 11.4651 71.1954L13.1597 70.6927C13.0252 69.9044 12.4692 68.7525 11.9702 67.8765L10.3918 68.3455ZM19.0047 66.4673L19.3694 64.9505L16.0442 64.1508L16.3529 62.8674L19.2697 63.5689L19.6345 62.0522L16.7177 61.3507L17.0859 59.8193L15.3796 59.409L15.0113 60.9403L12.2111 60.2669L11.8464 61.7837L14.6465 62.4571L14.3379 63.7405L11.0419 62.9478L10.6771 64.4646L15.8253 65.7027L15.5237 66.9569L10.4046 65.7258L10.0434 67.228L15.1624 68.4591L14.4084 71.5947C14.3593 71.7989 14.2723 71.8397 14.039 71.7836C13.8202 71.7309 13.0035 71.5345 12.3105 71.337C12.4316 71.8598 12.5292 72.6084 12.4718 73.1037C13.5511 73.3633 14.3491 73.5089 14.9775 73.3978C15.6095 73.272 15.8751 72.8731 16.075 72.0418L16.8396 68.8624L18.2397 69.1991L18.601 67.697L17.2009 67.3603L17.5025 66.106L19.0047 66.4673ZM22.42 69.2017L24.2284 69.6366L23.9899 70.6283L22.1815 70.1934L22.42 69.2017ZM25.2912 65.2176L25.0877 66.0634L23.2793 65.6285L23.4827 64.7826L25.2912 65.2176ZM22.9601 66.9557L24.7686 67.3906L24.5476 68.3094L22.7392 67.8745L22.9601 66.9557ZM26.4693 71.2245L25.5796 71.0106L26.8808 65.5999L27.8726 65.8383L28.2373 64.3216L27.2456 64.0831L27.6174 62.5372L26.0277 62.1549L25.6559 63.7008L23.8475 63.2659L24.2193 61.72L22.6588 61.3447L22.287 62.8906L21.1494 62.617L20.7846 64.1338L21.9222 64.4074L20.621 69.8181L19.3084 69.5024L18.9437 71.0192L26.1045 72.7413L26.4693 71.2245ZM20.7275 71.5562C20.1087 72.333 19.1294 73.0695 18.2342 73.4559C18.5719 73.7839 19.1235 74.4411 19.3707 74.8245C20.3301 74.2993 21.4642 73.3687 22.2306 72.4268L20.7275 71.5562ZM29.0082 70.3541C29.1315 69.9055 29.2332 69.4825 29.3244 69.1033L29.4542 68.5637L31.5543 69.0688L31.1229 70.8626L29.0082 70.3541ZM32.3329 65.8311L31.9225 67.5374L29.8224 67.0324L30.2328 65.326L32.3329 65.8311ZM34.3889 64.6593L28.9927 63.3616L27.7055 68.714C27.2496 70.61 26.5839 73.0571 25.2996 74.6767C25.0788 73.9911 24.5863 73.0241 24.2015 72.3145L22.7171 72.7135C23.1245 73.5211 23.5931 74.652 23.748 75.291L25.1233 74.8966C25.0585 74.9736 24.9827 75.0325 24.9179 75.1095C25.262 75.3465 25.8503 76.0434 26.0538 76.4163C27.157 75.2931 27.96 73.5578 28.5343 71.8754L30.7511 72.4085L30.0602 75.2816C30.004 75.515 29.9136 75.5704 29.6948 75.5178C29.4906 75.4686 28.7871 75.3149 28.1705 75.1203C28.284 75.6104 28.3204 76.4214 28.27 76.8876C29.3457 77.1617 30.1001 77.2968 30.6772 77.1425C31.2542 76.9881 31.5234 76.5746 31.7303 75.7141L34.3889 64.6593ZM34.653 70.1688L35.068 72.2279C35.7618 72.1016 36.7998 71.8267 37.9761 71.5542C38.0372 71.8775 38.0949 72.2153 38.1525 72.5532C38.4719 74.4967 38.6375 77.1438 38.6477 79.0902L40.772 79.0456C40.6835 77.2965 40.3111 73.9054 40.008 72.1509C39.9468 71.8276 39.8892 71.4898 39.8171 71.1484C41.5494 70.8091 43.2829 70.5934 44.4205 70.867C45.5143 71.1301 46.0268 71.8858 45.8479 72.6296C45.5954 73.6797 44.6494 74.0847 43.5556 73.8217C42.9139 73.6674 42.2373 73.2732 41.6477 72.8383L41.162 74.6654C41.6671 75.0029 42.5222 75.4245 43.3098 75.6139C45.5411 76.1505 47.2534 75.1892 47.7444 73.1474C48.1512 71.4557 47.1246 69.7586 44.8641 69.2149C44.2078 69.0571 43.4616 69.0165 42.6798 69.0599L44.0353 68.4911C43.6657 67.8468 42.7999 66.6358 42.3696 66.1158L40.8033 66.7265C41.2558 67.2827 41.9718 68.4114 42.367 69.0773C41.4545 69.1509 40.4772 69.3016 39.4929 69.4814C39.3788 68.9294 39.2576 68.4066 39.1406 67.9311C39.0468 67.6154 38.8989 66.9473 38.8308 66.6532L36.7595 66.9265C36.96 67.3758 37.1948 68.0031 37.3113 68.4168C37.4389 68.8486 37.5559 69.3242 37.6549 69.8108C37.1718 69.8952 36.6741 69.976 36.209 70.0493C35.9511 70.0953 35.2568 70.1597 34.653 70.1688ZM61.0387 72.7808L57.2759 71.8759L57.4443 71.1758L61.207 72.0807L61.0387 72.7808ZM60.5967 74.6184L56.834 73.7135L57.0024 73.0134L60.7651 73.9183L60.5967 74.6184ZM63.0989 71.2706L56.2005 69.6117L55.0151 74.5411L61.9134 76.2001L63.0989 71.2706ZM62.4211 78.4512L62.7718 76.9928L53.5984 74.7867L53.2476 76.2451L54.8957 76.6414C54.3943 77.1225 53.8159 77.5388 53.1821 77.8647L53.174 76.5514L51.8845 76.7812L52.7122 73.3393L54.0831 73.669L54.476 72.0356L53.1051 71.7059L53.796 68.8328L52.1917 68.447L51.5008 71.3201L50.0424 70.9694L49.6496 72.6028L51.108 72.9535L50.1189 77.0663C49.3668 77.1785 48.6946 77.2792 48.1532 77.3495L48.374 79.2539C49.3689 79.0304 50.5452 78.7579 51.7215 78.4853C52.03 78.8064 52.4615 79.4501 52.6136 79.7798C53.3027 79.5444 53.9872 79.1999 54.6636 78.7609L55.5241 78.9679C54.4916 79.8612 53.1231 80.612 51.9141 80.8921C52.2628 81.2382 52.6097 81.7845 52.8062 82.1866C54.2679 81.6896 55.975 80.5573 57.0992 79.3466L57.9597 79.5536C57.0064 80.7591 55.7171 81.8221 54.4403 82.2556C54.8217 82.5941 55.2229 83.1072 55.4339 83.5128C56.8362 82.878 58.3981 81.3869 59.3889 79.8973L59.9577 80.0341C59.3729 81.7602 59.019 82.4619 58.7622 82.6316C58.614 82.7348 58.4903 82.7359 58.2861 82.6868C58.0965 82.6412 57.7173 82.55 57.2612 82.394C57.3922 82.8112 57.3978 83.4296 57.3287 83.845C57.9051 84.0145 58.4628 84.1332 58.8088 84.1701C59.1839 84.214 59.5328 84.1745 59.8906 83.9057C60.3861 83.5775 60.9 82.4668 61.7881 79.672C61.8518 79.4714 61.9611 79.0811 61.9611 79.0811L56.0399 77.6571C56.2418 77.4588 56.4438 77.2606 56.6166 77.0553L62.4211 78.4512ZM71.736 73.718L65.2898 72.1678L64.911 73.7429L71.3572 75.2931L71.736 73.718ZM68.7536 77.4594L68.3081 79.3116L65.9601 78.7469L66.4055 76.8947L68.7536 77.4594ZM69.5954 81.2719L70.7879 76.3133L65.1147 74.9489L64.2238 78.6533C63.8205 80.3305 63.2004 82.5881 61.8626 83.9171C62.1927 84.2125 62.7775 84.924 62.9845 85.2823C64.2324 84.0705 65.0402 82.0586 65.5556 80.3004L69.5954 81.2719ZM77.6097 79.5737L72.9281 78.4479L73.3841 76.5519C75.0504 76.5515 76.8573 76.4153 78.3534 76.0962L77.1377 74.4154C76.1691 74.7224 74.6865 74.9213 73.2355 74.9889L72.1062 74.4242L71.1382 78.4494C70.6191 80.6079 69.7205 83.4464 67.1987 85.0153C67.558 85.3177 68.0559 86.0699 68.2015 86.4907C70.6077 85.0174 71.8278 82.3179 72.4956 80.1181L74.1874 80.5249L72.4969 87.5545L74.2178 87.9684L75.9083 80.9388L77.2063 81.2509L77.6097 79.5737ZM85.6551 77.2968L83.5347 76.5555C83.3429 77.4813 82.9556 78.5144 82.4883 79.5591C81.727 79.4531 81.031 79.332 80.5754 79.2379C80.0323 79.1227 79.544 79.0361 79.0149 78.8626L78.7129 80.8881C79.1826 80.9239 79.9655 81.0042 80.406 81.033C80.6755 81.067 81.1562 81.1209 81.6953 81.1888C80.6752 83.0571 78.9604 85.7611 77.0862 87.3314L78.7998 88.5457C80.6571 86.7245 82.5676 83.5276 83.6549 81.4441C84.0849 81.5166 84.4565 81.5752 84.6898 81.6313C85.5941 81.8487 86.0659 82.1319 85.7853 83.2987C85.4381 84.7425 84.8095 86.4581 84.2159 87.1947C83.8668 87.6198 83.4671 87.678 82.9712 87.5587C82.592 87.4676 81.7812 87.1183 81.2656 86.8246L81.1089 88.8233C81.5802 89.0447 82.2557 89.3151 82.8099 89.4484C83.9183 89.715 84.7976 89.587 85.5244 88.6819C86.4566 87.5639 87.229 85.2503 87.6429 83.5294C88.1479 81.4293 87.219 80.4808 85.673 80.109C85.3668 80.0353 84.9368 79.9628 84.4339 79.8727C84.6623 79.3722 84.9087 78.8607 85.1015 78.4442C85.2621 78.0971 85.4764 77.655 85.6551 77.2968ZM92.4362 77.6471L91.1572 77.8332C91.4323 78.4856 91.692 79.4583 91.8545 80.1299L93.1259 79.9111C93.0007 79.3411 92.6821 78.2925 92.4362 77.6471ZM90.5428 77.886L89.2749 78.0902C89.4981 78.6376 89.6944 79.4253 89.8528 80.0496L88.4034 80.3028C89.1302 81.8352 89.5484 84.651 89.5383 86.3611L91.5939 85.9606C91.4977 84.5644 90.9896 81.8658 90.4408 80.299L91.229 80.1646C91.0817 79.5584 90.7776 78.5133 90.5428 77.886ZM102.103 82.4865L103.984 82.9389L103.833 83.566L101.748 83.0645L102.103 82.4865ZM107.042 84.3376L105.437 83.9518L105.858 82.2017L102.723 81.4477C102.862 81.1881 103.013 80.9466 103.149 80.7016L101.514 80.1233C101.367 80.412 101.199 80.7264 101.016 81.0373L98.8287 80.5112L98.5586 81.6342L100.411 82.0796C100.285 82.2808 100.178 82.471 100.056 82.6576L97.4598 82.0333L97.1792 83.2001L106.761 85.5044L107.042 84.3376ZM99.0363 89.4629L99.1977 88.792L100.86 89.1919L100.699 89.8627L99.0363 89.4629ZM99.512 85.3038L103.508 86.2648L103.336 86.9795L99.3401 86.0185L99.512 85.3038ZM101.838 92.3119L102.048 91.4369L105.067 92.1629L105.351 90.9816L102.332 90.2556L102.494 89.5847L105.119 90.216L105.399 89.0493L102.774 88.418L102.89 87.9367L104.786 88.3926L105.438 85.68L98.1754 83.9333L97.523 86.646L101.257 87.5439L101.141 88.0251L96.7948 86.9799L96.5142 88.1467L97.6226 88.4132L97.4612 89.0841L95.9445 88.7193L95.6604 89.9007L100.415 91.0441L100.204 91.9191L101.838 92.3119ZM97.2772 81.9586C97.0372 81.1603 96.3283 80.0025 95.7132 79.1603L94.1289 79.7821C94.7224 80.6499 95.359 81.8521 95.5587 82.6252L97.2772 81.9586ZM96.3465 84.8665L93.065 84.0774L92.6827 85.6671L94.3162 86.0599L93.5516 89.2392C92.849 89.5948 92.0769 89.9183 91.4205 90.1461L91.8233 92.0634C92.7179 91.6152 93.4492 91.2048 94.1693 90.7763C94.7743 92.1097 95.8393 92.8132 97.5573 93.3035C99.319 93.8044 102.418 94.5187 104.247 94.8661C104.451 94.4059 104.891 93.6634 105.194 93.3041C103.143 92.9806 99.6903 92.1966 97.9577 91.7028C96.4841 91.2867 95.5614 90.6328 95.2276 89.5189L96.3465 84.8665ZM116.578 91.7686C116.031 94.0437 113.41 94.6784 109.695 94.217L110.31 96.2779C114.498 96.6988 117.852 95.4535 118.603 92.3325C119.153 90.0428 117.85 88.3409 115.546 87.7867C113.84 87.3764 112.104 87.4065 110.98 87.3984C110.474 87.3847 109.823 87.336 109.316 87.2605L109.369 89.4793C109.83 89.4206 110.455 89.3241 110.906 89.3091C111.703 89.2692 113.266 89.1206 114.87 89.5064C116.241 89.8361 116.81 90.806 116.578 91.7686ZM112.53 83.3898L111.818 85.0697C113.425 85.7648 116.52 86.8175 118.198 87.3446L118.921 85.6209C117.378 85.2345 114.135 84.1612 112.53 83.3898ZM127.475 95.4691L128.963 95.8268L130.556 90.9337L131.152 88.7782L128.731 88.196L128.281 90.3866L127.475 95.4691ZM127.286 99.5273C128.015 99.7027 128.696 99.3109 128.878 98.5526C129.064 97.7796 128.636 97.1213 127.907 96.9459C127.178 96.7706 126.497 97.1623 126.311 97.9353C126.129 98.6937 126.542 99.3485 127.286 99.5273Z" fill="#FF4040"/>
</svg>
