<svg width="150" height="127" viewBox="0 0 150 127" fill="none" xmlns="http://www.w3.org/2000/svg">
<path d="M68.4999 0L79.2387 16.45L96.0515 6.28848L98.5895 25.7688L118.146 23.9084L111.981 42.5608L130.408 49.3699L116.76 63.5L130.408 77.6301L111.981 84.4392L118.146 103.092L98.5895 101.231L96.0515 120.712L79.2387 110.55L68.4999 127L57.761 110.55L40.9483 120.712L38.4103 101.231L18.8536 103.092L25.0191 84.4392L6.59196 77.6301L20.2399 63.5L6.59196 49.3699L25.0191 42.5608L18.8536 23.9084L38.4103 25.7688L40.9483 6.28848L57.761 16.45L68.4999 0Z" fill="#D8D8D8"/>
<path d="M52.1575 37.4352L40.4581 34.6216L39.9081 36.9084L50.4029 39.4323C49.1794 41.0172 47.6127 42.9515 46.292 44.4913L48.6928 45.8247C50.5823 43.536 52.8135 40.7248 54.418 38.454L52.6157 37.4158L52.1575 37.4352ZM44.9406 31.2503C46.725 30.2971 48.3044 29.2082 49.4868 28.1534C50.0807 29.6354 51.074 31.343 52.2502 33.0082L44.9406 31.2503ZM48.7292 25.4658C46.589 27.6293 42.5111 30.1261 38.6039 31.1951C39.012 31.8332 39.5 32.8577 39.6687 33.5031C41.1874 33.0259 42.6947 32.4165 44.0991 31.6959L43.7063 33.3293L52.3635 35.4113L52.771 33.7166C53.7661 35.0574 54.8674 36.3158 55.972 37.3806C56.598 36.7536 57.3154 36.1054 58.0753 35.6402C55.2485 33.3837 52.5924 29.6995 51.1589 26.0501L48.7292 25.4658ZM63.8707 42.3472L64.617 39.2437L68.1493 40.0931L67.403 43.1967L63.8707 42.3472ZM76.8973 45.4799L69.9144 43.8006L70.6607 40.6971L76.051 41.9934L76.5961 39.727L71.2058 38.4307L71.7901 36.001L77.65 37.4102L78.2147 35.0622L66.6786 32.2879C67.0766 31.8004 67.4338 31.3032 67.755 30.7757L65.4367 29.5486C63.9253 31.9713 61.7246 34.2067 59.5138 35.3166C60.0225 35.8061 60.8674 36.8732 61.2388 37.3945C62.4292 36.6656 63.7235 35.5946 64.9093 34.3462L69.2787 35.397L68.6944 37.8268L62.7324 36.393L61.441 41.7629L58.2149 40.987L57.6552 43.3147L66.8432 45.5243L65.7924 49.8937L68.3038 50.4977L69.3546 46.1283L76.3375 47.8076L76.8973 45.4799ZM84.4078 38.409L99.1291 41.9493L99.6496 39.7851L92.4012 38.0419L92.8382 36.2247L90.3064 35.6158L89.8694 37.433L82.6007 35.685L81.2258 41.402C80.5089 44.383 79.365 48.6004 76.9731 51.0922C77.4655 51.4698 78.3243 52.3891 78.6345 52.8957C81.2487 50.1982 82.758 45.2694 83.5534 41.9618L84.4078 38.409ZM92.8035 44.2727L92.4794 45.6203L88.7634 44.7266L89.0874 43.379L92.8035 44.2727ZM94.4468 48.0373L95.2128 44.8521L98.153 45.5592L98.6145 43.6399L95.6744 42.9328L95.9984 41.5852L93.5891 41.0058L93.2651 42.3534L89.549 41.4597L89.8731 40.1122L87.5863 39.5622L87.2622 40.9098L84.5058 40.2469L84.0442 42.1662L86.8006 42.8291L86.0346 46.0143L94.4468 48.0373ZM92.1399 50.3551C91.309 50.8465 90.3343 51.2168 89.2871 51.4402C88.4404 50.7398 87.7563 49.9921 87.3009 49.1914L92.1399 50.3551ZM94.6833 48.8501L94.23 48.8491L83.2247 46.2025L82.7681 48.1013L85.8103 48.8329L84.7672 48.9493C85.2095 49.9844 85.8241 50.9313 86.5702 51.7803C84.8443 51.862 82.9788 51.7158 81.0611 51.4274C81.3058 52.0262 81.5136 53.0481 81.5501 53.7049C84.0535 53.9829 86.4581 54.0428 88.6506 53.7277C90.2354 54.9512 92.1904 55.9829 94.4697 56.8335C94.9282 56.2742 95.787 55.4872 96.3998 55.0946C94.6015 54.4893 92.9755 53.7959 91.5881 53.0087C93.2939 52.3822 94.803 51.406 96.0125 49.9689L94.6833 48.8501ZM107.311 55.1699C107.497 54.394 108.391 54.0905 109.555 54.3704C110.106 54.503 110.638 54.7172 111.134 54.9878C111.1 55.1308 111.07 55.2533 111.046 55.3554C110.756 56.56 110.17 57.1103 108.925 56.8107C107.843 56.5505 107.109 56.007 107.311 55.1699ZM116.581 43.2953L113.661 42.5932C113.645 43.0212 113.554 43.6689 113.48 43.9751C113.377 44.4039 113.196 45.2459 112.956 46.2464C112.481 46.1539 111.991 46.0361 111.521 45.9231C110.296 45.6285 109.127 45.2824 107.993 44.8801L107.408 47.3098C108.593 47.6812 109.747 48.0019 110.952 48.2916C111.421 48.4045 111.912 48.5224 112.406 48.6198C112.078 50.0744 111.801 51.5845 111.538 52.8603C111.144 52.7008 110.7 52.5723 110.23 52.4594C107.454 51.7916 105.354 52.7986 104.858 54.8608C104.342 57.0047 105.813 58.6112 108.631 59.2888C111.388 59.9517 112.824 58.8284 113.418 56.8978C114.102 57.6455 114.747 58.5565 115.413 59.559L117.337 57.754C116.573 56.6199 115.537 55.2692 114.01 54.1675C114.262 52.7594 114.553 51.1014 114.988 49.1111C116.131 49.2995 117.222 49.4323 118.236 49.5251L118.85 46.9728C117.821 46.9413 116.72 46.8493 115.572 46.6813C115.809 45.7879 116.011 45.0373 116.139 44.593C116.268 44.1488 116.427 43.6685 116.581 43.2953ZM106.563 41.1237L103.804 40.2011C103.627 40.8496 103.338 41.6009 103.119 42.1529C102.516 43.6711 100.976 47.3828 100.234 50.4659C99.5666 53.2427 99.3947 55.6636 99.4798 57.196L101.831 57.5671C101.88 57.2763 101.943 56.9243 101.992 56.7201C102.046 56.4955 102.195 56.0562 102.325 55.7851C102.835 54.7414 103.989 52.8159 104.963 51.2791L103.963 49.9587C103.49 50.5793 102.976 51.19 102.539 51.8408C102.576 51.4177 102.678 50.9024 102.776 50.494C103.267 48.4522 105.021 44.1223 105.657 42.828C105.806 42.4752 106.302 41.4928 106.563 41.1237ZM5.39265 67.4084L8.43492 68.1401C10.1039 62.2778 11.315 59.3076 15.858 55.8645L16.2999 54.0268L6.25433 51.611L5.64546 54.1428L12.4446 55.7779C8.60328 59.0875 6.92002 62.2249 5.39265 67.4084ZM28.4187 55.6237L25.4173 54.9019C25.3811 55.4116 25.2165 56.3656 25.1084 56.8148C24.9611 57.4273 24.7983 58.0145 24.6404 58.5813L21.7207 57.8791C20.9448 57.6925 19.8978 57.3759 19.0599 57.088L18.4166 59.7628C19.3142 59.8923 20.4372 60.1623 21.1314 60.3293L23.8266 60.9774C22.631 63.9729 21.0602 66.0142 18.7096 67.436C17.6915 68.0767 16.5037 68.5254 15.5536 68.7937L17.4605 71.2826C21.7389 69.5684 24.4495 66.8293 26.5013 61.6207L31.0953 62.7255C30.565 64.9306 29.3175 68.9503 28.4161 70.0943C28.0736 70.5303 27.7338 70.6861 27.0804 70.529C26.2841 70.3375 25.2469 69.9801 24.2906 69.5557L23.9594 72.3703C24.9198 72.6876 26.1252 73.0639 27.289 73.3438C28.6979 73.6826 29.6014 73.3384 30.301 72.4051C31.6798 70.5336 33.2948 64.8959 33.9068 62.7104C33.9608 62.4858 34.1701 61.9746 34.31 61.6627L32.7398 60.3779C32.2302 60.3417 31.6846 60.2753 31.1741 60.1526L27.3356 59.2294C27.5188 58.6471 27.6865 58.0395 27.8592 57.4115C27.9974 56.9264 28.2445 56.0786 28.4187 55.6237ZM48.1023 60.4438L39.0776 58.2735L38.5473 60.4786L47.572 62.649L48.1023 60.4438ZM43.9268 65.6817L43.3032 68.2748L40.0159 67.4842L40.6395 64.8912L43.9268 65.6817ZM45.1054 71.0193L46.7749 64.0772L38.8324 62.1671L37.5852 67.3532C37.0205 69.7013 36.1524 72.8619 34.2794 74.7225C34.7415 75.1361 35.5603 76.1321 35.8501 76.6338C37.5972 74.9373 38.7281 72.1206 39.4497 69.6591L45.1054 71.0193ZM56.3254 68.6418L49.7712 67.0656L50.4096 64.4113C52.7424 64.4107 55.2721 64.22 57.3666 63.7733L55.6646 61.4201C54.3085 61.85 52.2329 62.1284 50.2015 62.223L48.6205 61.4324L47.2653 67.0677C46.5385 70.0896 45.2805 74.0636 41.75 76.26C42.253 76.6833 42.9501 77.7365 43.154 78.3255C46.5226 76.263 48.2307 72.4836 49.1657 69.4039L51.5342 69.9734L49.1674 79.8149L51.5767 80.3943L53.9435 70.5529L55.7607 70.9899L56.3254 68.6418ZM59.2314 65.5393L58.8241 68.4004C61.3153 68.4595 65.5886 69.012 67.557 69.2694C65.9181 69.9768 63.7045 71.9067 62.9974 74.8469C61.9319 79.2776 65.4247 82.5366 69.6437 83.8536L71.276 81.2872C67.8492 80.2686 64.9945 78.3078 65.8047 74.9389C66.3891 72.5091 68.8805 70.3221 71.5082 70.2628C72.6542 70.2577 74.4101 70.6799 75.5176 70.9247L76.1257 68.3063C74.6613 68.0189 72.4063 67.6062 70.2591 67.2842C66.4489 66.6919 63.0063 66.188 61.2569 65.9184C60.8591 65.866 60.053 65.7153 59.2314 65.5393ZM72.1166 72.2235L70.4535 72.493C70.8859 73.569 71.1232 74.4684 71.3636 75.7141L73.0823 75.3931C72.8858 74.5035 72.4503 73.0813 72.1166 72.2235ZM74.6293 71.8342L72.9719 72.1699C73.4092 73.2255 73.6971 74.0939 73.9832 75.329L75.6913 74.9622C75.4541 74.0628 74.9679 72.6716 74.6293 71.8342ZM85.6549 71.0731L85.4045 72.1144L82.1989 71.3435L82.4493 70.3022L85.6549 71.0731ZM81.5507 74.0387L81.8159 72.9361L85.0215 73.707L84.7563 74.8096L81.5507 74.0387ZM86.6208 77.1155L88.3591 69.8875L80.4982 67.9971L76.0986 86.2915L78.4671 86.8611L81.1284 75.7946L86.6208 77.1155ZM85.2139 81.5288L85.5822 79.9975L87.481 80.4541L87.1128 81.9855L85.2139 81.5288ZM91.0059 85.0168L91.4822 83.0363L89.2362 82.4962L89.6045 80.9648L91.5238 81.4264L91.9853 79.5071L82.1235 77.1354L81.6619 79.0547L83.52 79.5016L83.1517 81.0329L81.0078 80.5173L80.5315 82.4979L82.5937 82.9938C82.1391 83.986 81.2483 85.1757 79.7451 85.6781C80.1361 86.1178 80.719 86.9275 80.963 87.4397C82.9833 86.6729 84.1334 84.8544 84.6763 83.4946L86.6365 83.966L85.6249 88.1721L87.7484 88.6828L88.7599 84.4767L91.0059 85.0168ZM90.6881 76.2793L90.9631 75.1359L94.2708 75.9314L93.9958 77.0748L90.6881 76.2793ZM94.9042 73.2975L94.6538 74.3388L91.3461 73.5433L91.5965 72.502L94.9042 73.2975ZM97.7105 72.1364L89.7067 70.2116L87.9586 77.4804L93.5735 78.8307L91.6094 86.9979C91.5407 87.2837 91.4091 87.3817 91.0824 87.3031C90.7712 87.2499 89.7708 87.0093 88.8618 86.7475C89.0363 87.459 89.0978 88.6401 89.0174 89.3335C90.5692 89.7067 91.6456 89.9008 92.4789 89.6692C93.3072 89.458 93.6939 88.8383 93.9934 87.5928L97.7105 72.1364ZM106.213 89.3219L108.785 89.9406L108.471 91.2473L105.899 90.6286L106.213 89.3219ZM107.737 79.213L111.943 80.2245C111.678 80.7871 111.277 81.4682 110.869 82.083L108.256 81.4545C108.639 81.0283 109.007 80.5768 109.334 80.1155L107.737 79.213ZM109.939 85.1424L107.367 84.5237L107.661 83.2986L110.234 83.9173L109.939 85.1424ZM109.208 88.1846L106.635 87.5659L106.94 86.3L109.512 86.9187L109.208 88.1846ZM115.168 92.8579L110.778 91.8022L111.093 90.4954L114.686 91.3596L115.109 89.6037L111.515 88.7395L111.819 87.4736L115.413 88.3378L115.84 86.5614L112.247 85.6972L112.541 84.4722L116.686 85.4689L117.138 83.5905L113.218 82.6477L114.327 81.3593L112.127 80.2687L117.435 81.5454L118.511 77.0738L116.183 76.5141L115.599 78.9438L113.108 78.3447L113.834 75.3229L111.425 74.7435L110.698 77.7653L108.391 77.2105L108.975 74.7807L106.75 74.2455L105.675 78.717L107.104 79.0608C105.81 80.7583 104.011 82.3127 102.23 83.1589L103.473 77.9932C104.557 76.8068 105.575 75.5396 106.444 74.2585L104.314 72.9686C102.57 75.6379 100.117 78.1149 97.8377 79.5106C98.1086 80.1805 98.4379 81.6852 98.5201 82.3314C99.1076 81.9543 99.7097 81.5159 100.301 81.0318L97.7922 91.4654L100.099 92.0202L102.191 83.3222C102.624 83.8582 103.229 84.846 103.513 85.3681C103.964 85.1094 104.446 84.8147 104.916 84.4744L102.942 92.6823L105.27 93.2421L105.447 92.5071L114.717 94.7363L115.168 92.8579ZM126.137 90.8953L128.22 91.3961L130.45 84.5458L131.284 81.5281L127.895 80.713L127.265 83.7798L126.137 90.8953ZM125.872 96.5768C126.893 96.8224 127.846 96.2739 128.101 95.2122C128.362 94.13 127.762 93.2084 126.742 92.9629C125.721 92.7174 124.768 93.2658 124.508 94.348C124.252 95.4097 124.831 96.3264 125.872 96.5768Z" fill="#FF4040"/>
</svg>
