<svg width="178" height="57" viewBox="0 0 178 57" fill="none" xmlns="http://www.w3.org/2000/svg">
<rect x="25" y="28" width="148" height="24" stroke="#FF4040" stroke-width="10"/>
<path d="M22.852 33.288H25.588C26.164 35.592 26.956 37.428 27.928 38.976C26.2 39.156 24.472 39.3 22.852 39.444V33.288ZM15.364 32.28C15.688 30.624 15.868 28.932 15.94 27.312H19.252V32.28H15.364ZM32.68 14.784V19.932H16.012V14.784H32.68ZM24.148 26.304V22.92C24.868 22.812 25.084 22.524 25.12 22.128L19.252 21.624V26.304H15.976C16.012 25.404 16.012 24.54 16.012 23.676V20.94H32.68V22.128L27.892 21.732V26.304H24.148ZM27.892 32.28H24.148V27.312H27.892V32.28ZM33.472 33.288C32.428 34.332 30.808 35.808 29.44 36.924C28.144 35.988 27.064 34.8 26.272 33.288H33.472ZM34.66 33.288H39.628C40.168 33.288 40.528 33.108 40.636 32.712C39.16 31.308 36.676 29.256 36.676 29.256L34.444 32.28H32.716V27.312H39.232C39.736 27.312 40.132 27.132 40.24 26.736C38.764 25.332 36.244 23.28 36.244 23.28L34.048 26.304H32.716V23.064C33.436 22.92 33.688 22.632 33.724 22.272C35.344 22.236 37.9 21.48 37.972 21.228V15.612C38.728 15.468 39.16 15.144 39.376 14.856L34.588 11.292L32.32 13.776H16.768L10.72 11.76V23.676C10.72 30.84 10.396 38.832 6.4 45.132L6.688 45.348C11.764 42.108 14.068 37.752 15.148 33.288H18.028V39.804C15.94 39.984 14.212 40.092 13.096 40.128L15.4 45.456C15.832 45.384 16.228 45.06 16.48 44.592C22.06 42.396 25.768 40.74 28.252 39.444C30.34 42.432 33.256 44.124 37.108 45.492C37.648 43.044 38.908 41.388 40.888 40.812V40.38C37.036 39.984 33.328 39.264 30.448 37.572C32.752 37.32 35.272 36.924 37.108 36.564C37.9 36.78 38.26 36.6 38.476 36.276L34.66 33.288ZM72.028 16.548C72.568 16.548 72.964 16.368 73.072 15.972C71.164 14.352 67.96 12.012 67.96 12.012L65.152 15.54H46.72L47.008 16.548H72.028ZM48.952 27.744C47.98 31.812 45.532 37.644 42.256 41.46L42.544 41.784C47.656 39.228 51.472 34.908 53.776 31.2C54.676 31.272 55 30.984 55.18 30.624L48.952 27.744ZM65.008 28.932C67.672 31.956 70.228 36.204 71.164 40.164C76.672 44.16 80.668 32.712 65.332 28.716L65.008 28.932ZM68.284 23.892H42.472L42.76 24.9H57.016V38.976C57.016 39.372 56.836 39.624 56.26 39.624C55.324 39.624 50.752 39.372 50.752 39.372V39.804C53.056 40.164 53.884 40.776 54.532 41.568C55.252 42.36 55.504 43.656 55.576 45.42C61.516 45.024 62.416 42.612 62.416 39.12V24.9H75.412C75.952 24.9 76.384 24.72 76.492 24.324C74.512 22.668 71.2 20.184 71.2 20.184L68.284 23.892ZM87.004 22.128C88.588 19.752 90.028 17.124 91.288 14.136C92.152 14.172 92.62 13.884 92.8 13.416L85.96 11.184C84.34 18.42 81.064 25.944 78.004 30.624L78.364 30.912C79.948 29.796 81.46 28.536 82.864 27.132V45.42H83.836C85.888 45.42 88.012 44.34 88.084 43.98V23.64C88.804 23.496 89.092 23.244 89.2 22.92L87.004 22.128ZM111.808 20.184C112.348 20.184 112.78 20.004 112.888 19.608C111.052 17.988 107.992 15.612 107.992 15.612L105.256 19.176H98.416C99.388 17.664 100.288 16.044 101.116 14.316C101.98 14.388 102.448 14.1 102.628 13.632L95.716 11.22C94.204 17.628 91.288 24.432 88.624 28.644L88.984 28.896C92.26 26.736 95.14 23.928 97.624 20.364V45.348H98.632C101.404 45.348 103.024 44.34 103.024 44.052V35.808H111.232C111.772 35.808 112.204 35.628 112.312 35.232C110.44 33.612 107.344 31.2 107.344 31.2L104.608 34.8H103.024V27.924H110.512C111.052 27.924 111.448 27.744 111.556 27.348C109.828 25.836 106.984 23.604 106.984 23.604L104.464 26.916H103.024V20.184H111.808ZM135.964 15.072V23.172H126.964V15.072H135.964ZM126.964 24.18H135.964V27.24H136.864C138.664 27.24 141.148 26.196 141.184 25.872V15.9C141.94 15.756 142.408 15.396 142.624 15.108L137.908 11.544L135.604 14.064H127.18L121.744 11.976V27.636H122.5C124.66 27.636 126.964 26.484 126.964 26.016V24.18ZM121.168 40.164V30.696H125.128V40.164H121.168ZM124.768 29.688H121.348L116.236 27.708V45.024H116.956C119.044 45.024 121.168 43.908 121.168 43.44V41.172H125.128V44.376H125.992C127.72 44.376 130.096 43.332 130.132 43.008V31.488C130.888 31.344 131.32 31.02 131.536 30.732L127 27.24L124.768 29.688ZM137.62 40.164V30.696H141.868V40.164H137.62ZM143.776 27.204L141.508 29.688H137.8L132.688 27.708V45.024H133.408C135.496 45.024 137.62 43.908 137.62 43.44V41.172H141.868V44.52H142.732C144.424 44.52 146.944 43.656 146.98 43.368V31.524C147.736 31.344 148.204 31.02 148.42 30.732L143.776 27.204Z" fill="black"/>
</svg>
