<svg width="72" height="24" viewBox="0 0 72 24" fill="none" xmlns="http://www.w3.org/2000/svg">
<g style="mix-blend-mode:multiply">
<rect y="10" width="72" height="14" fill="#E6E6E6"/>
</g>
<path d="M9.604 5.952H6.164L6.292 6.416H9.94V7.616C9.412 13.232 6.724 17.12 3.172 19.008L3.332 19.248C6.98 17.584 9.476 14.64 10.516 10.576C11.236 14.672 14.052 17.776 16.74 19.264C16.98 18.672 17.316 18.368 17.86 18.352L17.924 18.16C13.428 16.32 10.98 12.576 10.436 7.568L10.42 6.784C11.22 6.72 11.796 6.544 12.052 6.24L10.26 4.928L9.604 5.952ZM30.964 5.856V7.44H26.324V5.856H30.964ZM26.324 9.536V7.92H30.964V9.536H26.324ZM26.324 10.016H30.964V10.672H31.124C31.46 10.672 31.972 10.4 31.988 10.304V6.048C32.308 5.984 32.548 5.856 32.66 5.728L31.38 4.752L30.804 5.392H26.404L25.316 4.896V10.832H25.46C25.876 10.832 26.324 10.608 26.324 10.512V10.016ZM24.436 12.832C23.668 13.168 22.9 13.488 22.18 13.792V9.376H24.02C24.228 9.376 24.388 9.312 24.436 9.136C23.972 8.64 23.204 7.952 23.204 7.952L22.516 8.912H22.18V5.392C22.596 5.344 22.74 5.184 22.772 4.96L21.156 4.784V8.912H19.22L19.332 9.376H21.156V14.208C20.228 14.592 19.46 14.896 19.028 15.04L19.7 16.384C19.86 16.304 19.988 16.128 20.004 15.936C21.956 14.752 23.46 13.744 24.516 13.056L24.436 12.832ZM33.588 11.92C33.796 11.92 33.94 11.84 33.988 11.664C33.476 11.168 32.612 10.512 32.612 10.512L31.876 11.44H23.476L23.604 11.92H26.036C25.284 13.488 24.036 14.896 22.436 15.936L22.612 16.16C23.972 15.504 25.14 14.688 26.052 13.68H27.412C26.468 15.472 24.932 17.072 22.996 18.208L23.188 18.464C25.556 17.328 27.38 15.728 28.484 13.68H29.796C29.092 15.824 27.764 17.632 25.748 18.96L25.892 19.216C28.436 17.904 30.068 16.08 30.948 13.68H32.18C31.972 16.032 31.572 17.488 31.172 17.84C31.028 17.952 30.884 17.984 30.612 17.984C30.292 17.984 29.38 17.92 28.836 17.872L28.82 18.144C29.316 18.224 29.812 18.352 30.004 18.528C30.212 18.672 30.26 18.944 30.26 19.248C30.852 19.248 31.396 19.104 31.812 18.768C32.5 18.224 32.98 16.576 33.188 13.808C33.508 13.76 33.716 13.696 33.812 13.568L32.628 12.608L32.052 13.232H26.42C26.74 12.816 27.028 12.384 27.268 11.92H33.588ZM37.652 15.472C37.572 16.784 36.612 17.76 35.78 18.112C35.444 18.32 35.236 18.624 35.364 18.944C35.54 19.312 36.132 19.296 36.58 19.008C37.348 18.592 38.276 17.456 37.924 15.488L37.652 15.472ZM39.828 15.728C40.18 16.576 40.484 17.856 40.388 18.864C41.252 19.856 42.436 17.712 40.052 15.648L39.828 15.728ZM42.804 15.744C43.444 16.528 44.228 17.824 44.34 18.816C45.348 19.696 46.244 17.36 42.996 15.616L42.804 15.744ZM45.94 15.568C47.044 16.4 48.372 17.888 48.692 19.072C49.972 19.904 50.66 17.024 46.132 15.424L45.94 15.568ZM46.132 14.416H44.276V11.104H46.132V14.416ZM38.676 11.104H40.436V14.416H38.676V11.104ZM38.676 7.344H40.436V10.656H38.676V7.344ZM43.284 11.104V14.416H41.396V11.104H43.284ZM43.284 7.344V10.656H41.396V7.344H43.284ZM46.132 7.344V10.656H44.276V7.344H46.132ZM49.524 11.104C49.748 11.104 49.892 11.024 49.924 10.848C49.428 10.368 48.58 9.696 48.58 9.696L47.86 10.656H47.124V7.344H49.076C49.3 7.344 49.46 7.264 49.492 7.088C48.98 6.608 48.132 5.92 48.132 5.92L47.364 6.88H38.836L38.548 6.752C38.868 6.352 39.156 5.936 39.428 5.488C39.78 5.536 39.988 5.424 40.084 5.28L38.5 4.544C37.668 6.496 36.356 8.304 35.172 9.36L35.364 9.552C36.164 9.088 36.98 8.464 37.716 7.696V10.656H35.124L35.252 11.104H37.716V14.416H35.236L35.364 14.864H49.396C49.62 14.864 49.748 14.784 49.796 14.624C49.316 14.128 48.5 13.456 48.5 13.456L47.812 14.416H47.124V11.104H49.524ZM58.932 6.256C59.7 6.816 60.644 7.808 60.9 8.624C62.004 9.328 62.66 6.992 59.076 6.112L58.932 6.256ZM58.532 10C59.348 10.512 60.356 11.488 60.644 12.288C61.796 12.944 62.388 10.56 58.676 9.84L58.532 10ZM56.116 9.568C56.676 8.784 57.316 7.664 57.828 6.704C58.148 6.704 58.324 6.56 58.388 6.384L56.836 5.872C56.532 7.104 56.164 8.528 55.844 9.44L56.116 9.568ZM51.348 6.032C51.796 6.848 52.308 8.128 52.324 9.136C53.236 10.032 54.26 7.92 51.556 5.952L51.348 6.032ZM55.268 11.104H58.02C58.244 11.104 58.404 11.024 58.436 10.848C57.94 10.4 57.14 9.76 57.14 9.76L56.468 10.64H55.268V5.264C55.668 5.2 55.796 5.04 55.844 4.816L54.276 4.624V10.64H51.124L51.252 11.104H53.78C53.252 13.072 52.356 15.04 51.092 16.544L51.284 16.768C52.548 15.68 53.556 14.368 54.276 12.88V19.232H54.468C54.852 19.232 55.268 18.992 55.268 18.832V12.448C56.052 13.056 56.932 14.048 57.172 14.864C58.276 15.584 58.964 13.2 55.268 12.176V11.104ZM64.18 13.904L63.748 14V5.264C64.148 5.2 64.276 5.04 64.324 4.816L62.724 4.624V14.224L57.876 15.28L58.084 15.696L62.724 14.704V19.232H62.932C63.3 19.232 63.748 18.976 63.748 18.816V14.48L65.812 14.032C66.004 13.984 66.148 13.856 66.148 13.68C65.62 13.312 64.74 12.736 64.74 12.736L64.18 13.904Z" fill="black"/>
</svg>
