<svg width="442" height="87" viewBox="0 0 442 87" fill="none" xmlns="http://www.w3.org/2000/svg">
<path d="M143.072 18.76C141.56 21.244 139.616 23.404 137.312 25.276C137.996 23.656 137.024 21.352 132.992 21.028C134.288 20.308 135.548 19.552 136.664 18.76H143.072ZM139.904 5.764C138.32 7.816 136.376 9.688 134.072 11.38C134.864 9.94 134.072 7.78 130.508 7.672C131.66 7.06 132.704 6.412 133.712 5.764H139.904ZM146.096 15.016L143.252 17.752H138.068C139.112 16.996 140.048 16.204 140.912 15.412C142.208 15.412 142.712 15.088 142.928 14.584L138.356 13.54C141.488 11.704 144.044 9.472 146.132 6.952C147.212 6.88 147.788 6.736 148.112 6.34L143 2.092L140.192 4.756H135.152C136.052 4.108 136.844 3.424 137.6 2.74C138.896 2.74 139.4 2.416 139.58 1.948L131.984 0.147998C129.788 3.784 124.892 8.536 119.24 11.524L119.42 11.812C122.48 11.164 125.36 10.156 127.988 8.932C129.068 9.868 130.148 11.2 130.652 12.424C131.228 12.64 131.768 12.712 132.236 12.64C128.348 15.16 123.632 17.212 118.232 18.832L118.412 19.228C123.848 18.724 128.492 17.716 132.488 16.24C129.5 19.552 125.18 23.044 120.392 25.456L120.572 25.744C124.172 24.952 127.556 23.728 130.58 22.288C131.696 23.44 132.668 24.988 133.064 26.5C133.784 26.86 134.468 27.004 135.08 26.932C130.652 29.92 125.036 32.152 118.268 33.916L118.412 34.348C134.468 33.196 143.684 28.444 149.3 19.984C150.38 19.912 150.956 19.768 151.28 19.336L146.096 15.016ZM159.02 10.516H161.9C161.252 12.532 160.28 14.62 159.02 16.24C159.02 15.628 159.02 15.016 159.02 14.44V10.516ZM179.36 11.704C180.332 14.26 181.664 16.24 183.464 17.608C183.932 15.664 184.796 14.476 186.2 14.08L186.236 13.684C184.076 13.144 181.628 12.028 180.008 10.516H185.048C185.552 10.516 185.876 10.336 185.984 9.94C184.868 8.824 182.96 7.24 182.96 7.24L181.304 9.508H179.36V7.204C180.116 7.096 180.332 6.772 180.404 6.412L175.04 5.944V9.508H171.368C170.252 8.464 168.812 7.276 168.812 7.276L167.192 9.508H167.012V7.24C167.804 7.132 168.02 6.808 168.092 6.412L162.764 5.944V9.508H159.02V5.62H184.904C185.408 5.62 185.804 5.44 185.912 5.044C184.364 3.568 181.664 1.372 181.664 1.372L179.324 4.612H171.836V1.552C172.844 1.372 173.096 1.012 173.132 0.543999L166.976 0.075999V4.612H159.74L154.16 2.416V14.44C154.16 20.956 154.088 28.372 151.424 34.132L151.748 34.384C157.688 29.776 158.804 23.116 158.984 17.356C160.352 16.636 161.612 15.844 162.764 14.944V18.04H163.448C165.032 18.04 167.012 17.14 167.012 16.78V11.776C167.516 12.532 168.02 13.612 168.128 14.548C170.828 16.456 173.744 11.56 167.012 11.056V10.516H170.864C170.936 10.516 171.008 10.516 171.08 10.516H173.636C172.592 12.928 170.9 15.232 168.704 16.924L169.028 17.428C171.296 16.564 173.348 15.484 175.04 14.188V16.672C171.008 18.112 165.068 19.66 160.208 20.488L160.28 21.028C163.196 21.064 166.4 20.956 169.424 20.776V23.08H159.164L159.452 24.088H169.424V26.896H158.228L158.516 27.904H169.424V29.344C169.424 29.74 169.244 29.956 168.632 29.956C167.66 29.956 162.728 29.668 162.728 29.668V30.1C165.068 30.46 165.968 30.928 166.688 31.54C167.444 32.188 167.696 33.16 167.804 34.492C173.42 34.168 174.284 32.368 174.284 29.452V27.904H184.868C185.372 27.904 185.732 27.724 185.84 27.328C184.508 26.032 182.204 24.16 182.204 24.16L180.188 26.896H174.284V24.088H183.392C183.896 24.088 184.292 23.908 184.364 23.512C182.996 22.288 180.764 20.56 180.764 20.56L178.784 23.08H174.284V20.38C175.94 20.2 177.488 20.02 178.82 19.804C179.936 20.272 180.764 20.272 181.196 19.912L178.244 16.96C178.892 16.708 179.36 16.42 179.36 16.24V11.704ZM219.212 26.392V21.856H204.38C204.452 21.352 204.524 20.812 204.596 20.272H218.78V15.628H205.208V14.44H216.008V10.084H205.208V8.896H217.34V4.324H211.292C211.904 3.496 212.624 2.524 213.344 1.408L207.692 0.075999C207.224 1.3 206.36 2.956 205.604 4.108L206.396 4.324H198.44L199.124 4.036C198.692 2.848 197.72 1.264 196.712 0.111999L192.032 1.912C192.572 2.632 193.076 3.496 193.508 4.324H187.82V8.896H199.808V10.084H189.404V14.44H199.808V15.628H186.344V20.272H199.052C198.98 20.812 198.908 21.352 198.8 21.856H186.128V26.392H196.352C194.444 27.904 191.204 28.948 185.372 29.668C186.38 30.82 187.604 32.98 188 34.384C196.676 32.98 200.708 30.604 202.688 27.148C205.568 31.504 209.708 33.664 216.98 34.492C217.628 33.016 218.996 30.784 220.112 29.632C214.712 29.344 210.932 28.372 208.412 26.392H219.212ZM224.756 0.291998C223.82 3.136 221.624 7.528 219.212 10.336L219.5 10.66C223.352 9.004 226.808 6.304 229.004 3.928C229.868 4.036 230.228 3.82 230.408 3.46L224.756 0.291998ZM226.88 14.836C227.672 13.828 228.428 12.82 229.076 11.92C229.976 12.064 230.3 11.812 230.516 11.452L224.792 8.212C223.82 11.92 221.516 17.752 218.816 21.604L219.14 21.928C220.4 21.136 221.552 20.236 222.632 19.264V34.42H223.532C225.404 34.42 227.42 33.484 227.492 33.16V16.168C228.176 16.06 228.5 15.808 228.644 15.484L226.88 14.836ZM244.736 9.076C245.24 9.076 245.6 8.896 245.708 8.5C245.06 7.96 244.268 7.312 243.548 6.772C244.448 6.448 245.024 5.476 244.736 4.432H252.044C252.548 4.432 252.944 4.252 253.016 3.856C251.54 2.416 248.948 0.291998 248.948 0.291998L246.68 3.424H244.196C243.548 2.632 242.288 1.876 240.236 1.408L239.876 1.588C240.596 2.74 241.172 4.54 241.1 6.16L239.516 8.068H238.724V2.02C239.696 1.876 239.948 1.516 240.056 0.975998L234.008 0.399999V8.068H229.184L229.472 9.076H234.008V13.36L230.12 12.784C230.192 18.04 229.58 23.692 228.428 27.868L228.932 28.156C231.416 25.276 233 21.244 234.008 16.42V34.24H234.908C236.672 34.24 238.724 33.088 238.724 32.62V9.076H244.736ZM239.012 12.892C240.38 16.42 240.452 21.136 240.272 23.908C242.648 28.228 249.272 20.704 239.48 12.712L239.012 12.892ZM247.112 11.74H242.144L242.432 12.748H245.924V28.696C245.924 29.092 245.78 29.308 245.276 29.308C244.628 29.308 241.856 29.128 241.856 29.128V29.596C243.476 29.884 244.088 30.424 244.52 31.072C244.952 31.792 245.06 32.908 245.096 34.384C250.1 34.024 250.82 31.936 250.82 28.84V12.748H252.872C253.376 12.748 253.772 12.568 253.88 12.172C252.26 10.66 249.524 8.392 249.524 8.392L247.112 11.74ZM286.208 12.244C286.748 12.244 287.18 12.064 287.288 11.668C285.272 9.976 281.924 7.456 281.924 7.456L278.936 11.236H271.988C272.24 8.32 272.276 5.26 272.348 2.092C273.212 1.948 273.572 1.624 273.68 1.048L266.516 0.399999C266.516 4.216 266.552 7.816 266.336 11.236H253.448L253.736 12.244H266.264C265.544 20.524 262.916 27.688 253.124 33.988L253.412 34.456C266.876 29.524 270.584 22.252 271.736 13.576C272.672 20.776 275.264 29.596 282.824 34.456C283.256 31.432 284.804 29.704 287.468 29.164L287.504 28.732C277.784 25.132 273.392 18.832 272.168 12.244H286.208ZM300.752 0.327998C301.544 2.092 302.228 4.432 302.192 6.7C306.332 10.624 311.804 2.632 301.04 0.183998L300.752 0.327998ZM292.472 0.795998C293.732 2.488 294.92 4.972 295.136 7.276C299.564 10.696 303.992 2.092 292.76 0.615999L292.472 0.795998ZM316.772 5.548L314 8.32H309.104C311.588 6.772 314.18 4.684 315.908 3.172C316.736 3.28 317.168 2.992 317.348 2.596L310.904 0.183998C310.22 2.56 308.996 5.908 307.808 8.32H292.724C292.508 7.348 292.112 6.304 291.5 5.188L291.068 5.224C291.428 7.564 290.204 9.652 288.908 10.444C287.612 11.056 286.712 12.208 287.18 13.72C287.72 15.268 289.484 15.772 290.924 14.944C292.364 14.152 293.372 12.172 292.94 9.328H314.18C313.928 10.408 313.568 11.668 313.208 12.712L310.904 10.516L308.024 13.216H293.552L293.876 14.224H307.808C307.016 15.448 305.936 16.924 304.964 18.112L301.292 17.824V21.568H287.468L287.756 22.576H301.292V28.156C301.292 28.624 301.112 28.804 300.536 28.804C299.564 28.804 293.876 28.444 293.876 28.444V28.876C296.432 29.344 297.368 29.92 298.232 30.712C299.096 31.54 299.348 32.728 299.528 34.456C305.9 33.916 306.836 31.972 306.836 28.408V22.576H320.084C320.624 22.576 321.056 22.396 321.164 22C319.328 20.344 316.196 17.932 316.196 17.932L313.46 21.568H306.836V19.3C307.592 19.156 307.952 18.904 308.024 18.364L306.98 18.292C309.428 17.428 312.236 16.312 314.108 15.448C314.9 15.376 315.26 15.268 315.548 14.944L313.928 13.396C316.016 12.64 318.536 11.452 320.084 10.516C320.876 10.48 321.236 10.372 321.524 10.012L316.772 5.548ZM33.488 64.244C34.028 64.244 34.46 64.064 34.568 63.668C32.552 61.976 29.204 59.456 29.204 59.456L26.216 63.236H19.268C19.52 60.32 19.556 57.26 19.628 54.092C20.492 53.948 20.852 53.624 20.96 53.048L13.796 52.4C13.796 56.216 13.832 59.816 13.616 63.236H0.727993L1.01599 64.244H13.544C12.824 72.524 10.196 79.688 0.403993 85.988L0.691993 86.456C14.156 81.524 17.864 74.252 19.016 65.576C19.952 72.776 22.544 81.596 30.104 86.456C30.536 83.432 32.084 81.704 34.748 81.164L34.784 80.732C25.064 77.132 20.672 70.832 19.448 64.244H33.488ZM48.032 52.328C48.824 54.092 49.508 56.432 49.472 58.7C53.612 62.624 59.084 54.632 48.32 52.184L48.032 52.328ZM39.752 52.796C41.012 54.488 42.2 56.972 42.416 59.276C46.844 62.696 51.272 54.092 40.04 52.616L39.752 52.796ZM64.052 57.548L61.28 60.32H56.384C58.868 58.772 61.46 56.684 63.188 55.172C64.016 55.28 64.448 54.992 64.628 54.596L58.184 52.184C57.5 54.56 56.276 57.908 55.088 60.32H40.004C39.788 59.348 39.392 58.304 38.78 57.188L38.348 57.224C38.708 59.564 37.484 61.652 36.188 62.444C34.892 63.056 33.992 64.208 34.46 65.72C35 67.268 36.764 67.772 38.204 66.944C39.644 66.152 40.652 64.172 40.22 61.328H61.46C61.208 62.408 60.848 63.668 60.488 64.712L58.184 62.516L55.304 65.216H40.832L41.156 66.224H55.088C54.296 67.448 53.216 68.924 52.244 70.112L48.572 69.824V73.568H34.748L35.036 74.576H48.572V80.156C48.572 80.624 48.392 80.804 47.816 80.804C46.844 80.804 41.156 80.444 41.156 80.444V80.876C43.712 81.344 44.648 81.92 45.512 82.712C46.376 83.54 46.628 84.728 46.808 86.456C53.18 85.916 54.116 83.972 54.116 80.408V74.576H67.364C67.904 74.576 68.336 74.396 68.444 74C66.608 72.344 63.476 69.932 63.476 69.932L60.74 73.568H54.116V71.3C54.872 71.156 55.232 70.904 55.304 70.364L54.26 70.292C56.708 69.428 59.516 68.312 61.388 67.448C62.18 67.376 62.54 67.268 62.828 66.944L61.208 65.396C63.296 64.64 65.816 63.452 67.364 62.516C68.156 62.48 68.516 62.372 68.804 62.012L64.052 57.548ZM96.74 58.736C96.632 59.564 96.488 60.536 96.38 61.292L95.804 60.86L93.572 63.848H81.692L81.98 64.856H98.9C99.404 64.856 99.8 64.676 99.908 64.28C99.116 63.524 98 62.624 97.136 61.904C98.504 61.292 100.268 60.32 101.348 59.636C102.104 59.6 102.464 59.528 102.752 59.204L98.756 55.424L96.452 57.728H92.852V53.732C93.716 53.588 93.968 53.264 94.004 52.796L87.812 52.328V57.728H84.392C84.212 56.864 83.888 55.928 83.42 54.92H82.952C83.168 56.612 82.052 58.376 81.116 59.096C79.928 59.708 79.136 60.824 79.604 62.192C80.18 63.668 82.052 63.992 83.132 63.164C84.14 62.408 84.752 60.86 84.536 58.736H96.74ZM74.204 74.612V56.036H76.148C75.968 58.808 75.464 62.948 75.032 65.288C76.148 67.484 76.508 70.22 76.508 72.632C76.508 73.604 76.328 74.18 75.968 74.432C75.788 74.576 75.644 74.612 75.32 74.612H74.204ZM78.056 52.76L75.752 55.028H74.708L69.524 53.12V86.456H70.388C72.764 86.456 74.204 85.304 74.204 84.98V75.08C74.744 75.296 75.068 75.62 75.284 76.016C75.572 76.592 75.68 78.464 75.68 79.688C79.604 79.652 80.828 77.456 80.828 73.928C80.828 71.012 79.244 67.448 75.932 65.216C77.732 62.984 79.676 59.42 80.864 57.296C81.692 57.26 82.16 57.116 82.448 56.756L78.056 52.76ZM101.42 75.512H101.024C100.34 77.708 99.728 79.652 99.368 80.264C99.152 80.66 99.008 80.732 98.684 80.732H97.676H96.524C95.984 80.732 95.876 80.588 95.876 80.156V70.724V70.148H101.456C101.96 70.148 102.356 69.968 102.464 69.572C100.916 68.096 98.288 65.936 98.288 65.936L95.948 69.14H80.216L80.504 70.148H84.068C84.032 77.06 82.7 82.208 75.68 85.988L75.824 86.384C85.904 83.864 88.856 78.392 89.216 70.148H91.124V81.524C91.124 84.548 91.628 85.448 94.94 85.448H97.064C101.312 85.448 102.788 84.368 102.788 82.532C102.788 81.632 102.572 81.056 101.528 80.516L101.42 75.512ZM119.384 77.636V76.628H128.924V77.636H119.384ZM128.924 71.912V73.028H119.384V71.912H128.924ZM133.856 68.168H114.56V86.492H119.384V81.164H128.924V81.56C128.924 81.992 128.744 82.136 128.276 82.136C127.808 82.136 126.08 82.172 124.82 82.064C125.396 83.288 126.008 85.196 126.188 86.492C128.672 86.492 130.544 86.456 131.984 85.736C133.46 85.052 133.856 83.828 133.856 81.668V68.168ZM114.416 59.096V60.5C114.092 59.744 113.768 58.916 113.408 58.124H121.436V59.096H114.416ZM126.62 63.488V62.516H133.892V59.096H126.62V58.124H134.936V54.488H126.62V52.22H121.436V54.488H113.372V58.052L112.868 56.936L110.816 57.8V52.22H106.1V59.852L102.86 59.456C102.68 62.444 102.176 66.512 101.456 68.996L105.2 70.292C105.56 68.78 105.884 66.872 106.1 64.964V86.42H110.816V61.076C111.176 62.048 111.5 62.984 111.68 63.704L114.416 62.408V62.516H121.436V63.488H112.256V67.16H136.088V63.488H126.62ZM146.708 69.284H142.064L143.108 68.996C143 68.096 142.568 66.764 142.1 65.612H146.708C146.42 66.728 146.024 68.024 145.664 68.996L146.708 69.284ZM146.78 59.42H151.172V55.136H146.78V52.364H141.956V55.136H137.06V59.42H141.956V61.256H135.764V65.612H139.076L137.924 65.9C138.356 66.944 138.716 68.24 138.932 69.284H136.628V73.64H141.956V75.8H136.916V80.156H141.956V86.312H146.78V80.156H151.532V75.8H146.78V73.64H151.892V69.284H149.66C150.092 68.312 150.56 67.16 151.136 65.9L149.948 65.612H152.468V61.256H146.78V59.42ZM157.58 73.1C158.3 75.188 159.2 77.168 160.208 78.968C159.416 80.048 158.552 81.02 157.58 81.92V73.1ZM163.988 70.256C163.664 71.696 163.232 73.064 162.692 74.36C161.972 73.064 161.36 71.696 160.892 70.256H163.988ZM166.256 65.972L165.428 66.152H157.58V58.196H163.664V60.284C163.664 60.68 163.484 60.752 162.944 60.788C162.44 60.788 160.388 60.788 158.912 60.716C159.488 61.94 160.136 63.812 160.316 65.18C162.908 65.18 164.924 65.144 166.472 64.46C168.056 63.776 168.488 62.516 168.488 60.392V53.66H152.864V86.384H157.58V84.008C158.408 84.8 159.236 85.7 159.74 86.492C161 85.52 162.116 84.368 163.16 83.072C164.348 84.404 165.68 85.556 167.156 86.492C167.912 85.196 169.424 83.324 170.54 82.388C168.776 81.488 167.228 80.264 165.86 78.788C167.552 75.44 168.704 71.444 169.352 67.088L166.256 65.972ZM197.288 53.588L194.012 54.92C194.192 55.208 194.408 55.496 194.588 55.82C193.508 55.964 192.356 56.036 191.276 56.036H179.612C178.424 56.036 176.732 55.928 175.544 55.748V61.148C176.696 61.076 178.388 61.004 179.612 61.004H191.276C192.572 61.004 194.012 61.076 195.308 61.148V57.08C195.812 58.016 196.316 58.988 196.712 59.78L200.024 58.376C199.412 57.152 198.188 54.884 197.288 53.588ZM201.608 51.896L198.332 53.228C199.268 54.56 200.384 56.612 201.068 58.052L204.344 56.648C203.768 55.46 202.508 53.228 201.608 51.896ZM171.584 64.748V70.292C172.556 70.22 174.068 70.148 175.112 70.148H184.58C184.328 72.884 183.572 75.296 182.168 77.276C180.512 79.58 178.136 81.236 175.796 82.1L180.764 85.7C183.932 84.08 186.452 81.632 188.036 78.716C189.26 76.412 190.232 73.676 190.52 70.148H198.008C199.052 70.148 200.492 70.184 201.464 70.256V64.748C200.456 64.928 198.728 65 198.008 65H175.112C173.996 65 172.664 64.892 171.584 64.748ZM229.256 66.872H231.164C233.144 66.872 234.368 66.872 235.34 66.98V61.4C234.116 61.616 233.144 61.688 231.128 61.688H229.256V58.412C229.256 57.548 229.292 56.792 229.364 56.144C230.012 57.476 230.516 59.276 231.02 60.788L233.792 59.852C233.468 58.52 232.748 56.576 232.1 55.136L229.4 56L229.508 54.92H223.496C223.64 55.82 223.712 56.972 223.712 58.412V61.688H216.368V58.808C216.368 57.296 216.512 56.108 216.62 55.28H210.608C210.752 56.504 210.824 57.62 210.824 58.772V61.688H208.34C206.432 61.688 205.172 61.436 204.38 61.292V67.016C205.388 66.944 206.432 66.872 208.34 66.872H210.824V71.12C210.824 72.812 210.752 74.18 210.644 75.08H216.548C216.476 74.18 216.368 72.812 216.368 71.12V66.872H223.712V68.132C223.712 76.052 220.868 79.076 213.884 81.38L218.42 85.664C227.132 81.848 229.256 76.304 229.256 68.024V66.872ZM233 54.848C233.684 56.288 234.296 58.088 234.764 59.6L237.536 58.7C237.176 57.404 236.42 55.424 235.772 53.984L233 54.848ZM238.616 68.456L241.244 73.82C245.312 72.632 249.524 70.904 253.052 69.104V79.328C253.052 81.02 252.944 83.468 252.8 84.404H259.496C259.208 83.432 259.136 81.02 259.136 79.328V65.576C262.448 63.38 265.868 60.644 268.496 58.088L263.888 53.732C261.692 56.396 257.444 60.14 253.916 62.336C249.992 64.712 244.988 66.872 238.616 68.456ZM279.512 55.676L275.48 59.96C278 61.76 282.428 65.612 284.264 67.628L288.584 63.2C286.496 60.968 281.924 57.332 279.512 55.676ZM274.328 78.896L277.928 84.476C282.356 83.792 286.892 81.956 290.456 79.868C296.288 76.448 301.256 71.588 304.064 66.62L300.752 60.644C298.412 65.576 293.696 70.976 287.396 74.612C283.976 76.628 279.476 78.176 274.328 78.896ZM327.212 67.88V56.684H329.696V67.88H327.212ZM319.22 67.88V67.7C319.76 67.592 320.12 67.34 320.3 67.124L316.268 64.064L314.216 66.188H312.704L312.092 65.972C313.244 63.128 314.036 60.032 314.504 56.684H322.352V67.88H319.22ZM312.236 78.824V67.196H314.54V78.824H312.236ZM334.736 67.412V56.684H337.832C338.336 56.684 338.732 56.504 338.84 56.108C337.22 54.632 334.484 52.4 334.484 52.4L332.072 55.676H320.912C319.256 54.272 317.024 52.544 317.024 52.544L314.576 55.676H305.072L305.36 56.684H309.248C308.672 63.596 307.34 70.904 304.676 76.088L305.108 76.412C306.044 75.476 306.944 74.54 307.736 73.532V84.548H308.564C310.868 84.548 312.236 83.54 312.236 83.216V79.832H314.54V82.532H315.368C316.916 82.532 319.184 81.632 319.22 81.344V68.492L319.328 68.888H322.352C322.316 75.584 321.488 81.524 315.98 86.24L316.268 86.492C326.096 82.388 327.14 75.62 327.212 68.888H329.696V86.348H330.632C333.224 86.348 334.7 85.304 334.736 84.98V68.888H339.056C339.56 68.888 339.956 68.708 340.028 68.312C338.804 66.836 336.464 64.532 336.464 64.532L334.736 67.412ZM348.956 58.016C348.488 63.056 346.148 66.836 340.1 69.428L340.208 69.824C349.064 68.204 353.636 64.424 354.752 58.016H357.236V63.812C357.236 66.944 357.884 67.808 361.736 67.808H364.688C370.124 67.808 371.708 66.98 371.708 65C371.708 64.1 371.42 63.488 370.16 62.948L370.016 60.644H369.656C369.044 61.832 368.468 62.624 368.108 62.948C367.856 63.164 367.496 63.236 367.1 63.236C366.704 63.272 366.02 63.272 365.372 63.272H363.212C362.492 63.272 362.384 63.128 362.384 62.696V58.556V58.016H365.408C365.156 59.276 364.76 60.824 364.4 61.868L364.616 62.084C366.668 61.4 369.404 60.14 371.06 59.132C371.852 59.096 372.176 58.988 372.5 58.664L367.892 54.344L365.192 57.008H358.568V53.66C359.468 53.516 359.684 53.192 359.72 52.76L353.168 52.256V57.008H345.644C345.5 56.18 345.212 55.28 344.816 54.344H344.42C344.384 56.18 342.728 57.764 341.396 58.34C339.956 58.988 338.948 60.212 339.416 61.904C339.956 63.74 342.08 64.352 343.52 63.524C344.996 62.696 346.04 60.752 345.788 58.016H348.956ZM371.672 76.088H371.312C370.52 78.032 369.872 79.4 369.476 79.94C369.224 80.264 369.008 80.336 368.648 80.372H367.316H365.588C364.976 80.372 364.868 80.228 364.868 79.796V73.784C365.48 73.676 365.84 73.496 366.02 73.208L361.592 69.68L359.072 72.452H355.976C356.228 71.156 356.336 69.824 356.408 68.42C357.308 68.312 357.704 67.916 357.74 67.34L350.252 66.908C350.432 68.744 350.468 70.616 350.252 72.452H340.964L341.288 73.46H350.108C349.28 78.32 346.436 82.82 338.804 85.916L339.02 86.276C350.288 84.08 354.356 79.508 355.76 73.46H359.504V81.164C359.504 84.548 360.116 85.52 363.932 85.52H366.56C371.348 85.52 373.256 84.332 373.256 82.28C373.256 81.272 373.004 80.66 371.78 80.084L371.672 76.088ZM382.004 54.38C383.012 54.272 383.372 53.984 383.444 53.516L376.964 52.184C376.496 55.928 374.696 61.688 372.176 65.36L372.464 65.612C376.568 63.092 379.916 58.988 381.644 55.172C383.228 57.044 384.2 59.348 384.524 60.896C387.98 63.92 393.596 56.576 381.968 54.488L382.004 54.38ZM380.276 63.308H375.812L376.1 64.316H386.036C386.54 64.316 386.936 64.136 387.044 63.74C385.424 62.228 382.688 59.96 382.688 59.96L380.276 63.308ZM387.368 70.112C388.232 69.932 388.808 69.536 389.06 69.212L384.668 65.9L382.688 68.204H373.076L373.4 69.212H375.884V86.384H376.712C378.98 86.384 380.312 85.592 380.312 85.376V69.212H383.084V76.7C383.084 77.096 382.976 77.276 382.58 77.276C382.076 77.276 380.564 77.204 380.564 77.204V77.672C381.572 77.924 382.004 78.356 382.292 78.968C382.58 79.616 382.652 80.66 382.688 81.992C386.828 81.632 387.368 80.048 387.368 77.204V70.112ZM394.136 76.736V72.38H399.788V76.736H394.136ZM399.788 61.616V65.936H394.136V61.616H399.788ZM399.788 71.372H394.136V66.944H399.788V71.372ZM400.652 79.22C402.38 79.22 404.792 78.248 404.828 77.96V62.264C405.476 62.12 405.872 61.868 406.052 61.616L401.66 58.232L399.464 60.608H395.792C397.196 59.492 398.78 57.98 400.076 56.54H405.908C406.412 56.54 406.808 56.36 406.916 55.964C405.152 54.416 402.2 52.112 402.2 52.112L399.572 55.532H388.052L388.34 56.54H394.46C394.46 57.872 394.424 59.456 394.352 60.608H394.316L389.168 58.556V79.868H389.924C390.68 79.868 391.436 79.724 392.084 79.508C390.212 81.812 387.08 84.548 384.236 86.06L384.452 86.492C388.952 85.844 394.352 83.864 397.052 81.92C397.664 82.064 398.024 82.028 398.204 81.74L393.56 78.86C393.92 78.608 394.136 78.392 394.136 78.212V77.744H399.788V79.184C399.068 79.112 398.312 79.112 397.484 79.112L397.232 79.364C399.284 81.02 401.876 83.72 403.172 86.096C407.744 87.968 409.76 80.228 400.076 79.22H400.652ZM430.1 75.044C424.052 76.448 418.004 77.744 415.52 78.176L418.112 83.036C418.508 82.928 418.868 82.568 419.012 82.1C424.304 79.22 427.868 77.024 430.172 75.44L430.1 75.044ZM422.252 70.796V65.144H424.376V70.796H422.252ZM415.052 63.776H418.544V73.676C417.356 74.036 416.204 74.396 415.052 74.756V63.776ZM440.828 74.216C440.288 75.728 439.352 77.96 438.776 78.932C438.416 79.508 438.092 79.472 437.696 79.04C436.76 78.068 435.968 76.88 435.356 75.548C437.12 72.812 438.596 69.464 439.82 65.36C440.828 65.36 441.152 65.144 441.332 64.676L435.716 62.912C435.176 65.612 434.492 67.988 433.736 70.112C433.124 67.088 432.908 63.668 432.836 60.284H439.856C440.36 60.284 440.72 60.104 440.828 59.708C440.252 59.132 439.496 58.448 438.812 57.872C440.468 56.684 440.324 53.552 434.348 53.516L434.06 53.732C434.96 54.596 435.68 56.216 435.644 57.656C435.788 57.764 435.896 57.836 436.04 57.908L435.068 59.276H432.836C432.8 57.656 432.836 56.036 432.872 54.452C433.7 54.272 434.024 53.876 434.06 53.408L428.192 52.796C428.192 54.956 428.228 57.116 428.3 59.276H417.968L418.256 60.284H428.336C428.408 61.724 428.48 63.164 428.624 64.604L425.78 62.48L424.124 64.136H422.288L419.912 63.236V63.2C418.76 61.76 416.564 59.528 416.564 59.528L415.052 62.084V54.632C416.06 54.488 416.312 54.092 416.384 53.588L410.012 53.048V62.768H406.484L406.772 63.776H410.012V76.232C408.284 76.736 406.844 77.132 405.944 77.348L408.86 82.892C409.292 82.748 409.652 82.316 409.796 81.812C413.9 78.644 416.708 76.124 418.544 74.324V74.972H419.192C421.1 74.972 422.252 74.144 422.252 73.892V71.804H424.376V73.676H425.06C426.284 73.676 428.228 72.956 428.264 72.668V65.396C428.408 65.36 428.552 65.288 428.66 65.252C429.02 69.14 429.668 72.884 430.748 76.196C428.012 80.444 424.412 83.324 419.804 85.7L420.02 86.24C425.06 84.692 428.984 82.676 432.116 79.58C432.872 81.2 433.844 82.676 434.96 83.936C436.4 85.736 438.884 87.248 440.72 85.844C441.512 85.232 441.224 83.252 440.288 81.38L441.188 74.252L440.828 74.216Z" fill="black"/>
</svg>
