<svg width="316" height="50" viewBox="0 0 316 50" fill="none" xmlns="http://www.w3.org/2000/svg">
<path d="M5.617 9.945V9.165L4.317 8.905V1.885H6.007L6.332 3.185H7.177V0.845H0.092V3.185H0.937L1.262 1.885H2.952V8.905L1.652 9.165V9.945H5.617Z" fill="black"/>
<path d="M8.28759 3.445L8.35259 5.07H9.19759L9.37959 4.095C9.37959 4.095 9.91259 3.9 10.6926 3.9C11.4726 3.9 11.9276 4.29 11.9276 5.07V6.11H10.8876C9.06759 6.11 7.89759 6.63 7.89759 8.125C7.89759 9.36 8.61259 10.075 9.84759 10.075C10.7576 10.075 11.5376 9.477 11.9796 9.035L12.2526 9.945L14.2676 9.88V9.165L13.2276 8.905V4.94C13.2276 3.445 12.3306 2.925 10.8226 2.925C9.71759 2.925 8.28759 3.445 8.28759 3.445ZM11.0176 6.955H11.9276V7.995C11.9276 7.995 11.1476 9.035 10.1726 9.035C9.58759 9.035 9.22359 8.645 9.22359 8.06C9.22359 7.28 9.71758 6.955 11.0176 6.955Z" fill="black"/>
<path d="M17.4452 3.978L17.3282 3.055L15.1832 3.12V3.835L16.2882 4.095V8.905L15.1832 9.23V9.945H18.4332V9.23L17.5882 8.905V5.07C17.9652 4.537 18.7582 4.017 19.4342 4.017C20.1492 4.017 20.5132 4.394 20.5132 5.395V8.905L19.6682 9.23V9.945H22.6582V9.23L21.8132 8.905V5.07C22.2422 4.446 23.0092 4.03 23.6332 4.03C24.3742 4.03 24.7382 4.394 24.7382 5.395V8.905L23.8932 9.23V9.945H27.0132V9.23L26.0382 8.905V5.265C26.0382 3.835 25.4532 2.925 24.0232 2.925C22.8272 2.925 21.7742 3.874 21.6052 4.043C21.3062 3.367 20.7342 2.925 19.7982 2.925C18.7322 2.925 17.7442 3.692 17.4452 3.978Z" fill="black"/>
<path d="M28.3843 3.445L28.4493 5.07H29.2943L29.4763 4.095C29.4763 4.095 30.0093 3.9 30.7893 3.9C31.5693 3.9 32.0243 4.29 32.0243 5.07V6.11H30.9843C29.1643 6.11 27.9943 6.63 27.9943 8.125C27.9943 9.36 28.7093 10.075 29.9443 10.075C30.8543 10.075 31.6343 9.477 32.0763 9.035L32.3493 9.945L34.3643 9.88V9.165L33.3243 8.905V4.94C33.3243 3.445 32.4273 2.925 30.9193 2.925C29.8143 2.925 28.3843 3.445 28.3843 3.445ZM31.1143 6.955H32.0243V7.995C32.0243 7.995 31.2443 9.035 30.2693 9.035C29.6843 9.035 29.3203 8.645 29.3203 8.06C29.3203 7.28 29.8143 6.955 31.1143 6.955Z" fill="black"/>
<path d="M37.8209 9.165V9.945H41.3959V9.165L40.1739 8.918L40.6809 7.475H44.0609L44.5549 8.918L43.3459 9.165V9.945H47.1159V9.165L46.0369 8.918L43.1509 0.845L41.8509 0.91L38.8869 8.918L37.8209 9.165ZM41.0319 6.435L42.3969 2.522L43.7099 6.435H41.0319Z" fill="black"/>
<path d="M49.9579 4.004L49.8409 3.055L47.6959 3.12V3.835L48.8009 4.095V8.905L47.6959 9.23V9.945H51.4009V9.23L50.1009 8.905V5.044C50.3869 4.667 51.0109 4.03 51.9859 4.03L52.1809 5.005H53.0259L53.0909 3.12C53.0909 3.12 52.5709 2.925 51.9209 2.925C51.0369 2.925 50.2829 3.64 49.9579 4.004Z" fill="black"/>
<path d="M56.0788 3.12V1.222L54.7788 1.482V3.12L53.4788 3.25V4.095H54.7788V8.19C54.7788 9.646 55.4938 10.075 56.2738 10.075C56.9238 10.075 57.5088 9.854 58.0938 9.425L57.7428 8.736C57.4048 8.918 57.0408 9.061 56.7288 9.061C56.3648 9.061 56.0788 8.866 56.0788 8.268V4.095H57.9638V3.12H56.0788Z" fill="black"/>
<path d="M69.9888 6.24V1.885L71.0938 1.625V0.845L67.3888 0.91V1.625L68.6238 1.885V6.24C68.6238 8.255 68.1038 8.97 66.4788 8.97C64.9838 8.97 64.3338 8.385 64.3338 6.435V1.885L65.5688 1.625V0.845L61.8638 0.91V1.625L62.9688 1.885V6.435C62.9688 8.84 63.8788 10.075 66.4138 10.075C69.1438 10.075 69.9888 8.645 69.9888 6.24Z" fill="black"/>
<path d="M74.3963 3.978L74.2793 3.055L72.1343 3.12V3.835L73.2393 4.095V8.905L72.1343 9.23V9.945H75.3843V9.23L74.5393 8.905V5.07C74.5393 5.07 75.3193 4.03 76.4243 4.03C77.2693 4.03 77.5943 4.485 77.5943 5.395V8.905L76.7493 9.23V9.945H79.8693V9.23L78.8943 8.905V5.265C78.8943 3.835 78.2443 2.925 76.8143 2.925C75.7353 2.925 74.7083 3.705 74.3963 3.978Z" fill="black"/>
<path d="M81.6248 0.91C81.6248 1.495 81.9498 1.82 82.4698 1.82C82.8598 1.82 83.3148 1.495 83.3148 0.91C83.3148 0.26 82.9898 0 82.4698 0C82.0148 0 81.6248 0.325 81.6248 0.91ZM83.1848 8.905V3.055L80.7798 3.12V3.835L81.8848 4.095V8.905L80.7798 9.23V9.945H84.1598V9.23L83.1848 8.905Z" fill="black"/>
<path d="M87.6043 3.835V3.055L84.6793 3.12V3.835L85.3293 4.03L87.4613 9.945H88.8913L91.1013 3.965L91.8163 3.835V3.055L88.9043 3.12V3.835L89.8013 4.03L88.2413 8.775L86.6943 3.965L87.6043 3.835Z" fill="black"/>
<path d="M93.7611 6.695L98.2461 6.669C98.2461 6.669 98.3111 6.305 98.3111 5.98C98.3111 4.03 97.4661 2.925 95.5811 2.925C93.6961 2.925 92.3961 4.485 92.3961 6.565C92.3961 8.71 93.4361 10.075 95.5161 10.075C97.0761 10.075 98.2851 8.996 98.2851 8.996L97.8301 8.32C97.8301 8.32 96.9461 9.035 95.6461 9.035C94.5281 9.035 93.7611 8.125 93.7611 6.695ZM96.9331 5.72H93.8131C93.8911 4.745 94.4761 3.939 95.5161 3.939C96.5561 3.939 96.9331 4.745 96.9331 5.72Z" fill="black"/>
<path d="M101.679 4.004L101.562 3.055L99.4166 3.12V3.835L100.522 4.095V8.905L99.4166 9.23V9.945H103.122V9.23L101.822 8.905V5.044C102.108 4.667 102.732 4.03 103.707 4.03L103.902 5.005H104.747L104.812 3.12C104.812 3.12 104.292 2.925 103.642 2.925C102.758 2.925 102.004 3.64 101.679 4.004Z" fill="black"/>
<path d="M106.448 7.865H105.538V9.789C105.538 9.789 106.396 10.075 107.592 10.075C109.152 10.075 110.452 9.347 110.452 7.852C110.452 5.629 106.825 6.162 106.825 4.771C106.825 4.108 107.319 3.9 107.982 3.9C108.632 3.9 109.035 4.056 109.035 4.056L109.243 5.07H110.088L110.127 3.315C110.127 3.315 108.931 2.925 107.904 2.925C106.565 2.925 105.525 3.601 105.525 4.953C105.525 7.319 109.152 6.669 109.152 8.073C109.152 8.879 108.463 9.1 107.683 9.1C106.981 9.1 106.591 8.983 106.591 8.983L106.448 7.865Z" fill="black"/>
<path d="M112.398 0.91C112.398 1.495 112.723 1.82 113.243 1.82C113.633 1.82 114.088 1.495 114.088 0.91C114.088 0.26 113.763 0 113.243 0C112.788 0 112.398 0.325 112.398 0.91ZM113.958 8.905V3.055L111.553 3.12V3.835L112.658 4.095V8.905L111.553 9.23V9.945H114.933V9.23L113.958 8.905Z" fill="black"/>
<path d="M118.248 3.12V1.222L116.948 1.482V3.12L115.648 3.25V4.095H116.948V8.19C116.948 9.646 117.663 10.075 118.443 10.075C119.093 10.075 119.678 9.854 120.263 9.425L119.912 8.736C119.574 8.918 119.21 9.061 118.898 9.061C118.534 9.061 118.248 8.866 118.248 8.268V4.095H120.133V3.12H118.248Z" fill="black"/>
<path d="M123.702 3.835V3.055L120.647 3.12V3.835L121.427 4.03L123.754 9.971C123 11.622 122.61 12.025 121.466 12.025C121.323 12.025 121.193 12.025 121.037 12.012L120.92 13C120.92 13 121.427 13.065 121.752 13.065C123.897 13.065 124.573 10.92 125.262 9.113L127.108 3.965L127.953 3.835V3.055L124.872 3.12V3.835L125.782 4.03L124.352 8.515L122.792 3.965L123.702 3.835Z" fill="black"/>
<path d="M8.217 25.295V22.513L9.192 22.253V21.473L5.812 21.538V22.253L6.917 22.513V24.645C6.917 24.645 6.007 24.97 5.097 24.97C3.407 24.97 2.237 23.865 2.237 21.525C2.237 19.12 3.212 17.82 4.967 17.82C5.942 17.82 6.722 18.08 6.722 18.08L7.112 19.51H7.957L8.022 17.365C8.022 17.365 6.527 16.715 5.097 16.715C2.432 16.715 0.742 18.6 0.742 21.59C0.742 24.515 2.302 26.075 4.902 26.075C6.839 26.075 8.217 25.295 8.217 25.295Z" fill="black"/>
<path d="M12.494 20.004L12.377 19.055L10.232 19.12V19.835L11.337 20.095V24.905L10.232 25.23V25.945H13.937V25.23L12.637 24.905V21.044C12.923 20.667 13.547 20.03 14.522 20.03L14.717 21.005H15.562L15.627 19.12C15.627 19.12 15.107 18.925 14.457 18.925C13.573 18.925 12.819 19.64 12.494 20.004Z" fill="black"/>
<path d="M16.73 19.445L16.795 21.07H17.64L17.822 20.095C17.822 20.095 18.355 19.9 19.135 19.9C19.915 19.9 20.37 20.29 20.37 21.07V22.11H19.33C17.51 22.11 16.34 22.63 16.34 24.125C16.34 25.36 17.055 26.075 18.29 26.075C19.2 26.075 19.98 25.477 20.422 25.035L20.695 25.945L22.71 25.88V25.165L21.67 24.905V20.94C21.67 19.445 20.773 18.925 19.265 18.925C18.16 18.925 16.73 19.445 16.73 19.445ZM19.46 22.955H20.37V23.995C20.37 23.995 19.59 25.035 18.615 25.035C18.03 25.035 17.666 24.645 17.666 24.06C17.666 23.28 18.16 22.955 19.46 22.955Z" fill="black"/>
<path d="M29.6706 24.905V15.935L27.2656 16V16.715L28.3706 16.975V19.133C28.0326 19.016 27.6166 18.925 27.1356 18.925C24.7956 18.925 23.6906 20.485 23.6906 22.695C23.6906 24.71 24.5356 26.075 26.4206 26.075C27.4086 26.075 28.0846 25.581 28.4616 25.204L28.5656 25.945L30.7756 25.88V25.165L29.6706 24.905ZM28.3706 20.225V24.06C28.3706 24.06 27.7856 25.035 26.6806 25.035C25.5106 25.035 25.0556 23.995 25.0556 22.565C25.0556 21.135 25.4976 19.965 27.0056 19.965C27.9156 19.965 28.3706 20.225 28.3706 20.225Z" fill="black"/>
<path d="M38.1236 24.905V19.055L35.7186 19.12V19.835L36.8236 20.095V23.943C36.8236 23.943 36.0436 24.97 34.9386 24.97C34.0936 24.97 33.7686 24.528 33.7686 23.618V19.055L31.3636 19.12V19.835L32.4686 20.095V23.748C32.4686 25.178 33.1186 26.075 34.5486 26.075C35.6146 26.075 36.6416 25.308 36.9536 25.035L37.0836 25.945L39.2286 25.88V25.165L38.1236 24.905Z" fill="black"/>
<path d="M40.5337 19.445L40.5987 21.07H41.4437L41.6257 20.095C41.6257 20.095 42.1587 19.9 42.9387 19.9C43.7187 19.9 44.1737 20.29 44.1737 21.07V22.11H43.1337C41.3137 22.11 40.1437 22.63 40.1437 24.125C40.1437 25.36 40.8587 26.075 42.0937 26.075C43.0037 26.075 43.7837 25.477 44.2257 25.035L44.4987 25.945L46.5137 25.88V25.165L45.4737 24.905V20.94C45.4737 19.445 44.5767 18.925 43.0687 18.925C41.9637 18.925 40.5337 19.445 40.5337 19.445ZM43.2637 22.955H44.1737V23.995C44.1737 23.995 43.3937 25.035 42.4187 25.035C41.8337 25.035 41.4697 24.645 41.4697 24.06C41.4697 23.28 41.9637 22.955 43.2637 22.955Z" fill="black"/>
<path d="M49.7693 19.12V17.222L48.4693 17.482V19.12L47.1693 19.25V20.095H48.4693V24.19C48.4693 25.646 49.1843 26.075 49.9643 26.075C50.6143 26.075 51.1993 25.854 51.7843 25.425L51.4333 24.736C51.0953 24.918 50.7313 25.061 50.4193 25.061C50.0553 25.061 49.7693 24.866 49.7693 24.268V20.095H51.6543V19.12H49.7693Z" fill="black"/>
<path d="M53.9232 22.695L58.4082 22.669C58.4082 22.669 58.4732 22.305 58.4732 21.98C58.4732 20.03 57.6282 18.925 55.7432 18.925C53.8582 18.925 52.5582 20.485 52.5582 22.565C52.5582 24.71 53.5982 26.075 55.6782 26.075C57.2382 26.075 58.4472 24.996 58.4472 24.996L57.9922 24.32C57.9922 24.32 57.1082 25.035 55.8082 25.035C54.6902 25.035 53.9232 24.125 53.9232 22.695ZM57.0952 21.72H53.9752C54.0532 20.745 54.6382 19.939 55.6782 19.939C56.7182 19.939 57.0952 20.745 57.0952 21.72Z" fill="black"/>
<path d="M63.5628 23.865H62.6528V25.789C62.6528 25.789 63.5108 26.075 64.7068 26.075C66.2668 26.075 67.5668 25.347 67.5668 23.852C67.5668 21.629 63.9398 22.162 63.9398 20.771C63.9398 20.108 64.4338 19.9 65.0968 19.9C65.7468 19.9 66.1498 20.056 66.1498 20.056L66.3578 21.07H67.2028L67.2418 19.315C67.2418 19.315 66.0458 18.925 65.0188 18.925C63.6798 18.925 62.6398 19.601 62.6398 20.953C62.6398 23.319 66.2668 22.669 66.2668 24.073C66.2668 24.879 65.5778 25.1 64.7978 25.1C64.0958 25.1 63.7058 24.983 63.7058 24.983L63.5628 23.865Z" fill="black"/>
<path d="M73.3485 21.2H74.1935L74.2585 19.445C74.2585 19.445 73.2185 18.925 72.0485 18.925C69.9685 18.925 68.6685 20.42 68.6685 22.5C68.6685 24.71 69.7735 26.075 71.9185 26.075C73.3485 26.075 74.5185 25.035 74.5185 25.035L74.0635 24.255C74.0635 24.255 73.2835 25.035 72.0485 25.035C70.8135 25.035 70.0335 24.125 70.0335 22.37C70.0335 20.745 70.7485 19.965 71.9835 19.965C72.6335 19.965 73.1535 20.095 73.1535 20.095L73.3485 21.2Z" fill="black"/>
<path d="M77.5705 19.861V15.935L75.1655 16V16.715L76.2705 16.975V24.905L75.1655 25.23V25.945H78.4155V25.23L77.5705 24.905V21.07C77.9995 20.485 78.8315 20.017 79.5205 20.017C80.1835 20.017 80.6255 20.368 80.6255 21.395V24.918L79.7805 25.23V25.945H82.9005V25.23L81.9255 24.905V21.265C81.9255 19.835 81.2755 18.925 79.8455 18.925C78.8835 18.925 77.9735 19.523 77.5705 19.861Z" fill="black"/>
<path d="M87.129 18.925C85.179 18.925 83.814 20.355 83.814 22.565C83.814 24.905 84.984 26.075 86.934 26.075C88.884 26.075 90.184 24.58 90.184 22.37C90.184 20.29 89.079 18.925 87.129 18.925ZM87.064 19.965C88.364 19.965 88.819 21.005 88.819 22.435C88.819 24.125 88.299 25.035 86.999 25.035C85.699 25.035 85.179 24.06 85.179 22.5C85.179 20.81 85.764 19.965 87.064 19.965Z" fill="black"/>
<path d="M94.5431 18.925C92.5931 18.925 91.2281 20.355 91.2281 22.565C91.2281 24.905 92.3981 26.075 94.3481 26.075C96.2981 26.075 97.5981 24.58 97.5981 22.37C97.5981 20.29 96.4931 18.925 94.5431 18.925ZM94.4781 19.965C95.7781 19.965 96.2331 21.005 96.2331 22.435C96.2331 24.125 95.7131 25.035 94.4131 25.035C93.1131 25.035 92.5931 24.06 92.5931 22.5C92.5931 20.81 93.1781 19.965 94.4781 19.965Z" fill="black"/>
<path d="M100.943 24.905V15.935L98.5121 16V16.715L99.6172 16.975V24.905L98.5121 25.23V25.945H102.113V25.23L100.943 24.905Z" fill="black"/>
<path d="M109.328 25.945V25.165L108.223 24.905V17.885L109.328 17.625V16.845L105.753 16.91V17.625L106.858 17.885V24.905L105.753 25.165V25.945H109.328Z" fill="black"/>
<path d="M112.698 19.978L112.581 19.055L110.436 19.12V19.835L111.541 20.095V24.905L110.436 25.23V25.945H113.686V25.23L112.841 24.905V21.07C112.841 21.07 113.621 20.03 114.726 20.03C115.571 20.03 115.896 20.485 115.896 21.395V24.905L115.051 25.23V25.945H118.171V25.23L117.196 24.905V21.265C117.196 19.835 116.546 18.925 115.116 18.925C114.037 18.925 113.01 19.705 112.698 19.978Z" fill="black"/>
<path d="M120.317 19.12L119.147 19.25V20.095H120.317V24.905L119.212 25.23V25.945H122.917V25.23L121.617 24.905V20.095H123.294L123.333 19.12H121.617V18.08C121.617 17.3 121.877 16.78 122.787 16.78C123.242 16.78 123.567 16.845 123.567 16.845L123.762 17.885H124.672V16.26C124.672 16.26 123.957 15.805 122.722 15.805C121.162 15.805 120.317 16.78 120.317 18.34V19.12Z" fill="black"/>
<path d="M127.792 18.925C125.842 18.925 124.477 20.355 124.477 22.565C124.477 24.905 125.647 26.075 127.597 26.075C129.547 26.075 130.847 24.58 130.847 22.37C130.847 20.29 129.742 18.925 127.792 18.925ZM127.727 19.965C129.027 19.965 129.482 21.005 129.482 22.435C129.482 24.125 128.962 25.035 127.662 25.035C126.362 25.035 125.842 24.06 125.842 22.5C125.842 20.81 126.427 19.965 127.727 19.965Z" fill="black"/>
<path d="M134.153 20.004L134.036 19.055L131.891 19.12V19.835L132.996 20.095V24.905L131.891 25.23V25.945H135.596V25.23L134.296 24.905V21.044C134.582 20.667 135.206 20.03 136.181 20.03L136.376 21.005H137.221L137.286 19.12C137.286 19.12 136.766 18.925 136.116 18.925C135.232 18.925 134.478 19.64 134.153 20.004Z" fill="black"/>
<path d="M140.196 19.978L140.079 19.055L137.934 19.12V19.835L139.039 20.095V24.905L137.934 25.23V25.945H141.184V25.23L140.339 24.905V21.07C140.716 20.537 141.509 20.017 142.185 20.017C142.9 20.017 143.264 20.394 143.264 21.395V24.905L142.419 25.23V25.945H145.409V25.23L144.564 24.905V21.07C144.993 20.446 145.76 20.03 146.384 20.03C147.125 20.03 147.489 20.394 147.489 21.395V24.905L146.644 25.23V25.945H149.764V25.23L148.789 24.905V21.265C148.789 19.835 148.204 18.925 146.774 18.925C145.578 18.925 144.525 19.874 144.356 20.043C144.057 19.367 143.485 18.925 142.549 18.925C141.483 18.925 140.495 19.692 140.196 19.978Z" fill="black"/>
<path d="M151.135 19.445L151.2 21.07H152.045L152.227 20.095C152.227 20.095 152.76 19.9 153.54 19.9C154.32 19.9 154.775 20.29 154.775 21.07V22.11H153.735C151.915 22.11 150.745 22.63 150.745 24.125C150.745 25.36 151.46 26.075 152.695 26.075C153.605 26.075 154.385 25.477 154.827 25.035L155.1 25.945L157.115 25.88V25.165L156.075 24.905V20.94C156.075 19.445 155.178 18.925 153.67 18.925C152.565 18.925 151.135 19.445 151.135 19.445ZM153.865 22.955H154.775V23.995C154.775 23.995 153.995 25.035 153.02 25.035C152.435 25.035 152.071 24.645 152.071 24.06C152.071 23.28 152.565 22.955 153.865 22.955Z" fill="black"/>
<path d="M160.371 19.12V17.222L159.071 17.482V19.12L157.771 19.25V20.095H159.071V24.19C159.071 25.646 159.786 26.075 160.566 26.075C161.216 26.075 161.801 25.854 162.386 25.425L162.035 24.736C161.697 24.918 161.333 25.061 161.021 25.061C160.657 25.061 160.371 24.866 160.371 24.268V20.095H162.256V19.12H160.371Z" fill="black"/>
<path d="M164.005 16.91C164.005 17.495 164.33 17.82 164.85 17.82C165.24 17.82 165.695 17.495 165.695 16.91C165.695 16.26 165.37 16 164.85 16C164.395 16 164.005 16.325 164.005 16.91ZM165.565 24.905V19.055L163.16 19.12V19.835L164.265 20.095V24.905L163.16 25.23V25.945H166.54V25.23L165.565 24.905Z" fill="black"/>
<path d="M170.829 18.925C168.879 18.925 167.514 20.355 167.514 22.565C167.514 24.905 168.684 26.075 170.634 26.075C172.584 26.075 173.884 24.58 173.884 22.37C173.884 20.29 172.779 18.925 170.829 18.925ZM170.764 19.965C172.064 19.965 172.519 21.005 172.519 22.435C172.519 24.125 171.999 25.035 170.699 25.035C169.399 25.035 168.879 24.06 168.879 22.5C168.879 20.81 169.464 19.965 170.764 19.965Z" fill="black"/>
<path d="M177.19 19.978L177.073 19.055L174.928 19.12V19.835L176.033 20.095V24.905L174.928 25.23V25.945H178.178V25.23L177.333 24.905V21.07C177.333 21.07 178.113 20.03 179.218 20.03C180.063 20.03 180.388 20.485 180.388 21.395V24.905L179.543 25.23V25.945H182.663V25.23L181.688 24.905V21.265C181.688 19.835 181.038 18.925 179.608 18.925C178.529 18.925 177.502 19.705 177.19 19.978Z" fill="black"/>
<path d="M186.635 25.165V25.945H190.535C193.135 25.945 194.825 24.125 194.825 21.265C194.825 18.405 193.265 16.845 190.73 16.845H189.105L186.635 16.91V17.625L187.74 17.885V24.905L186.635 25.165ZM190.6 24.905H189.105V17.885H190.665C192.29 17.885 193.33 18.925 193.33 21.33C193.33 23.8 192.225 24.905 190.6 24.905Z" fill="black"/>
<path d="M197.431 22.695L201.916 22.669C201.916 22.669 201.981 22.305 201.981 21.98C201.981 20.03 201.136 18.925 199.251 18.925C197.366 18.925 196.066 20.485 196.066 22.565C196.066 24.71 197.106 26.075 199.186 26.075C200.746 26.075 201.955 24.996 201.955 24.996L201.5 24.32C201.5 24.32 200.616 25.035 199.316 25.035C198.198 25.035 197.431 24.125 197.431 22.695ZM200.603 21.72H197.483C197.561 20.745 198.146 19.939 199.186 19.939C200.226 19.939 200.603 20.745 200.603 21.72Z" fill="black"/>
<path d="M204.074 23.865H203.164V25.789C203.164 25.789 204.022 26.075 205.218 26.075C206.778 26.075 208.078 25.347 208.078 23.852C208.078 21.629 204.451 22.162 204.451 20.771C204.451 20.108 204.945 19.9 205.608 19.9C206.258 19.9 206.661 20.056 206.661 20.056L206.869 21.07H207.714L207.753 19.315C207.753 19.315 206.557 18.925 205.53 18.925C204.191 18.925 203.151 19.601 203.151 20.953C203.151 23.319 206.778 22.669 206.778 24.073C206.778 24.879 206.089 25.1 205.309 25.1C204.607 25.1 204.217 24.983 204.217 24.983L204.074 23.865Z" fill="black"/>
<path d="M210.025 16.91C210.025 17.495 210.35 17.82 210.87 17.82C211.26 17.82 211.715 17.495 211.715 16.91C211.715 16.26 211.39 16 210.87 16C210.415 16 210.025 16.325 210.025 16.91ZM211.585 24.905V19.055L209.18 19.12V19.835L210.285 20.095V24.905L209.18 25.23V25.945H212.56V25.23L211.585 24.905Z" fill="black"/>
<path d="M220.295 19.835V19.12L218.02 19.172C218.02 19.172 217.565 18.925 216.72 18.925C215.03 18.925 213.86 19.77 213.86 21.46C213.86 23.02 214.861 23.475 214.861 23.475C214.861 23.475 214.185 24.515 214.185 24.944C214.185 25.62 214.965 25.685 214.965 25.685C214.965 25.685 213.6 26.14 213.6 27.31C213.6 28.74 214.9 29.195 216.72 29.195C218.995 29.195 220.1 28.285 220.1 26.855C220.1 25.62 219.19 24.97 217.5 24.97H215.485L215.55 23.748C215.55 23.748 215.94 23.865 216.525 23.865C218.215 23.865 219.385 23.085 219.385 21.33C219.385 20.485 219.034 20.017 219.034 20.017L220.295 19.835ZM216.655 19.835C217.63 19.835 218.085 20.42 218.085 21.395C218.085 22.5 217.63 22.955 216.59 22.955C215.615 22.955 215.16 22.305 215.16 21.395C215.16 20.355 215.615 19.835 216.655 19.835ZM215.745 25.945H217.175C218.215 25.945 218.865 26.14 218.865 26.985C218.865 27.83 218.215 28.22 216.915 28.22C215.68 28.22 214.9 28.025 214.9 27.115C214.9 26.335 215.745 25.945 215.745 25.945Z" fill="black"/>
<path d="M223.401 19.978L223.284 19.055L221.139 19.12V19.835L222.244 20.095V24.905L221.139 25.23V25.945H224.389V25.23L223.544 24.905V21.07C223.544 21.07 224.324 20.03 225.429 20.03C226.274 20.03 226.599 20.485 226.599 21.395V24.905L225.754 25.23V25.945H228.874V25.23L227.899 24.905V21.265C227.899 19.835 227.249 18.925 225.819 18.925C224.74 18.925 223.713 19.705 223.401 19.978Z" fill="black"/>
<path d="M235.251 17.885H238.046L238.371 18.99H239.216V16.845H235.251L232.781 16.91V17.625L233.886 17.885V24.905L232.781 25.165V25.945H236.551V25.165L235.251 24.905V21.85H238.241V20.81H235.251V17.885Z" fill="black"/>
<path d="M241.04 16.91C241.04 17.495 241.365 17.82 241.885 17.82C242.275 17.82 242.73 17.495 242.73 16.91C242.73 16.26 242.405 16 241.885 16C241.43 16 241.04 16.325 241.04 16.91ZM242.6 24.905V19.055L240.195 19.12V19.835L241.3 20.095V24.905L240.195 25.23V25.945H243.575V25.23L242.6 24.905Z" fill="black"/>
<path d="M245.914 22.695L250.399 22.669C250.399 22.669 250.464 22.305 250.464 21.98C250.464 20.03 249.619 18.925 247.734 18.925C245.849 18.925 244.549 20.485 244.549 22.565C244.549 24.71 245.589 26.075 247.669 26.075C249.229 26.075 250.438 24.996 250.438 24.996L249.983 24.32C249.983 24.32 249.099 25.035 247.799 25.035C246.681 25.035 245.914 24.125 245.914 22.695ZM249.086 21.72H245.966C246.044 20.745 246.629 19.939 247.669 19.939C248.709 19.939 249.086 20.745 249.086 21.72Z" fill="black"/>
<path d="M253.871 24.905V15.935L251.44 16V16.715L252.545 16.975V24.905L251.44 25.23V25.945H255.041V25.23L253.871 24.905Z" fill="black"/>
<path d="M261.665 24.905V15.935L259.26 16V16.715L260.365 16.975V19.133C260.027 19.016 259.611 18.925 259.13 18.925C256.79 18.925 255.685 20.485 255.685 22.695C255.685 24.71 256.53 26.075 258.415 26.075C259.403 26.075 260.079 25.581 260.456 25.204L260.56 25.945L262.77 25.88V25.165L261.665 24.905ZM260.365 20.225V24.06C260.365 24.06 259.78 25.035 258.675 25.035C257.505 25.035 257.05 23.995 257.05 22.565C257.05 21.135 257.492 19.965 259 19.965C259.91 19.965 260.365 20.225 260.365 20.225Z" fill="black"/>
<path d="M5.89 47.292L4.579 46.817L5.073 43.682C6.308 43.682 6.859 43.948 7.239 45.335L8.265 48.945H11.59L11.856 47.292L10.564 46.817L9.823 44.575C9.595 43.91 9.31 43.302 9.044 43.036C10.906 42.39 12.065 40.889 12.065 38.704C12.065 36.576 10.298 35.55 8.17 35.55H6.346L2.128 35.645L1.881 37.222L3.173 37.792L1.748 46.817L0.266 47.292L0 48.945H5.624L5.89 47.292ZM5.377 41.687L6.004 37.792H7.524C8.512 37.792 9.139 38.286 9.139 39.255C9.139 40.851 8.075 41.687 6.46 41.687H5.377Z" fill="black"/>
<path d="M22.2352 41.212C22.2352 39.559 20.8672 38.495 18.6252 38.495C15.5092 38.495 12.9062 41.421 12.9062 45.62C12.9062 47.843 14.4072 49.135 16.6872 49.135C18.7012 49.135 20.6012 48.052 21.1522 47.672L20.3542 46.266C19.7842 46.494 18.5872 46.95 17.4662 46.95C16.3452 46.95 15.6802 46.551 15.6802 44.898C19.8602 44.86 22.2352 43.359 22.2352 41.212ZM19.4802 41.554C19.4802 42.409 18.3212 43.169 15.9082 43.226C16.2882 41.554 17.5042 40.623 18.5302 40.623C19.0622 40.623 19.4802 40.927 19.4802 41.554Z" fill="black"/>
<path d="M24.676 46.95L24.695 45.62H23.042L22.548 48.66C22.548 48.66 24.144 49.135 25.854 49.135C28.552 49.135 30.49 47.919 30.49 45.734C30.49 43.017 26.367 43.036 26.367 41.478C26.367 40.851 26.861 40.471 27.697 40.471C28.4 40.471 28.799 40.642 28.799 40.642L28.894 41.877H30.528L31.041 39.027C31.041 39.027 29.502 38.495 27.811 38.495C25.436 38.495 23.574 39.502 23.574 41.725C23.574 44.537 27.602 44.499 27.602 46.057C27.602 46.779 26.994 47.159 25.987 47.159C25.417 47.159 24.942 47.045 24.676 46.95Z" fill="black"/>
<path d="M41.4207 41.212C41.4207 39.559 40.0527 38.495 37.8107 38.495C34.6947 38.495 32.0917 41.421 32.0917 45.62C32.0917 47.843 33.5927 49.135 35.8727 49.135C37.8867 49.135 39.7867 48.052 40.3377 47.672L39.5397 46.266C38.9697 46.494 37.7727 46.95 36.6517 46.95C35.5307 46.95 34.8657 46.551 34.8657 44.898C39.0457 44.86 41.4207 43.359 41.4207 41.212ZM38.6657 41.554C38.6657 42.409 37.5067 43.169 35.0937 43.226C35.4737 41.554 36.6897 40.623 37.7157 40.623C38.2477 40.623 38.6657 40.927 38.6657 41.554Z" fill="black"/>
<path d="M52.4685 47.254L51.0055 46.969L52.3355 38.685H50.6065L50.0555 39.198C50.0555 39.198 49.1435 38.495 47.8325 38.495C44.8875 38.495 42.0185 40.946 42.0185 45.696C42.0185 47.615 43.0635 49.135 44.7355 49.135C47.1295 49.135 48.7065 46.323 48.8015 46.133L48.1365 48.945L52.2215 48.755L52.4685 47.254ZM49.2575 40.775L48.9725 42.352C48.9725 42.352 47.6995 46.912 45.7995 46.912C45.2295 46.912 44.8685 46.342 44.8685 45.335C44.8685 42.58 46.1225 40.547 47.8705 40.547C48.7065 40.547 49.2575 40.775 49.2575 40.775Z" fill="black"/>
<path d="M60.016 40.965V42.447H61.916L62.657 38.685C62.657 38.685 62.125 38.495 61.593 38.495C59.313 38.495 58.002 41.345 57.926 41.535L58.515 38.685L54.297 38.837L54.069 40.205L55.532 40.585L54.221 48.945H56.881L57.432 45.506C57.7549 43.511 59.104 41.212 60.016 40.965Z" fill="black"/>
<path d="M70.129 47.577L69.312 46.076C68.894 46.266 67.716 46.855 66.614 46.855C65.645 46.855 65.056 46.19 65.056 45.088C65.056 43.036 65.911 40.756 67.83 40.756C68.457 40.756 68.837 40.927 68.837 40.927L68.932 42.257H70.604L71.079 39.255C70.699 39.084 69.559 38.495 68.134 38.495C64.657 38.495 62.244 41.25 62.244 45.468C62.244 47.843 63.612 49.135 65.797 49.135C67.887 49.135 69.711 47.862 70.129 47.577Z" fill="black"/>
<path d="M76.9187 34.22L72.6247 34.372L72.3777 35.892L73.8407 36.272L71.8077 48.945H74.5627L75.1897 45.487C75.3987 44.347 76.5577 40.832 78.2297 40.832C78.7807 40.832 78.9517 41.231 78.9517 41.763C78.9517 41.972 78.9327 42.2 78.8947 42.447L77.8307 48.945L82.0867 48.755L82.3337 47.235L80.9087 46.95L81.7067 41.915C81.7637 41.516 81.8017 41.136 81.8017 40.794C81.8017 39.407 81.1937 38.495 79.6737 38.495C77.1847 38.495 75.6647 41.535 75.5887 41.725L76.9187 34.22Z" fill="black"/>
<path d="M100.247 46.893L98.0624 35.55L95.1364 35.683L89.3034 46.836L88.0304 47.273L87.7644 48.945H93.1414L93.4074 47.292L92.0964 46.874L92.7804 45.43H96.9794L97.2074 46.817L95.7064 47.292L95.4404 48.945H101.064L101.349 47.273L100.247 46.893ZM95.9534 38.818L96.6564 43.397H93.7304L95.9534 38.818Z" fill="black"/>
<path d="M108.796 40.965V42.447H110.696L111.437 38.685C111.437 38.685 110.905 38.495 110.373 38.495C108.093 38.495 106.782 41.345 106.706 41.535L107.295 38.685L103.077 38.837L102.849 40.205L104.312 40.585L103.001 48.945H105.661L106.212 45.506C106.535 43.511 107.884 41.212 108.796 40.965Z" fill="black"/>
<path d="M114.254 49.135C115.375 49.135 116.99 48.318 117.503 47.995L117.085 46.627C117.085 46.627 116.097 47.007 115.546 47.007C114.995 47.007 114.748 46.684 114.748 46.076C114.748 45.81 114.767 45.563 114.843 45.145L115.508 41.022H118.054L118.377 38.97H115.831L116.344 35.835L113.57 36.367L113.152 38.97L111.404 39.217L111.119 41.022H112.829L112.126 45.506C112.05 45.924 112.031 46.304 112.031 46.646C112.031 48.28 112.715 49.135 114.254 49.135Z" fill="black"/>
<path d="M128.795 45.81L127.864 38.647L125.66 38.951L122.981 45.81L122.202 38.685L118.592 38.837L118.345 40.357L119.561 40.604L120.872 48.945H123.684L125.983 43.245L126.781 48.945H129.612L133.45 40.547L134.248 40.3L134.514 38.685L129.916 38.837L129.669 40.357L130.885 40.642L128.795 45.81Z" fill="black"/>
<path d="M138.433 49.135C141.872 49.135 144.209 46.532 144.209 42.504C144.209 40.034 142.727 38.495 140.105 38.495C136.666 38.495 134.367 41.117 134.367 45.145C134.367 47.691 135.868 49.135 138.433 49.135ZM141.359 42.39C141.359 44.252 140.808 46.855 138.756 46.855C137.692 46.855 137.217 46.19 137.217 44.993C137.217 42.694 138.186 40.775 139.782 40.775C140.732 40.775 141.321 41.307 141.359 42.39Z" fill="black"/>
<path d="M151.602 40.965V42.447H153.502L154.243 38.685C154.243 38.685 153.711 38.495 153.179 38.495C150.899 38.495 149.588 41.345 149.512 41.535L150.101 38.685L145.883 38.837L145.655 40.205L147.118 40.585L145.807 48.945H148.467L149.018 45.506C149.341 43.511 150.69 41.212 151.602 40.965Z" fill="black"/>
<path d="M159.207 34.22L154.951 34.372L154.704 35.892L156.167 36.272L154.134 48.945H156.851L157.592 44.309H158.713L160.385 48.945H163.672L163.881 47.425L162.513 46.988L160.936 43.131L163.178 40.528L164.413 40.3L164.66 38.685L160.138 38.78L159.91 40.3L160.67 40.566L159.112 42.504H157.877L159.207 34.22Z" fill="black"/>
<path d="M175.3 37.83H178.492L178.739 39.217H180.259L180.848 35.55H175.661L171.386 35.645L171.139 37.222L172.45 37.773L171.025 46.836L169.543 47.292L169.277 48.945H178.967L179.594 45.126H177.884L177.2 46.665H173.875L174.445 43.055H178.207L178.53 40.965H174.787L175.3 37.83Z" fill="black"/>
<path d="M191.836 38.685L188.739 38.78L186.307 42.048L184.806 38.685L181.652 38.837L181.405 40.357L182.754 40.642L184.369 43.72L181.785 46.988L180.512 47.425L180.265 48.945H183.191L185.604 45.544L187.2 49.04L190.449 48.85L190.696 47.349L189.252 47.083L187.599 43.796L190.221 40.604L191.57 40.3L191.836 38.685Z" fill="black"/>
<path d="M197.153 34.22L192.859 34.372L192.612 35.892L194.075 36.272L192.042 48.945H194.797L195.424 45.487C195.633 44.347 196.792 40.832 198.464 40.832C199.015 40.832 199.186 41.231 199.186 41.763C199.186 41.972 199.167 42.2 199.129 42.447L198.065 48.945L202.321 48.755L202.568 47.235L201.143 46.95L201.941 41.915C201.998 41.516 202.036 41.136 202.036 40.794C202.036 39.407 201.428 38.495 199.908 38.495C197.419 38.495 195.899 41.535 195.823 41.725L197.153 34.22Z" fill="black"/>
<path d="M206.096 35.93C206.096 36.842 206.647 37.298 207.445 37.298C208.509 37.298 209.212 36.329 209.212 35.17C209.212 34.296 208.661 33.84 207.901 33.84C206.799 33.84 206.096 34.809 206.096 35.93ZM208.68 38.685L204.405 38.837L204.139 40.357L205.602 40.737L204.31 48.945L208.566 48.755L208.813 47.235L207.369 46.95L208.68 38.685Z" fill="black"/>
<path d="M212.385 36.272L210.447 48.565C210.447 48.565 212.347 49.135 214.399 49.135C217.591 49.135 220.574 46.551 220.574 42.01C220.574 40.11 219.681 38.495 217.876 38.495C215.406 38.495 214.019 41.383 213.924 41.573L214.57 38.97L215.406 34.22L211.245 34.372L210.998 35.892L212.385 36.272ZM213.468 46.836L213.772 45.278C213.772 45.278 214.817 40.775 216.717 40.775C217.439 40.775 217.762 41.592 217.762 42.447C217.762 45.031 216.318 47.045 214.76 47.045C214.095 47.045 213.468 46.836 213.468 46.836Z" fill="black"/>
<path d="M224.075 35.93C224.075 36.842 224.626 37.298 225.424 37.298C226.488 37.298 227.191 36.329 227.191 35.17C227.191 34.296 226.64 33.84 225.88 33.84C224.778 33.84 224.075 34.809 224.075 35.93ZM226.659 38.685L222.384 38.837L222.118 40.357L223.581 40.737L222.289 48.945L226.545 48.755L226.792 47.235L225.348 46.95L226.659 38.685Z" fill="black"/>
<path d="M231.39 49.135C232.511 49.135 234.126 48.318 234.639 47.995L234.221 46.627C234.221 46.627 233.233 47.007 232.682 47.007C232.131 47.007 231.884 46.684 231.884 46.076C231.884 45.81 231.903 45.563 231.979 45.145L232.644 41.022H235.19L235.513 38.97H232.967L233.48 35.835L230.706 36.367L230.288 38.97L228.54 39.217L228.255 41.022H229.965L229.262 45.506C229.186 45.924 229.167 46.304 229.167 46.646C229.167 48.28 229.851 49.135 231.39 49.135Z" fill="black"/>
<path d="M238.103 35.93C238.103 36.842 238.654 37.298 239.452 37.298C240.516 37.298 241.219 36.329 241.219 35.17C241.219 34.296 240.668 33.84 239.908 33.84C238.806 33.84 238.103 34.809 238.103 35.93ZM240.687 38.685L236.412 38.837L236.146 40.357L237.609 40.737L236.317 48.945L240.573 48.755L240.82 47.235L239.376 46.95L240.687 38.685Z" fill="black"/>
<path d="M246.291 49.135C249.73 49.135 252.067 46.532 252.067 42.504C252.067 40.034 250.585 38.495 247.963 38.495C244.524 38.495 242.225 41.117 242.225 45.145C242.225 47.691 243.726 49.135 246.291 49.135ZM249.217 42.39C249.217 44.252 248.666 46.855 246.614 46.855C245.55 46.855 245.075 46.19 245.075 44.993C245.075 42.694 246.044 40.775 247.64 40.775C248.59 40.775 249.179 41.307 249.217 42.39Z" fill="black"/>
<path d="M258.016 38.685L253.741 38.837L253.494 40.357L254.957 40.737L253.646 48.945H256.382L256.933 45.696C257.047 44.708 258.415 40.87 260.087 40.87C260.619 40.87 260.809 41.269 260.809 41.801C260.809 42.01 260.771 42.238 260.733 42.485L259.688 48.945L263.982 48.755L264.229 47.235L262.747 46.95L263.621 41.915C263.678 41.535 263.716 41.155 263.716 40.813C263.716 39.445 263.032 38.495 261.531 38.495C259.042 38.495 257.465 41.535 257.37 41.725L258.016 38.685Z" fill="black"/>
<path d="M279.688 48.945L280.03 46.627H274.501L276.097 45.373C278.871 43.188 280.961 41.079 280.961 38.4C280.961 36.025 279.004 35.322 276.382 35.322C274.539 35.322 272.316 36.044 272.316 36.044L271.917 39.597H273.817L274.235 37.906C274.235 37.906 275.166 37.64 275.964 37.64C277.142 37.64 277.807 38.153 277.807 39.16C277.788 40.794 276.097 42.466 272.677 45.012L270.511 46.627L270.207 48.945H279.688Z" fill="black"/>
<path d="M288.53 35.322C283.723 35.322 282.203 40.908 282.203 44.955C282.203 47.748 283.514 49.192 286.307 49.192C291.209 49.192 292.52 43.416 292.52 39.559C292.52 37.051 291.323 35.322 288.53 35.322ZM288.055 37.697C289.138 37.697 289.575 38.248 289.575 39.635C289.575 41.953 288.758 46.817 286.725 46.817C285.585 46.817 285.129 46.266 285.129 44.841C285.129 42.523 285.908 37.697 288.055 37.697Z" fill="black"/>
<path d="M302.287 48.945L302.629 46.627H297.1L298.696 45.373C301.47 43.188 303.56 41.079 303.56 38.4C303.56 36.025 301.603 35.322 298.981 35.322C297.138 35.322 294.915 36.044 294.915 36.044L294.516 39.597H296.416L296.834 37.906C296.834 37.906 297.765 37.64 298.563 37.64C299.741 37.64 300.406 38.153 300.406 39.16C300.387 40.794 298.696 42.466 295.276 45.012L293.11 46.627L292.806 48.945H302.287Z" fill="black"/>
<path d="M311.13 35.322C306.323 35.322 304.803 40.908 304.803 44.955C304.803 47.748 306.114 49.192 308.907 49.192C313.809 49.192 315.12 43.416 315.12 39.559C315.12 37.051 313.923 35.322 311.13 35.322ZM310.655 37.697C311.738 37.697 312.175 38.248 312.175 39.635C312.175 41.953 311.358 46.817 309.325 46.817C308.185 46.817 307.729 46.266 307.729 44.841C307.729 42.523 308.508 37.697 310.655 37.697Z" fill="black"/>
</svg>
