<svg width="589" height="285" viewBox="0 0 589 285" fill="none" xmlns="http://www.w3.org/2000/svg">
<circle cx="379.691" cy="172.191" r="100.691" stroke="#FF4040" stroke-width="23"/>
<path d="M12 185.099L394.811 185.099L576.128 19.9022" stroke="#FF4040" stroke-width="24" stroke-linecap="round"/>
<path d="M220.018 111.646L219.769 110.907L218.454 111.076L216.207 104.426L217.808 103.885L218.532 105.012L219.333 104.742L218.584 102.525L211.871 104.793L212.62 107.009L213.421 106.739L213.313 105.403L214.914 104.862L217.161 111.513L216.012 112.176L216.262 112.915L220.018 111.646ZM220.468 104.633L221.05 106.151L221.85 105.881L221.711 104.899C221.711 104.899 222.153 104.544 222.892 104.294C223.631 104.044 224.187 104.268 224.437 105.007L224.77 105.992L223.784 106.325C222.06 106.908 221.118 107.775 221.596 109.191C221.992 110.361 222.898 110.81 224.068 110.415C224.93 110.123 225.478 109.307 225.755 108.747L226.305 109.522L228.193 108.815L227.964 108.138L226.896 108.224L225.627 104.468C225.148 103.052 224.132 102.846 222.703 103.329C221.656 103.682 220.468 104.633 220.468 104.633ZM224.178 107.084L225.04 106.793L225.373 107.778C225.373 107.778 224.967 109.013 224.043 109.325C223.489 109.513 223.019 109.26 222.832 108.705C222.582 107.966 222.946 107.5 224.178 107.084ZM229.314 102.207L228.908 101.37L226.897 102.118L227.126 102.795L228.256 102.688L229.795 107.245L228.852 107.906L229.081 108.584L232.16 107.544L231.931 106.866L231.027 106.829L229.799 103.195C229.986 102.57 230.571 101.823 231.211 101.607C231.889 101.378 232.354 101.619 232.675 102.567L233.798 105.893L233.102 106.471L233.33 107.148L236.163 106.191L235.934 105.514L235.03 105.476L233.802 101.843C234.009 101.115 234.602 100.475 235.194 100.275C235.896 100.038 236.357 100.267 236.677 101.215L237.801 104.54L237.104 105.119L237.333 105.796L240.289 104.797L240.06 104.12L239.032 104.124L237.867 100.676C237.41 99.3209 236.564 98.646 235.209 99.1037C234.076 99.4865 233.382 100.723 233.276 100.937C232.777 100.392 232.093 100.156 231.207 100.456C230.197 100.797 229.506 101.84 229.314 102.207ZM239.508 98.2005L240.089 99.7192L240.89 99.4488L240.75 98.4668C240.75 98.4668 241.193 98.1115 241.932 97.8618C242.671 97.6122 243.227 97.8361 243.476 98.575L243.809 99.5603L242.824 99.8932C241.099 100.476 240.157 101.343 240.636 102.759C241.031 103.929 241.937 104.378 243.108 103.982C243.97 103.691 244.517 102.875 244.794 102.315L245.344 103.09L247.233 102.383L247.004 101.706L245.935 101.792L244.666 98.0358C244.188 96.6194 243.171 96.4139 241.743 96.8965C240.696 97.2502 239.508 98.2005 239.508 98.2005ZM243.217 100.652L244.08 100.361L244.412 101.346C244.412 101.346 244.006 102.581 243.083 102.893C242.528 103.08 242.059 102.827 241.871 102.273C241.622 101.534 241.986 101.068 243.217 100.652ZM250.279 100.599L250.528 101.338L253.915 100.194L253.666 99.4551L252.429 99.6122L252.447 98.0829L255.649 97.001L256.579 98.21L255.513 98.831L255.763 99.57L259.334 98.3633L259.085 97.6244L257.983 97.7357L252.665 91.0111L251.454 91.4887L251.209 100.024L250.279 100.599ZM252.447 96.9852L252.488 92.8412L254.984 96.1281L252.447 96.9852ZM260.125 91.8253L259.711 90.9636L257.699 91.7117L257.928 92.3891L259.058 92.2818L260.598 96.8388L259.655 97.5003L259.884 98.1777L263.394 96.9919L263.165 96.3145L261.829 96.4227L260.594 92.7648C260.744 92.3161 261.131 91.5129 262.055 91.2008L262.552 92.0621L263.352 91.7917L262.81 89.985C262.81 89.985 262.255 89.9667 261.64 90.1747C260.802 90.4577 260.317 91.3764 260.125 91.8253ZM265.641 89.0287L265.034 87.2305L263.885 87.8929L264.41 89.4448L263.22 89.984L263.49 90.7845L264.722 90.3685L266.032 94.2481C266.498 95.6275 267.313 95.8051 268.052 95.5554C268.668 95.3474 269.151 94.9508 269.568 94.3571L269.015 93.8167C268.753 94.0973 268.454 94.3493 268.159 94.4491C267.814 94.5656 267.48 94.4724 267.289 93.9059L265.953 89.9524L267.739 89.3491L267.427 88.4254L265.641 89.0287ZM279.818 87.5325L278.424 83.4066L279.388 82.8066L279.138 82.0676L275.649 83.315L275.878 83.9924L277.131 83.8435L278.525 87.9694C279.17 89.8784 278.906 90.7222 277.367 91.2423C275.95 91.7208 275.147 91.3746 274.523 89.5272L273.067 85.2165L274.154 84.5749L273.904 83.836L270.415 85.0834L270.643 85.7608L271.774 85.6534L273.23 89.9641C274 92.2426 275.257 93.1213 277.659 92.31C280.245 91.4362 280.588 89.811 279.818 87.5325ZM283.27 83.9788L282.864 83.1418L280.852 83.8899L281.081 84.5673L282.211 84.46L283.751 89.017L282.808 89.6785L283.037 90.3559L286.116 89.3157L285.887 88.6383L284.982 88.6009L283.755 84.9676C283.755 84.9676 284.161 83.7327 285.208 83.379C286.008 83.1085 286.462 83.4356 286.753 84.2977L287.877 87.6231L287.18 88.2014L287.409 88.8788L290.365 87.8802L290.136 87.2029L289.108 87.207L287.943 83.7585C287.485 82.4037 286.578 81.7496 285.224 82.2073C284.201 82.5526 283.478 83.6203 283.27 83.9788ZM289.136 78.7586C289.323 79.3129 289.735 79.5168 290.228 79.3503C290.597 79.2255 290.925 78.772 290.737 78.2177C290.529 77.6019 290.138 77.4596 289.645 77.6261C289.214 77.7717 288.949 78.2044 289.136 78.7586ZM293.173 85.8338L291.301 80.2915L289.043 81.1228L289.272 81.8002L290.402 81.6929L291.941 86.2499L290.999 86.9114L291.227 87.5888L294.43 86.507L294.201 85.8296L293.173 85.8338ZM295.737 79.616L295.488 78.877L292.737 79.8748L292.966 80.5522L293.644 80.5289L297.557 85.4503L298.912 84.9926L299.092 78.6199L299.728 78.2679L299.478 77.5289L296.74 78.5225L296.969 79.1999L297.881 79.0975L297.922 84.0922L294.917 80.0304L295.737 79.616ZM302.486 80.355L306.726 78.8949C306.726 78.8949 306.671 78.5292 306.567 78.2213C305.943 76.3739 304.789 75.5975 303.003 76.2008C301.217 76.8041 300.485 78.6981 301.151 80.6687C301.837 82.7009 303.259 83.6612 305.23 82.9955C306.708 82.4962 307.508 81.087 307.508 81.087L306.861 80.5922C306.861 80.5922 306.252 81.5525 305.02 81.9686C303.961 82.3264 302.943 81.7098 302.486 80.355ZM305.179 78.4161L302.223 79.4146C301.985 78.466 302.281 77.5151 303.266 77.1823C304.251 76.8494 304.867 77.4923 305.179 78.4161ZM309.125 75.2715L308.711 74.4098L306.699 75.158L306.928 75.8353L308.058 75.728L309.598 80.285L308.655 80.9465L308.884 81.6239L312.394 80.4381L312.165 79.7607L310.829 79.8689L309.594 76.211C309.744 75.7623 310.131 74.9591 311.055 74.647L311.552 75.5083L312.352 75.2379L311.811 73.4312C311.811 73.4312 311.255 73.4129 310.64 73.6209C309.802 73.9039 309.317 74.8226 309.125 75.2715ZM314.879 77.403L314.017 77.6943L314.633 79.5171C314.633 79.5171 315.537 79.5134 316.67 79.1306C318.148 78.6313 319.147 77.5255 318.668 76.1092C317.957 74.0031 314.691 75.6689 314.246 74.3511C314.034 73.723 314.435 73.3678 315.063 73.1556C315.679 72.9476 316.111 72.9664 316.111 72.9664L316.633 73.8605L317.433 73.59L316.908 71.9148C316.908 71.9148 315.65 71.9282 314.677 72.2569C313.409 72.6854 312.64 73.6587 313.073 74.9396C313.83 77.1811 317.058 75.4045 317.507 76.7346C317.765 77.4982 317.183 77.9281 316.444 78.1778C315.779 78.4025 315.372 78.4164 315.372 78.4164L314.879 77.403ZM320.415 70.5245L319.807 68.7264L318.659 69.3888L319.183 70.9406L317.993 71.4798L318.263 72.2804L319.495 71.8643L320.806 75.7439C321.272 77.1233 322.086 77.3009 322.825 77.0512C323.441 76.8432 323.925 76.4466 324.342 75.8529L323.788 75.3125C323.526 75.5931 323.227 75.8451 322.932 75.945C322.587 76.0615 322.254 75.9683 322.062 75.4017L320.727 71.4482L322.512 70.8449L322.2 69.9212L320.415 70.5245ZM323.15 67.2677C323.337 67.8219 323.749 68.0258 324.242 67.8594C324.611 67.7346 324.938 67.281 324.751 66.7268C324.543 66.111 324.152 65.9687 323.659 66.1351C323.228 66.2807 322.963 66.7135 323.15 67.2677ZM327.187 74.3428L325.314 68.8006L323.057 69.6319L323.286 70.3093L324.416 70.2019L325.955 74.7589L325.012 75.4205L325.241 76.0979L328.443 75.0161L328.215 74.3387L327.187 74.3428ZM329.399 67.4892L328.792 65.6911L327.643 66.3535L328.167 67.9053L326.977 68.4446L327.248 69.2451L328.48 68.829L329.79 72.7086C330.256 74.088 331.071 74.2656 331.81 74.016C332.426 73.8079 332.909 73.4113 333.326 72.8177L332.773 72.2772C332.511 72.5579 332.212 72.8098 331.916 72.9097C331.572 73.0262 331.238 72.933 331.047 72.3664L329.711 68.413L331.497 67.8096L331.185 66.8859L329.399 67.4892ZM334.795 66.4211L334.545 65.6821L331.672 66.7215L331.901 67.3988L332.702 67.3339L336.808 72.2176C336.622 74.0231 336.382 74.5297 335.298 74.8959C335.162 74.9417 335.039 74.9833 334.887 75.0209L335.093 75.9944C335.093 75.9944 335.594 75.8937 335.902 75.7896C337.934 75.1031 337.888 72.8546 337.962 70.9221L338.063 65.4541L338.822 65.0605L338.573 64.3215L335.675 65.3692L335.903 66.0466L336.828 65.9401L336.909 70.6468L333.974 66.8355L334.795 66.4211ZM227.394 125.356L226.504 122.72L227.345 122.162L227.095 121.423L223.914 122.566L224.142 123.244L225.272 123.136L225.955 125.156C225.955 125.156 225.197 125.755 224.335 126.047C222.733 126.587 221.271 125.915 220.522 123.698C219.753 121.42 220.26 119.876 221.923 119.314C222.847 119.002 223.669 118.999 223.669 118.999L224.496 120.229L225.297 119.958L224.672 117.905C224.672 117.905 223.047 117.768 221.692 118.226C219.168 119.079 218.17 121.406 219.127 124.238C220.063 127.009 222.04 127.988 224.504 127.156C226.339 126.536 227.394 125.356 227.394 125.356ZM229.753 118.974L229.338 118.113L227.327 118.861L227.556 119.538L228.686 119.431L230.226 123.988L229.283 124.649L229.512 125.327L233.022 124.141L232.793 123.464L231.457 123.572L230.221 119.914C230.372 119.465 230.759 118.662 231.683 118.35L232.18 119.211L232.98 118.941L232.438 117.134C232.438 117.134 231.883 117.116 231.267 117.324C230.43 117.607 229.944 118.525 229.753 118.974ZM233.587 117.089L234.169 118.608L234.97 118.337L234.83 117.355C234.83 117.355 235.272 117 236.011 116.75C236.75 116.501 237.306 116.724 237.556 117.463L237.889 118.449L236.903 118.782C235.179 119.364 234.237 120.231 234.716 121.648C235.111 122.818 236.017 123.266 237.187 122.871C238.049 122.58 238.597 121.763 238.874 121.203L239.424 121.978L241.312 121.272L241.083 120.594L240.015 120.681L238.746 116.924C238.267 115.508 237.251 115.302 235.823 115.785C234.776 116.139 233.587 117.089 233.587 117.089ZM237.297 119.541L238.159 119.249L238.492 120.235C238.492 120.235 238.086 121.47 237.162 121.782C236.608 121.969 236.138 121.716 235.951 121.162C235.701 120.423 236.065 119.957 237.297 119.541ZM247.595 118.12L244.724 109.622L242.466 110.453L242.695 111.131L243.825 111.023L244.516 113.068C244.158 113.065 243.735 113.112 243.279 113.266C241.062 114.015 240.515 115.846 241.222 117.94C241.867 119.849 243.104 120.872 244.89 120.269C245.826 119.952 246.308 119.268 246.545 118.79L246.881 119.459L248.954 118.69L248.725 118.013L247.595 118.12ZM244.865 114.102L246.093 117.736C246.093 117.736 245.85 118.846 244.804 119.2C243.695 119.575 242.931 118.735 242.474 117.38C242.016 116.025 242.06 114.775 243.489 114.293C244.351 114.002 244.865 114.102 244.865 114.102ZM255.603 115.414L253.731 109.872L251.473 110.704L251.702 111.381L252.832 111.274L254.064 114.919C254.064 114.919 253.653 116.142 252.606 116.495C251.806 116.766 251.357 116.451 251.065 115.589L249.605 111.266L247.347 112.097L247.576 112.775L248.706 112.667L249.875 116.128C250.333 117.483 251.236 118.125 252.591 117.667C253.601 117.326 254.328 116.271 254.536 115.912L254.951 116.733L256.962 115.985L256.733 115.307L255.603 115.414ZM256.139 109.47L256.721 110.989L257.521 110.719L257.381 109.737C257.381 109.737 257.824 109.381 258.563 109.132C259.302 108.882 259.858 109.106 260.107 109.845L260.44 110.83L259.455 111.163C257.731 111.745 256.789 112.613 257.267 114.029C257.663 115.199 258.569 115.648 259.739 115.252C260.601 114.961 261.149 114.145 261.426 113.585L261.976 114.359L263.864 113.653L263.635 112.975L262.567 113.062L261.297 109.306C260.819 107.889 259.803 107.684 258.374 108.166C257.327 108.52 256.139 109.47 256.139 109.47ZM259.849 111.922L260.711 111.631L261.044 112.616C261.044 112.616 260.638 113.851 259.714 114.163C259.16 114.35 258.69 114.097 258.503 113.543C258.253 112.804 258.617 112.338 259.849 111.922ZM264.785 106.206L264.177 104.408L263.029 105.071L263.553 106.623L262.363 107.162L262.633 107.962L263.865 107.546L265.176 111.426C265.642 112.805 266.456 112.983 267.195 112.733C267.811 112.525 268.295 112.129 268.712 111.535L268.159 110.994C267.897 111.275 267.597 111.527 267.302 111.627C266.957 111.743 266.624 111.65 266.432 111.084L265.097 107.13L266.883 106.527L266.57 105.603L264.785 106.206ZM269.864 108.264L274.105 106.804C274.105 106.804 274.05 106.438 273.946 106.13C273.322 104.283 272.168 103.506 270.382 104.11C268.596 104.713 267.864 106.607 268.529 108.578C269.216 110.61 270.638 111.57 272.609 110.904C274.087 110.405 274.887 108.996 274.887 108.996L274.239 108.501C274.239 108.501 273.631 109.461 272.399 109.878C271.34 110.235 270.322 109.619 269.864 108.264ZM272.557 106.325L269.601 107.324C269.363 106.375 269.66 105.424 270.645 105.091C271.63 104.758 272.245 105.401 272.557 106.325ZM279.371 106.287L278.509 106.578L279.125 108.401C279.125 108.401 280.029 108.397 281.162 108.015C282.64 107.515 283.639 106.41 283.16 104.993C282.449 102.887 279.183 104.553 278.738 103.235C278.526 102.607 278.927 102.252 279.555 102.04C280.171 101.832 280.603 101.85 280.603 101.85L281.125 102.745L281.925 102.474L281.4 100.799C281.4 100.799 280.143 100.812 279.17 101.141C277.901 101.57 277.132 102.543 277.565 103.824C278.322 106.065 281.55 104.289 282 105.619C282.258 106.382 281.675 106.812 280.937 107.062C280.271 107.287 279.865 107.301 279.865 107.301L279.371 106.287ZM287.789 100.63L288.59 100.36L288.09 98.6763C288.09 98.6763 286.938 98.5165 285.829 98.891C283.859 99.5567 283.106 101.389 283.772 103.36C284.479 105.454 285.963 106.393 287.995 105.707C289.35 105.249 290.125 103.889 290.125 103.889L289.444 103.296C289.444 103.296 288.955 104.284 287.785 104.68C286.615 105.075 285.585 104.462 285.023 102.8C284.503 101.26 284.931 100.292 286.101 99.8971C286.717 99.6891 287.251 99.6458 287.251 99.6458L287.789 100.63ZM291.361 98.0104L290.104 94.2909L287.846 95.1223L288.075 95.7996L289.205 95.6923L291.743 103.205L290.8 103.867L291.029 104.544L294.108 103.504L293.88 102.827L292.975 102.789L291.748 99.1558C291.967 98.4643 292.605 97.7546 293.258 97.5341C293.886 97.3219 294.417 97.5129 294.746 98.4859L295.873 101.824L295.173 102.39L295.402 103.067L298.357 102.068L298.129 101.391L297.101 101.395L295.936 97.9467C295.478 96.5919 294.571 95.9378 293.216 96.3955C292.305 96.7034 291.634 97.5612 291.361 98.0104ZM300.117 94.0643C298.269 94.6884 297.434 96.4801 298.141 98.5738C298.89 100.791 300.373 101.525 302.22 100.901C304.068 100.277 304.821 98.4441 304.114 96.3503C303.448 94.3797 301.964 93.4402 300.117 94.0643ZM300.388 95.0704C301.62 94.6543 302.384 95.494 302.841 96.8488C303.382 98.4499 303.181 99.4784 301.949 99.8945C300.718 100.311 299.913 99.5533 299.414 98.0754C298.873 96.4743 299.156 95.4865 300.388 95.0704ZM307.141 91.6914C305.293 92.3155 304.458 94.1071 305.165 96.2009C305.914 98.4178 307.397 99.1518 309.244 98.5277C311.092 97.9035 311.845 96.0711 311.138 93.9774C310.472 92.0068 308.988 91.0672 307.141 91.6914ZM307.412 92.6975C308.644 92.2814 309.408 93.1211 309.865 94.4758C310.406 96.0769 310.205 97.1055 308.973 97.5216C307.742 97.9377 306.937 97.1804 306.438 95.7024C305.897 94.1013 306.18 93.1135 307.412 92.6975ZM315.118 95.3084L312.247 86.8102L309.965 87.6499L310.194 88.3273L311.324 88.2199L313.862 95.7328L312.919 96.3944L313.148 97.0718L316.559 95.9192L316.331 95.2418L315.118 95.3084ZM323.395 93.61L323.145 92.871L322.015 92.9784L319.768 86.3277L320.732 85.7277L320.482 84.9887L317.116 86.1945L317.345 86.8719L318.475 86.7645L320.722 93.4153L319.758 94.0153L320.008 94.7542L323.395 93.61ZM324.678 86.8783L324.272 86.0413L322.26 86.7894L322.489 87.4668L323.619 87.3594L325.159 91.9164L324.216 92.578L324.445 93.2554L327.524 92.2152L327.295 91.5378L326.39 91.5003L325.163 87.8671C325.163 87.8671 325.569 86.6321 326.616 86.2784C327.416 86.008 327.87 86.335 328.161 87.1972L329.285 90.5225L328.588 91.1009L328.817 91.7783L331.773 90.7797L331.544 90.1023L330.516 90.1065L329.351 86.6579C328.893 85.3032 327.986 84.6491 326.632 85.1067C325.609 85.4521 324.886 86.5198 324.678 86.8783ZM331.621 83.627L330.554 84.1246L330.825 84.9252L331.933 84.5507L333.472 89.1077L332.53 89.7693L332.758 90.4467L336.269 89.2608L336.04 88.5834L334.704 88.6916L333.165 84.1346L334.753 83.5979L334.478 82.6617L332.853 83.2109L332.52 82.2256C332.27 81.4867 332.35 80.9108 333.212 80.6196C333.643 80.4739 333.972 80.4315 333.972 80.4315L334.489 81.3544L335.352 81.0631L334.831 79.5236C334.831 79.5236 334.008 79.3214 332.838 79.7166C331.36 80.2159 330.872 81.4101 331.371 82.888L331.621 83.627ZM338.641 81.0496C336.793 81.6738 335.958 83.4654 336.665 85.5592C337.414 87.7761 338.897 88.5101 340.744 87.8859C342.592 87.2618 343.345 85.4294 342.638 83.3356C341.972 81.3651 340.488 80.4255 338.641 81.0496ZM338.912 82.0557C340.144 81.6397 340.908 82.4793 341.365 83.8341C341.906 85.4352 341.705 86.4638 340.473 86.8799C339.242 87.2959 338.437 86.5387 337.938 85.0607C337.397 83.4596 337.68 82.4718 338.912 82.0557ZM345.013 80.036L344.598 79.1743L342.587 79.9224L342.815 80.5998L343.946 80.4925L345.485 85.0495L344.542 85.711L344.771 86.3884L348.281 85.2026L348.052 84.5252L346.717 84.6334L345.481 80.9755C345.631 80.5268 346.019 79.7236 346.942 79.4115L347.439 80.2728L348.24 80.0024L347.698 78.1957C347.698 78.1957 347.143 78.1774 346.527 78.3854C345.689 78.6684 345.204 79.5871 345.013 80.036ZM350.729 78.0772L350.323 77.2402L348.312 77.9883L348.541 78.6657L349.671 78.5584L351.21 83.1153L350.267 83.7769L350.496 84.4543L353.575 83.4141L353.346 82.7367L352.442 82.6993L351.214 79.066C351.401 78.4404 351.986 77.6939 352.626 77.4776C353.304 77.2487 353.769 77.4894 354.09 78.4377L355.213 81.7631L354.516 82.3414L354.745 83.0188L357.578 82.0618L357.349 81.3845L356.445 81.347L355.217 77.7137C355.424 76.9853 356.017 76.3457 356.608 76.1459C357.311 75.9088 357.772 76.1371 358.092 77.0855L359.216 80.4108L358.519 80.9892L358.748 81.6666L361.704 80.668L361.475 79.9906L360.447 79.9948L359.282 76.5462C358.825 75.1914 357.979 74.5166 356.624 74.9742C355.491 75.357 354.797 76.5931 354.691 76.8073C354.192 76.2626 353.508 76.0269 352.622 76.3265C351.612 76.6677 350.921 77.7106 350.729 78.0772ZM360.922 74.0711L361.504 75.5898L362.305 75.3193L362.165 74.3374C362.165 74.3374 362.608 73.982 363.347 73.7324C364.086 73.4827 364.641 73.7066 364.891 74.4456L365.224 75.4309L364.239 75.7637C362.514 76.3462 361.572 77.2134 362.051 78.6297C362.446 79.7997 363.352 80.2483 364.522 79.853C365.385 79.5618 365.932 78.7456 366.209 78.1854L366.759 78.9601L368.647 78.2536L368.419 77.5762L367.35 77.6628L366.081 73.9063C365.603 72.49 364.586 72.2844 363.158 72.7671C362.111 73.1207 360.922 74.0711 360.922 74.0711ZM364.632 76.5227L365.494 76.2314L365.827 77.2167C365.827 77.2167 365.421 78.4516 364.497 78.7637C363.943 78.9509 363.474 78.698 363.286 78.1437C363.037 77.4048 363.401 76.9387 364.632 76.5227ZM369.568 70.8072L368.961 69.0091L367.812 69.6715L368.337 71.2233L367.147 71.7625L367.417 72.5631L368.649 72.147L369.959 76.0266C370.425 77.406 371.24 77.5836 371.979 77.3339C372.595 77.1259 373.078 76.7293 373.495 76.1356L372.942 75.5952C372.68 75.8758 372.381 76.1278 372.085 76.2277C371.741 76.3442 371.407 76.251 371.216 75.6844L369.88 71.7309L371.666 71.1276L371.354 70.2039L369.568 70.8072ZM372.304 67.5504C372.491 68.1046 372.903 68.3085 373.395 68.1421C373.765 68.0173 374.092 67.5637 373.905 67.0095C373.697 66.3937 373.306 66.2514 372.813 66.4178C372.382 66.5634 372.116 66.9962 372.304 67.5504ZM376.34 74.6255L374.468 69.0833L372.21 69.9146L372.439 70.592L373.569 70.4846L375.109 75.0416L374.166 75.7032L374.395 76.3806L377.597 75.2988L377.368 74.6214L376.34 74.6255ZM379.414 67.2751C377.567 67.8993 376.731 69.6909 377.438 71.7847C378.187 74.0016 379.67 74.7356 381.518 74.1114C383.365 73.4873 384.118 71.6549 383.411 69.5611C382.745 67.5906 381.261 66.651 379.414 67.2751ZM379.685 68.2812C380.917 67.8652 381.681 68.7048 382.139 70.0596C382.679 71.6607 382.478 72.6893 381.246 73.1053C380.015 73.5214 379.21 72.7641 378.711 71.2862C378.17 69.6851 378.454 68.6973 379.685 68.2812ZM385.777 66.2368L385.371 65.3998L383.36 66.1479L383.589 66.8253L384.719 66.718L386.258 71.275L385.315 71.9365L385.544 72.6139L388.623 71.5737L388.394 70.8963L387.49 70.8589L386.262 67.2256C386.262 67.2256 386.669 65.9907 387.715 65.637C388.516 65.3666 388.97 65.6936 389.261 66.5557L390.384 69.8811L389.688 70.4595L389.917 71.1368L392.872 70.1382L392.644 69.4609L391.616 69.465L390.451 66.0165C389.993 64.6617 389.086 64.0076 387.731 64.4653C386.709 64.8107 385.986 65.8783 385.777 66.2368ZM396.385 68.1281L396.635 68.8671L400.33 67.6189C402.793 66.7867 403.812 64.5215 402.896 61.812C401.981 59.1024 400.004 58.1238 397.602 58.9351L396.063 59.4552L393.743 60.3074L393.972 60.9848L395.102 60.8774L397.349 67.5281L396.385 68.1281ZM400.059 66.6128L398.642 67.0912L396.395 60.4405L397.873 59.9412C399.413 59.4211 400.731 60.0736 401.501 62.352C402.291 64.6921 401.598 66.0927 400.059 66.6128ZM405.823 62.3326L410.064 60.8725C410.064 60.8725 410.009 60.5069 409.905 60.199C409.281 58.3516 408.127 57.5751 406.341 58.1784C404.555 58.7818 403.823 60.6758 404.488 62.6464C405.175 64.6785 406.597 65.6389 408.568 64.9731C410.045 64.4738 410.846 63.0646 410.846 63.0646L410.198 62.5698C410.198 62.5698 409.589 63.5302 408.358 63.9462C407.299 64.3041 406.281 63.6874 405.823 62.3326ZM408.516 60.3937L405.56 61.3923C405.322 60.4436 405.618 59.4928 406.604 59.1599C407.589 58.827 408.204 59.47 408.516 60.3937ZM412.492 61.3148L411.629 61.606L412.245 63.4288C412.245 63.4288 413.15 63.4252 414.283 63.0424C415.761 62.5431 416.759 61.4373 416.281 60.0209C415.569 57.9149 412.304 59.5807 411.858 58.2629C411.646 57.6347 412.048 57.2796 412.676 57.0674C413.292 56.8593 413.723 56.8781 413.723 56.8781L414.245 57.7722L415.046 57.5018L414.521 55.8266C414.521 55.8266 413.263 55.8399 412.29 56.1686C411.021 56.5972 410.252 57.5705 410.685 58.8514C411.442 61.0929 414.671 59.3162 415.12 60.6464C415.378 61.41 414.796 61.8399 414.057 62.0895C413.392 62.3142 412.985 62.3282 412.985 62.3282L412.492 61.3148ZM415.903 52.821C416.091 53.3752 416.502 53.5791 416.995 53.4127C417.365 53.2879 417.692 52.8343 417.504 52.2801C417.296 51.6643 416.905 51.522 416.413 51.6884C415.982 51.8341 415.716 52.2668 415.903 52.821ZM419.94 59.8962L418.068 54.3539L415.81 55.1852L416.039 55.8626L417.169 55.7553L418.708 60.3122L417.766 60.9738L417.994 61.6512L421.197 60.5694L420.968 59.892L419.94 59.8962ZM426.569 52.3053L426.34 51.6279L424.201 52.4053C424.201 52.4053 423.691 52.3169 422.891 52.5874C421.289 53.1283 420.451 54.3033 420.992 55.9044C421.492 57.3823 422.586 57.493 422.586 57.493C422.586 57.493 422.278 58.6947 422.415 59.1011C422.632 59.7416 423.391 59.5535 423.391 59.5535C423.391 59.5535 422.244 60.4214 422.618 61.5299C423.076 62.8847 424.453 62.8997 426.178 62.3171C428.333 61.589 429.089 60.3732 428.631 59.0184C428.236 57.8484 427.165 57.5238 425.564 58.0647L423.655 58.7097L423.326 57.5311C423.326 57.5311 423.733 57.5172 424.287 57.3299C425.888 56.789 426.747 55.6756 426.185 54.0129C425.915 53.2124 425.432 52.8813 425.432 52.8813L426.569 52.3053ZM423.12 53.4703C424.044 53.1583 424.662 53.5669 424.974 54.4906C425.328 55.5374 425.043 56.1141 424.057 56.447C423.134 56.7591 422.494 56.2889 422.203 55.4267C421.87 54.4415 422.135 53.8032 423.12 53.4703ZM424.214 59.5502L425.568 59.0925C426.554 58.7596 427.232 58.7363 427.502 59.5369C427.773 60.3374 427.282 60.9149 426.05 61.331C424.88 61.7263 424.079 61.7912 423.788 60.9291C423.538 60.1901 424.214 59.5502 424.214 59.5502ZM429.558 51.4465L429.151 50.6095L427.14 51.3576L427.369 52.035L428.499 51.9277L430.038 56.4846L429.096 57.1462L429.324 57.8236L432.403 56.7834L432.175 56.106L431.27 56.0686L430.043 52.4353C430.043 52.4353 430.449 51.2004 431.496 50.8467C432.296 50.5762 432.75 50.9033 433.041 51.7654L434.164 55.0908L433.468 55.6691L433.697 56.3465L436.653 55.3479L436.424 54.6705L435.396 54.6747L434.231 51.2262C433.773 49.8714 432.866 49.2173 431.511 49.675C430.489 50.0203 429.766 51.088 429.558 51.4465ZM440.114 45.671L442.762 44.7764L443.424 45.7193L444.224 45.4488L443.538 43.4167L439.781 44.6857L437.462 45.5378L437.691 46.2152L438.821 46.1079L441.068 52.7586L440.104 53.3586L440.354 54.0976L443.925 52.8909L443.676 52.152L442.361 52.3217L441.383 49.4274L444.216 48.4705L443.883 47.4852L441.05 48.4421L440.114 45.671ZM445.286 42.8944C445.474 43.4487 445.886 43.6526 446.378 43.4861C446.748 43.3613 447.075 42.9078 446.888 42.3535C446.68 41.7377 446.288 41.5954 445.796 41.7619C445.365 41.9075 445.099 42.3402 445.286 42.8944ZM449.323 49.9696L447.451 44.4273L445.193 45.2586L445.422 45.936L446.552 45.8287L448.092 50.3857L447.149 51.0472L447.378 51.7246L450.58 50.6428L450.351 49.9654L449.323 49.9696ZM451.756 46.815L455.997 45.3549C455.997 45.3549 455.942 44.9892 455.838 44.6813C455.214 42.8339 454.06 42.0575 452.274 42.6608C450.488 43.2641 449.756 45.1581 450.421 47.1287C451.108 49.1609 452.53 50.1212 454.501 49.4555C455.979 48.9562 456.779 47.547 456.779 47.547L456.131 47.0522C456.131 47.0522 455.522 48.0125 454.291 48.4286C453.232 48.7864 452.214 48.1698 451.756 46.815ZM454.449 44.876L451.493 45.8746C451.255 44.926 451.551 43.9751 452.537 43.6423C453.522 43.3094 454.137 43.9523 454.449 44.876ZM460.001 46.3622L457.13 37.864L454.848 38.7037L455.077 39.3811L456.207 39.2737L458.745 46.7866L457.802 47.4481L458.031 48.1255L461.443 46.973L461.214 46.2956L460.001 46.3622ZM467.385 43.8677L464.514 35.3695L462.257 36.2009L462.485 36.8782L463.616 36.7709L464.306 38.8154C463.949 38.8127 463.525 38.8597 463.07 39.0136C460.853 39.7625 460.305 41.5942 461.012 43.6879C461.657 45.5969 462.895 46.6196 464.681 46.0163C465.617 45.7001 466.099 45.0157 466.336 44.5379L466.671 45.2066L468.744 44.4377L468.515 43.7603L467.385 43.8677ZM464.656 39.8499L465.883 43.4832C465.883 43.4832 465.641 44.5942 464.594 44.9478C463.486 45.3223 462.722 44.4826 462.264 43.1279C461.806 41.7731 461.851 40.5232 463.279 40.0405C464.141 39.7492 464.656 39.8499 464.656 39.8499ZM232.23 146.941L230.836 146.91L230.301 143.782C231.471 143.387 232.078 143.462 232.882 144.655L235.009 147.746L238.16 146.682L237.882 145.031L236.506 144.995L235.087 143.108C234.658 142.551 234.193 142.066 233.856 141.899C235.413 140.691 236.031 138.898 235.332 136.828C234.651 134.812 232.648 134.405 230.632 135.087L228.904 135.67L224.938 137.11L225.209 138.683L226.616 138.81L228.154 147.816L226.902 148.741L227.179 150.392L232.507 148.592L232.23 146.941ZM229.95 141.795L229.298 137.904L230.738 137.417C231.674 137.101 232.426 137.368 232.736 138.286C233.247 139.799 232.506 140.931 230.976 141.448L229.95 141.795ZM245.77 135.949C245.241 134.383 243.604 133.813 241.48 134.53C238.528 135.528 236.998 139.133 238.342 143.111C239.054 145.217 240.889 145.961 243.049 145.231C244.957 144.586 246.411 142.952 246.811 142.416L245.605 141.339C245.138 141.738 244.15 142.553 243.088 142.911C242.026 143.27 241.268 143.105 240.739 141.539C244.687 140.165 246.457 137.983 245.77 135.949ZM243.269 137.155C243.543 137.965 242.688 139.056 240.42 139.882C240.245 138.176 241.099 136.905 242.071 136.577C242.575 136.406 243.068 136.561 243.269 137.155ZM249.919 140.604L249.511 139.338L247.945 139.867L248.45 142.905C248.45 142.905 250.114 142.844 251.734 142.297C254.29 141.433 255.737 139.661 255.038 137.591C254.168 135.017 250.268 136.355 249.769 134.879C249.569 134.285 249.915 133.766 250.707 133.499C251.373 133.274 251.806 133.308 251.806 133.308L252.291 134.448L253.839 133.925L253.413 131.061C253.413 131.061 251.785 131.049 250.183 131.59C247.932 132.35 246.491 133.9 247.202 136.006C248.102 138.671 251.906 137.345 252.405 138.821C252.636 139.505 252.182 140.06 251.228 140.382C250.687 140.565 250.201 140.609 249.919 140.604ZM263.946 129.808C263.417 128.242 261.78 127.672 259.656 128.39C256.704 129.387 255.175 132.992 256.519 136.97C257.23 139.076 259.066 139.82 261.226 139.09C263.134 138.446 264.587 136.812 264.988 136.275L263.782 135.199C263.315 135.597 262.326 136.412 261.264 136.771C260.202 137.13 259.445 136.965 258.916 135.399C262.864 134.025 264.633 131.842 263.946 129.808ZM261.445 131.014C261.719 131.824 260.864 132.915 258.596 133.741C258.421 132.036 259.275 130.765 260.247 130.436C260.751 130.266 261.245 130.42 261.445 131.014ZM276.346 131.997L274.869 132.195L273.478 123.921L271.84 124.474L271.482 125.137C271.482 125.137 270.393 124.763 269.151 125.182C266.361 126.125 264.427 129.365 265.947 133.865C266.562 135.683 268.038 136.789 269.622 136.254C271.89 135.487 272.484 132.319 272.514 132.108L272.784 134.985L276.593 133.498L276.346 131.997ZM271.231 126.886L271.465 128.471C271.465 128.471 271.719 133.199 269.919 133.807C269.379 133.99 268.854 133.565 268.532 132.611C267.65 130.001 268.188 127.674 269.844 127.114C270.636 126.846 271.231 126.886 271.231 126.886ZM281.484 123.623L281.958 125.027L283.758 124.419L283.256 120.617C283.256 120.617 282.692 120.608 282.188 120.778C280.027 121.508 279.698 124.627 279.686 124.832L279.332 121.943L275.385 123.437L275.607 124.806L277.114 124.698L278.548 133.038L281.068 132.186L280.489 128.752C280.157 126.759 280.699 124.149 281.484 123.623ZM293.181 126.65L291.927 125.49C291.592 125.803 290.664 126.738 289.62 127.091C288.702 127.401 287.931 126.96 287.579 125.916C286.922 123.972 287.002 121.538 288.82 120.924C289.414 120.723 289.829 120.764 289.829 120.764L290.345 121.993L291.929 121.458L291.418 118.462C291.003 118.422 289.735 118.228 288.384 118.684C285.09 119.797 283.686 123.18 285.036 127.176C285.796 129.426 287.506 130.212 289.576 129.513C291.556 128.844 292.877 127.054 293.181 126.65ZM295.339 111.823L291.319 113.341L291.572 114.86L293.079 114.752L295.21 127.409L297.82 126.527L297.307 123.05C297.14 121.903 297.113 118.202 298.697 117.667C299.219 117.491 299.509 117.814 299.679 118.318C299.746 118.516 299.801 118.738 299.844 118.984L300.916 125.481L304.887 123.939L304.635 122.42L303.193 122.606L302.338 117.58C302.264 117.184 302.178 116.812 302.069 116.488C301.625 115.174 300.757 114.505 299.317 114.991C296.959 115.788 296.492 119.154 296.481 119.359L295.339 111.823ZM321.496 116.362L315.796 106.315L313.066 107.378L311.11 119.811L310.044 120.633L310.327 122.302L315.421 120.581L315.144 118.93L313.768 118.953L313.954 117.366L317.932 116.022L318.592 117.263L317.322 118.194L317.599 119.845L322.927 118.045L322.662 116.37L321.496 116.362ZM314.844 110.087L316.975 114.2L314.203 115.136L314.844 110.087ZM327.698 108.01L328.173 109.414L329.973 108.806L329.471 105.005C329.471 105.005 328.906 104.995 328.402 105.165C326.242 105.895 325.912 109.015 325.901 109.219L325.547 106.33L321.599 107.824L321.821 109.194L323.329 109.085L324.762 117.425L327.282 116.574L326.704 113.139C326.371 111.146 326.913 108.536 327.698 108.01ZM335.484 114.003C336.546 113.645 337.815 112.354 338.197 111.884L337.363 110.721C337.363 110.721 336.549 111.398 336.027 111.574C335.505 111.75 335.168 111.523 334.973 110.947C334.888 110.695 334.827 110.455 334.765 110.035L334.076 105.916L336.488 105.101L336.137 103.054L333.725 103.868L333.207 100.734L330.75 102.126L331.187 104.726L329.61 105.519L329.917 107.321L331.537 106.773L332.307 111.246C332.368 111.667 332.472 112.033 332.581 112.357C333.104 113.905 334.026 114.496 335.484 114.003ZM348.196 106.199L345.021 99.7112L343.03 100.705L342.688 108.06L339.669 101.559L336.298 102.859L336.55 104.378L337.781 104.223L341.693 111.705L344.357 110.805L344.711 104.669L347.291 109.814L349.973 108.908L350.921 99.7234L351.598 99.234L351.333 97.6188L347.026 99.2345L347.278 100.754L348.522 100.634L348.196 106.199ZM358.391 106.265C361.649 105.164 363.03 101.95 361.741 98.1339C360.95 95.7939 359.054 94.8101 356.57 95.6493C353.311 96.75 351.973 99.9699 353.262 103.786C354.077 106.198 355.961 107.086 358.391 106.265ZM359.004 98.9381C359.6 100.702 359.911 103.345 357.967 104.001C356.959 104.342 356.296 103.864 355.913 102.73C355.177 100.552 355.481 98.4236 356.993 97.9128C357.893 97.6087 358.622 97.9242 359.004 98.9381ZM368.252 94.3097L368.727 95.7137L370.527 95.1056L370.025 91.3043C370.025 91.3043 369.46 91.2946 368.956 91.4649C366.796 92.1946 366.466 95.3143 366.455 95.5186L366.1 92.63L362.153 94.1241L362.375 95.4931L363.882 95.3848L365.316 103.725L367.836 102.873L367.258 99.4389C366.925 97.4454 367.467 94.8356 368.252 94.3097ZM373.298 85.4854L369.315 86.9916L369.567 88.5107L371.075 88.4025L373.205 101.06L375.779 100.19L374.997 95.5606L376.06 95.2018L379.127 99.0588L382.241 98.0068L381.953 96.4998L380.517 96.5237L377.789 93.3743L379.079 90.1906L380.177 89.5794L379.894 87.9703L375.64 89.5076L375.91 91.0206L376.716 91.0294L375.86 93.3641L374.69 93.7593L373.298 85.4854ZM389.7 83.7549L392.724 82.7332L393.402 83.9682L394.842 83.4817L394.226 79.8191L389.312 81.4793L385.293 82.9375L385.563 84.5106L386.982 84.6131L388.532 93.6554L387.274 94.5617L387.551 96.2129L396.732 93.1115L396.103 89.2927L394.483 89.84L394.328 91.517L391.178 92.5812L390.562 88.9787L394.126 87.7746L393.764 85.6912L390.217 86.8892L389.7 83.7549ZM405.64 79.2723L402.736 80.3535L401.478 84.228L398.98 81.5223L396.04 82.6758L396.293 84.1949L397.662 84.0331L400.177 86.4323L398.775 90.3555L397.709 91.1769L397.962 92.696L400.734 91.7595L401.931 87.7651L404.562 90.5664L407.579 89.3465L407.333 87.8454L405.88 88.0556L403.262 85.4705L404.724 81.6073L405.905 80.8875L405.64 79.2723ZM409.248 73.3403L405.229 74.8587L405.481 76.3778L406.989 76.2696L409.119 88.9266L411.729 88.0448L411.217 84.5681C411.05 83.4211 411.023 79.7201 412.607 79.1849C413.129 79.0086 413.418 79.3319 413.589 79.8359C413.656 80.0339 413.711 80.256 413.754 80.5021L414.825 86.9989L418.797 85.4567L418.544 83.9376L417.103 84.1237L416.247 79.0981C416.174 78.7019 416.088 78.3297 415.979 78.0057C415.535 76.6916 414.667 76.0222 413.227 76.5087C410.869 77.3053 410.402 80.6719 410.39 80.8762L409.248 73.3403ZM418.268 72.0982C418.56 72.9622 419.228 73.2178 419.984 72.9624C420.992 72.6219 421.348 71.4789 420.977 70.3808C420.697 69.5528 420.029 69.2971 419.309 69.5404C418.265 69.8931 417.909 71.0361 418.268 72.0982ZM421.598 73.8812L417.596 75.3935L417.831 76.9187L419.339 76.8104L420.742 85.0002L424.713 83.458L424.46 81.9389L423.001 82.131L421.598 73.8812ZM424.335 70.4094L426.434 82.676C426.434 82.676 428.416 82.6079 430.36 81.9512C433.385 80.9295 435.384 77.5267 433.93 73.2246C433.322 71.4245 431.959 70.1803 430.249 70.758C427.909 71.5486 427.519 74.7286 427.49 74.939L427.269 72.2661L426.541 67.4984L422.647 68.9742L422.9 70.4933L424.335 70.4094ZM428.743 80.0711L428.532 78.4977C428.532 78.4977 428.081 73.8971 429.881 73.289C430.565 73.0579 431.132 73.7286 431.406 74.5386C432.233 76.9867 431.51 79.3569 430.034 79.8556C429.404 80.0684 428.743 80.0711 428.743 80.0711ZM435.302 66.3436C435.594 67.2077 436.262 67.4633 437.018 67.2079C438.026 66.8674 438.382 65.7243 438.011 64.6263C437.731 63.7983 437.063 63.5426 436.343 63.7859C435.299 64.1386 434.943 65.2816 435.302 66.3436ZM438.632 68.1267L434.63 69.6389L434.865 71.1641L436.372 71.0559L437.775 79.2456L441.747 77.7034L441.494 76.1843L440.035 76.3765L438.632 68.1267ZM446.458 76.5129C447.52 76.1541 448.789 74.8631 449.171 74.3929L448.338 73.2307C448.338 73.2307 447.523 73.9069 447.001 74.0833C446.479 74.2596 446.142 74.0327 445.947 73.4567C445.862 73.2046 445.801 72.9646 445.739 72.5442L445.05 68.4253L447.462 67.6104L447.111 65.563L444.699 66.3778L444.181 63.2435L441.724 64.6354L442.161 67.2353L440.584 68.0287L440.891 69.83L442.511 69.2827L443.281 73.7558C443.342 74.1762 443.446 74.5423 443.555 74.8663C444.078 76.4143 445 77.0054 446.458 76.5129ZM448.591 61.854C448.883 62.718 449.551 62.9737 450.307 62.7183C451.315 62.3778 451.671 61.2347 451.3 60.1367C451.02 59.3087 450.352 59.053 449.632 59.2963C448.588 59.649 448.233 60.792 448.591 61.854ZM451.921 63.6371L447.92 65.1493L448.154 66.6745L449.662 66.5663L451.065 74.756L455.036 73.2138L454.784 71.6947L453.324 71.8869L451.921 63.6371ZM460.576 71.7435C463.834 70.6428 465.215 67.4288 463.925 63.6127C463.135 61.2726 461.238 60.2889 458.754 61.1281C455.496 62.2288 454.157 65.4487 455.446 69.2648C456.261 71.6768 458.146 72.5645 460.576 71.7435ZM461.189 64.4168C461.785 66.1809 462.096 68.8233 460.152 69.4801C459.144 69.8206 458.481 69.3426 458.098 68.2086C457.362 66.0305 457.666 63.9023 459.178 63.3915C460.078 63.0875 460.806 63.403 461.189 64.4168ZM468.339 58.0905L464.338 59.6028L464.59 61.1219L466.098 61.0136L467.483 69.2095L470.075 68.3338L469.557 65.0793C469.349 64.1068 469.417 60.0329 471.001 59.4977C471.505 59.3275 471.812 59.6447 471.983 60.1487C472.049 60.3467 472.086 60.5749 472.129 60.821L473.207 67.2757L477.214 65.7213L476.962 64.2022L475.467 64.4065L474.683 59.3567C474.616 58.9784 474.53 58.6062 474.42 58.2822C473.983 56.9862 473.031 56.3051 471.608 56.7855C469.25 57.5821 468.729 60.967 468.7 61.1774L468.339 58.0905ZM492.154 60.8747L491.736 58.5692L486.498 60.3388L487.609 58.6399C489.538 55.682 490.843 53.015 489.985 50.4769C489.225 48.2269 487.146 48.1872 484.662 49.0264C482.916 49.6163 481.041 51.0118 481.041 51.0118L481.8 54.5056L483.6 53.8975L483.455 52.1617C483.455 52.1617 484.252 51.6117 485.008 51.3563C486.124 50.9792 486.918 51.2524 487.24 52.2064C487.745 53.7606 486.679 55.8858 484.253 59.3925L482.718 61.6158L483.172 63.9092L492.154 60.8747ZM496.172 45.1381C491.618 46.6766 491.965 52.4553 493.261 56.2894C494.155 58.9355 495.859 59.8839 498.505 58.99C503.149 57.421 502.542 51.5293 501.308 47.8752C500.505 45.4991 498.818 44.2442 496.172 45.1381ZM496.482 47.5402C497.508 47.1936 498.098 47.5757 498.542 48.8897C499.284 51.0858 500.067 55.9554 498.141 56.6061C497.061 56.971 496.452 56.5949 495.996 55.2449C495.254 53.0488 494.448 48.2273 496.482 47.5402ZM513.565 53.6414L513.147 51.3359L507.909 53.1055L509.02 51.4067C510.948 48.4488 512.254 45.7818 511.396 43.2437C510.636 40.9936 508.557 40.954 506.073 41.7932C504.327 42.383 502.452 43.7785 502.452 43.7785L503.211 47.2724L505.011 46.6642L504.866 44.9284C504.866 44.9284 505.663 44.3784 506.419 44.123C507.535 43.746 508.329 44.0192 508.651 44.9732C509.156 46.5273 508.089 48.6526 505.664 52.1593L504.129 54.3826L504.583 56.6759L513.565 53.6414ZM517.582 37.9048C513.028 39.4434 513.376 45.222 514.671 49.0561C515.565 51.7022 517.27 52.6506 519.916 51.7567C524.56 50.1878 523.953 44.296 522.719 40.6419C521.916 38.2658 520.229 37.0109 517.582 37.9048ZM517.893 40.3069C518.919 39.9603 519.509 40.3424 519.953 41.6565C520.695 43.8526 521.478 48.7222 519.552 49.3729C518.471 49.7377 517.863 49.3617 517.407 48.0116C516.665 45.8156 515.859 40.9941 517.893 40.3069Z" fill="black"/>
</svg>
