<svg width="1228" height="65" viewBox="0 0 1228 65" fill="none" xmlns="http://www.w3.org/2000/svg">
<line x1="23" y1="27.5" x2="1187" y2="27.5" stroke="#FF4040" stroke-width="3"/>
<rect x="23" y="16" width="22" height="22" fill="#FF4040"/>
<path d="M37.224 32V30.39H35.334V22.13H33.542L30.21 24.258L31.022 25.742L33.164 24.37V30.39H31.204V32H37.224Z" fill="white"/>
<path d="M0.616 61H7.07V59.894H4.228C3.71 59.894 3.08 59.95 2.548 59.992C4.956 57.71 6.566 55.624 6.566 53.58C6.566 51.746 5.418 50.542 3.584 50.542C2.282 50.542 1.4 51.144 0.56 52.054L1.302 52.782C1.862 52.11 2.59 51.592 3.43 51.592C4.704 51.592 5.32 52.446 5.32 53.622C5.32 55.386 3.836 57.43 0.616 60.244V61ZM9.71163 61.182C10.2156 61.182 10.6356 60.79 10.6356 60.216C10.6356 59.628 10.2156 59.222 9.71163 59.222C9.20763 59.222 8.78763 59.628 8.78763 60.216C8.78763 60.79 9.20763 61.182 9.71163 61.182ZM12.2781 61H18.7321V59.894H15.8901C15.3721 59.894 14.7421 59.95 14.2101 59.992C16.6181 57.71 18.2281 55.624 18.2281 53.58C18.2281 51.746 17.0801 50.542 15.2461 50.542C13.9441 50.542 13.0621 51.144 12.2221 52.054L12.9641 52.782C13.5241 52.11 14.2521 51.592 15.0921 51.592C16.3661 51.592 16.9821 52.446 16.9821 53.622C16.9821 55.386 15.4981 57.43 12.2781 60.244V61ZM23.5297 55.582C24.7757 55.582 25.3917 56.464 25.3917 57.85C25.3917 59.25 24.6217 60.188 23.6417 60.188C22.3537 60.188 21.5837 59.026 21.4297 56.898C22.0597 55.96 22.8857 55.582 23.5297 55.582ZM23.6417 61.182C25.2377 61.182 26.5817 59.838 26.5817 57.85C26.5817 55.708 25.4757 54.63 23.7397 54.63C22.9277 54.63 22.0317 55.106 21.4017 55.876C21.4577 52.684 22.6477 51.606 24.0477 51.606C24.6777 51.606 25.2937 51.9 25.6997 52.39L26.3997 51.592C25.8397 50.99 25.0697 50.542 24.0057 50.542C22.0177 50.542 20.2117 52.082 20.2117 56.1C20.2117 59.488 21.6677 61.182 23.6417 61.182ZM30.9682 57.57H34.5522V56.59H30.9682V57.57ZM38.9246 61H45.3786V59.894H42.5366C42.0186 59.894 41.3886 59.95 40.8566 59.992C43.2646 57.71 44.8746 55.624 44.8746 53.58C44.8746 51.746 43.7266 50.542 41.8926 50.542C40.5906 50.542 39.7086 51.144 38.8686 52.054L39.6106 52.782C40.1706 52.11 40.8986 51.592 41.7386 51.592C43.0126 51.592 43.6286 52.446 43.6286 53.622C43.6286 55.386 42.1446 57.43 38.9246 60.244V61ZM48.0202 61.182C48.5242 61.182 48.9442 60.79 48.9442 60.216C48.9442 59.628 48.5242 59.222 48.0202 59.222C47.5162 59.222 47.0962 59.628 47.0962 60.216C47.0962 60.79 47.5162 61.182 48.0202 61.182ZM50.5867 61H57.0407V59.894H54.1987C53.6807 59.894 53.0507 59.95 52.5187 59.992C54.9267 57.71 56.5367 55.624 56.5367 53.58C56.5367 51.746 55.3887 50.542 53.5547 50.542C52.2527 50.542 51.3707 51.144 50.5307 52.054L51.2727 52.782C51.8327 52.11 52.5607 51.592 53.4007 51.592C54.6747 51.592 55.2907 52.446 55.2907 53.622C55.2907 55.386 53.8067 57.43 50.5867 60.244V61ZM61.6423 61.182C63.5743 61.182 64.8623 60.02 64.8623 58.522C64.8623 57.122 64.0223 56.352 63.1263 55.834V55.764C63.7423 55.288 64.4983 54.364 64.4983 53.286C64.4983 51.704 63.4343 50.584 61.6843 50.584C60.0883 50.584 58.8703 51.62 58.8703 53.188C58.8703 54.266 59.5003 55.036 60.2563 55.554V55.624C59.3183 56.128 58.3663 57.08 58.3663 58.452C58.3663 60.034 59.7523 61.182 61.6423 61.182ZM62.3423 55.428C61.1383 54.952 60.0323 54.42 60.0323 53.188C60.0323 52.194 60.7183 51.522 61.6703 51.522C62.7763 51.522 63.4063 52.348 63.4063 53.356C63.4063 54.112 63.0423 54.812 62.3423 55.428ZM61.6703 60.23C60.4383 60.23 59.5283 59.432 59.5283 58.34C59.5283 57.36 60.1023 56.548 60.9283 56.016C62.3843 56.604 63.6443 57.122 63.6443 58.494C63.6443 59.516 62.8463 60.23 61.6703 60.23Z" fill="#FF4040"/>
<path d="M171.616 16H178.07V14.894H175.228C174.71 14.894 174.08 14.95 173.548 14.992C175.956 12.71 177.566 10.624 177.566 8.58C177.566 6.746 176.418 5.542 174.584 5.542C173.282 5.542 172.4 6.144 171.56 7.054L172.302 7.782C172.862 7.11 173.59 6.592 174.43 6.592C175.704 6.592 176.32 7.446 176.32 8.622C176.32 10.386 174.836 12.43 171.616 15.244V16ZM180.712 16.182C181.216 16.182 181.636 15.79 181.636 15.216C181.636 14.628 181.216 14.222 180.712 14.222C180.208 14.222 179.788 14.628 179.788 15.216C179.788 15.79 180.208 16.182 180.712 16.182ZM183.278 16H189.732V14.894H186.89C186.372 14.894 185.742 14.95 185.21 14.992C187.618 12.71 189.228 10.624 189.228 8.58C189.228 6.746 188.08 5.542 186.246 5.542C184.944 5.542 184.062 6.144 183.222 7.054L183.964 7.782C184.524 7.11 185.252 6.592 186.092 6.592C187.366 6.592 187.982 7.446 187.982 8.622C187.982 10.386 186.498 12.43 183.278 15.244V16ZM193.2 16H194.53C194.684 11.982 195.132 9.588 197.54 6.508V5.724H191.114V6.83H196.084C194.082 9.63 193.368 12.108 193.2 16ZM201.968 12.57H205.552V11.59H201.968V12.57ZM213.005 16.182C214.825 16.182 216.295 15.09 216.295 13.256C216.295 11.856 215.329 10.932 214.125 10.652V10.596C215.203 10.19 215.945 9.364 215.945 8.118C215.945 6.494 214.685 5.542 212.963 5.542C211.773 5.542 210.863 6.06 210.093 6.774L210.779 7.586C211.353 6.998 212.081 6.592 212.907 6.592C213.971 6.592 214.643 7.236 214.643 8.216C214.643 9.322 213.915 10.176 211.801 10.176V11.156C214.167 11.156 214.993 11.982 214.993 13.2C214.993 14.39 214.125 15.118 212.907 15.118C211.745 15.118 210.961 14.572 210.359 13.942L209.715 14.782C210.387 15.51 211.395 16.182 213.005 16.182ZM219.02 16.182C219.524 16.182 219.944 15.79 219.944 15.216C219.944 14.628 219.524 14.222 219.02 14.222C218.516 14.222 218.096 14.628 218.096 15.216C218.096 15.79 218.516 16.182 219.02 16.182ZM221.587 16H228.041V14.894H225.199C224.681 14.894 224.051 14.95 223.519 14.992C225.927 12.71 227.537 10.624 227.537 8.58C227.537 6.746 226.389 5.542 224.555 5.542C223.253 5.542 222.371 6.144 221.531 7.054L222.273 7.782C222.833 7.11 223.561 6.592 224.401 6.592C225.675 6.592 226.291 7.446 226.291 8.622C226.291 10.386 224.807 12.43 221.587 15.244V16Z" fill="#FF4040"/>
<path d="M171.616 51H178.07V49.894H175.228C174.71 49.894 174.08 49.95 173.548 49.992C175.956 47.71 177.566 45.624 177.566 43.58C177.566 41.746 176.418 40.542 174.584 40.542C173.282 40.542 172.4 41.144 171.56 42.054L172.302 42.782C172.862 42.11 173.59 41.592 174.43 41.592C175.704 41.592 176.32 42.446 176.32 43.622C176.32 45.386 174.836 47.43 171.616 50.244V51ZM180.712 51.182C181.216 51.182 181.636 50.79 181.636 50.216C181.636 49.628 181.216 49.222 180.712 49.222C180.208 49.222 179.788 49.628 179.788 50.216C179.788 50.79 180.208 51.182 180.712 51.182ZM183.278 51H189.732V49.894H186.89C186.372 49.894 185.742 49.95 185.21 49.992C187.618 47.71 189.228 45.624 189.228 43.58C189.228 41.746 188.08 40.542 186.246 40.542C184.944 40.542 184.062 41.144 183.222 42.054L183.964 42.782C184.524 42.11 185.252 41.592 186.092 41.592C187.366 41.592 187.982 42.446 187.982 43.622C187.982 45.386 186.498 47.43 183.278 50.244V51ZM193.2 51H194.53C194.684 46.982 195.132 44.588 197.54 41.508V40.724H191.114V41.83H196.084C194.082 44.63 193.368 47.108 193.2 51ZM201.968 47.57H205.552V46.59H201.968V47.57ZM213.005 51.182C214.825 51.182 216.295 50.09 216.295 48.256C216.295 46.856 215.329 45.932 214.125 45.652V45.596C215.203 45.19 215.945 44.364 215.945 43.118C215.945 41.494 214.685 40.542 212.963 40.542C211.773 40.542 210.863 41.06 210.093 41.774L210.779 42.586C211.353 41.998 212.081 41.592 212.907 41.592C213.971 41.592 214.643 42.236 214.643 43.216C214.643 44.322 213.915 45.176 211.801 45.176V46.156C214.167 46.156 214.993 46.982 214.993 48.2C214.993 49.39 214.125 50.118 212.907 50.118C211.745 50.118 210.961 49.572 210.359 48.942L209.715 49.782C210.387 50.51 211.395 51.182 213.005 51.182ZM219.02 51.182C219.524 51.182 219.944 50.79 219.944 50.216C219.944 49.628 219.524 49.222 219.02 49.222C218.516 49.222 218.096 49.628 218.096 50.216C218.096 50.79 218.516 51.182 219.02 51.182ZM222.203 51H227.831V49.936H225.773V40.724H224.793C224.233 41.06 223.575 41.298 222.665 41.466V42.278H224.485V49.936H222.203V51Z" fill="#FF4040"/>
<path d="M468.696 60.182C470.516 60.182 471.986 59.09 471.986 57.256C471.986 55.856 471.02 54.932 469.816 54.652V54.596C470.894 54.19 471.636 53.364 471.636 52.118C471.636 50.494 470.376 49.542 468.654 49.542C467.464 49.542 466.554 50.06 465.784 50.774L466.47 51.586C467.044 50.998 467.772 50.592 468.598 50.592C469.662 50.592 470.334 51.236 470.334 52.216C470.334 53.322 469.606 54.176 467.492 54.176V55.156C469.858 55.156 470.684 55.982 470.684 57.2C470.684 58.39 469.816 59.118 468.598 59.118C467.436 59.118 466.652 58.572 466.05 57.942L465.406 58.782C466.078 59.51 467.086 60.182 468.696 60.182ZM474.712 60.182C475.216 60.182 475.636 59.79 475.636 59.216C475.636 58.628 475.216 58.222 474.712 58.222C474.208 58.222 473.788 58.628 473.788 59.216C473.788 59.79 474.208 60.182 474.712 60.182ZM477.894 60H483.522V58.936H481.464V49.724H480.484C479.924 50.06 479.266 50.298 478.356 50.466V51.278H480.176V58.936H477.894V60ZM485.66 60H491.288V58.936H489.23V49.724H488.25C487.69 50.06 487.032 50.298 486.122 50.466V51.278H487.942V58.936H485.66V60ZM495.968 56.57H499.552V55.59H495.968V56.57ZM507.005 60.182C508.825 60.182 510.295 59.09 510.295 57.256C510.295 55.856 509.329 54.932 508.125 54.652V54.596C509.203 54.19 509.945 53.364 509.945 52.118C509.945 50.494 508.685 49.542 506.963 49.542C505.773 49.542 504.863 50.06 504.093 50.774L504.779 51.586C505.353 50.998 506.081 50.592 506.907 50.592C507.971 50.592 508.643 51.236 508.643 52.216C508.643 53.322 507.915 54.176 505.801 54.176V55.156C508.167 55.156 508.993 55.982 508.993 57.2C508.993 58.39 508.125 59.118 506.907 59.118C505.745 59.118 504.961 58.572 504.359 57.942L503.715 58.782C504.387 59.51 505.395 60.182 507.005 60.182ZM513.02 60.182C513.524 60.182 513.944 59.79 513.944 59.216C513.944 58.628 513.524 58.222 513.02 58.222C512.516 58.222 512.096 58.628 512.096 59.216C512.096 59.79 512.516 60.182 513.02 60.182ZM516.203 60H521.831V58.936H519.773V49.724H518.793C518.233 50.06 517.575 50.298 516.665 50.466V51.278H518.485V58.936H516.203V60ZM524.346 56.15L526.684 52.65C526.978 52.146 527.258 51.642 527.51 51.138H527.566C527.538 51.67 527.496 52.496 527.496 53V56.15H524.346ZM527.496 60H528.7V57.172H530.058V56.15H528.7V49.724H527.286L523.016 56.332V57.172H527.496V60Z" fill="#FF4040"/>
<path d="M585.696 60.182C587.516 60.182 588.986 59.09 588.986 57.256C588.986 55.856 588.02 54.932 586.816 54.652V54.596C587.894 54.19 588.636 53.364 588.636 52.118C588.636 50.494 587.376 49.542 585.654 49.542C584.464 49.542 583.554 50.06 582.784 50.774L583.47 51.586C584.044 50.998 584.772 50.592 585.598 50.592C586.662 50.592 587.334 51.236 587.334 52.216C587.334 53.322 586.606 54.176 584.492 54.176V55.156C586.858 55.156 587.684 55.982 587.684 57.2C587.684 58.39 586.816 59.118 585.598 59.118C584.436 59.118 583.652 58.572 583.05 57.942L582.406 58.782C583.078 59.51 584.086 60.182 585.696 60.182ZM591.712 60.182C592.216 60.182 592.636 59.79 592.636 59.216C592.636 58.628 592.216 58.222 591.712 58.222C591.208 58.222 590.788 58.628 590.788 59.216C590.788 59.79 591.208 60.182 591.712 60.182ZM594.894 60H600.522V58.936H598.464V49.724H597.484C596.924 50.06 596.266 50.298 595.356 50.466V51.278H597.176V58.936H594.894V60ZM605.124 60.182C606.944 60.182 608.414 59.09 608.414 57.256C608.414 55.856 607.448 54.932 606.244 54.652V54.596C607.322 54.19 608.064 53.364 608.064 52.118C608.064 50.494 606.804 49.542 605.082 49.542C603.892 49.542 602.982 50.06 602.212 50.774L602.898 51.586C603.472 50.998 604.2 50.592 605.026 50.592C606.09 50.592 606.762 51.236 606.762 52.216C606.762 53.322 606.034 54.176 603.92 54.176V55.156C606.286 55.156 607.112 55.982 607.112 57.2C607.112 58.39 606.244 59.118 605.026 59.118C603.864 59.118 603.08 58.572 602.478 57.942L601.834 58.782C602.506 59.51 603.514 60.182 605.124 60.182ZM612.968 56.57H616.552V55.59H612.968V56.57ZM624.005 60.182C625.825 60.182 627.295 59.09 627.295 57.256C627.295 55.856 626.329 54.932 625.125 54.652V54.596C626.203 54.19 626.945 53.364 626.945 52.118C626.945 50.494 625.685 49.542 623.963 49.542C622.773 49.542 621.863 50.06 621.093 50.774L621.779 51.586C622.353 50.998 623.081 50.592 623.907 50.592C624.971 50.592 625.643 51.236 625.643 52.216C625.643 53.322 624.915 54.176 622.801 54.176V55.156C625.167 55.156 625.993 55.982 625.993 57.2C625.993 58.39 625.125 59.118 623.907 59.118C622.745 59.118 621.961 58.572 621.359 57.942L620.715 58.782C621.387 59.51 622.395 60.182 624.005 60.182ZM630.02 60.182C630.524 60.182 630.944 59.79 630.944 59.216C630.944 58.628 630.524 58.222 630.02 58.222C629.516 58.222 629.096 58.628 629.096 59.216C629.096 59.79 629.516 60.182 630.02 60.182ZM633.203 60H638.831V58.936H636.773V49.724H635.793C635.233 50.06 634.575 50.298 633.665 50.466V51.278H635.485V58.936H633.203V60ZM643.39 60.182C645.126 60.182 646.75 58.908 646.75 56.654C646.75 54.4 645.364 53.392 643.656 53.392C643.04 53.392 642.592 53.546 642.13 53.798L642.382 50.83H646.26V49.724H641.262L640.94 54.54L641.626 54.96C642.214 54.568 642.648 54.358 643.334 54.358C644.622 54.358 645.462 55.226 645.462 56.696C645.462 58.194 644.482 59.118 643.278 59.118C642.088 59.118 641.346 58.572 640.758 57.984L640.128 58.824C640.814 59.51 641.794 60.182 643.39 60.182Z" fill="#FF4040"/>
<path d="M819.696 60.182C821.516 60.182 822.986 59.09 822.986 57.256C822.986 55.856 822.02 54.932 820.816 54.652V54.596C821.894 54.19 822.636 53.364 822.636 52.118C822.636 50.494 821.376 49.542 819.654 49.542C818.464 49.542 817.554 50.06 816.784 50.774L817.47 51.586C818.044 50.998 818.772 50.592 819.598 50.592C820.662 50.592 821.334 51.236 821.334 52.216C821.334 53.322 820.606 54.176 818.492 54.176V55.156C820.858 55.156 821.684 55.982 821.684 57.2C821.684 58.39 820.816 59.118 819.598 59.118C818.436 59.118 817.652 58.572 817.05 57.942L816.406 58.782C817.078 59.51 818.086 60.182 819.696 60.182ZM825.712 60.182C826.216 60.182 826.636 59.79 826.636 59.216C826.636 58.628 826.216 58.222 825.712 58.222C825.208 58.222 824.788 58.628 824.788 59.216C824.788 59.79 825.208 60.182 825.712 60.182ZM828.894 60H834.522V58.936H832.464V49.724H831.484C830.924 50.06 830.266 50.298 829.356 50.466V51.278H831.176V58.936H828.894V60ZM837.038 56.15L839.376 52.65C839.67 52.146 839.95 51.642 840.202 51.138H840.258C840.23 51.67 840.188 52.496 840.188 53V56.15H837.038ZM840.188 60H841.392V57.172H842.75V56.15H841.392V49.724H839.978L835.708 56.332V57.172H840.188V60ZM846.968 56.57H850.552V55.59H846.968V56.57ZM858.005 60.182C859.825 60.182 861.295 59.09 861.295 57.256C861.295 55.856 860.329 54.932 859.125 54.652V54.596C860.203 54.19 860.945 53.364 860.945 52.118C860.945 50.494 859.685 49.542 857.963 49.542C856.773 49.542 855.863 50.06 855.093 50.774L855.779 51.586C856.353 50.998 857.081 50.592 857.907 50.592C858.971 50.592 859.643 51.236 859.643 52.216C859.643 53.322 858.915 54.176 856.801 54.176V55.156C859.167 55.156 859.993 55.982 859.993 57.2C859.993 58.39 859.125 59.118 857.907 59.118C856.745 59.118 855.961 58.572 855.359 57.942L854.715 58.782C855.387 59.51 856.395 60.182 858.005 60.182ZM864.02 60.182C864.524 60.182 864.944 59.79 864.944 59.216C864.944 58.628 864.524 58.222 864.02 58.222C863.516 58.222 863.096 58.628 863.096 59.216C863.096 59.79 863.516 60.182 864.02 60.182ZM867.203 60H872.831V58.936H870.773V49.724H869.793C869.233 50.06 868.575 50.298 867.665 50.466V51.278H869.485V58.936H867.203V60ZM876.508 60H877.838C877.992 55.982 878.44 53.588 880.848 50.508V49.724H874.422V50.83H879.392C877.39 53.63 876.676 56.108 876.508 60Z" fill="#FF4040"/>
<path d="M1163.7 60.182C1165.52 60.182 1166.99 59.09 1166.99 57.256C1166.99 55.856 1166.02 54.932 1164.82 54.652V54.596C1165.89 54.19 1166.64 53.364 1166.64 52.118C1166.64 50.494 1165.38 49.542 1163.65 49.542C1162.46 49.542 1161.55 50.06 1160.78 50.774L1161.47 51.586C1162.04 50.998 1162.77 50.592 1163.6 50.592C1164.66 50.592 1165.33 51.236 1165.33 52.216C1165.33 53.322 1164.61 54.176 1162.49 54.176V55.156C1164.86 55.156 1165.68 55.982 1165.68 57.2C1165.68 58.39 1164.82 59.118 1163.6 59.118C1162.44 59.118 1161.65 58.572 1161.05 57.942L1160.41 58.782C1161.08 59.51 1162.09 60.182 1163.7 60.182ZM1169.71 60.182C1170.22 60.182 1170.64 59.79 1170.64 59.216C1170.64 58.628 1170.22 58.222 1169.71 58.222C1169.21 58.222 1168.79 58.628 1168.79 59.216C1168.79 59.79 1169.21 60.182 1169.71 60.182ZM1172.89 60H1178.52V58.936H1176.46V49.724H1175.48C1174.92 50.06 1174.27 50.298 1173.36 50.466V51.278H1175.18V58.936H1172.89V60ZM1181.25 52.874C1181.25 51.474 1182 50.55 1182.98 50.55C1184.3 50.55 1185.08 51.67 1185.22 53.784C1184.57 54.75 1183.78 55.156 1183.08 55.156C1181.86 55.156 1181.25 54.26 1181.25 52.874ZM1182.7 60.182C1184.64 60.182 1186.43 58.586 1186.43 54.428C1186.43 51.166 1184.96 49.542 1182.98 49.542C1181.39 49.542 1180.04 50.886 1180.04 52.874C1180.04 55.002 1181.16 56.108 1182.87 56.108C1183.73 56.108 1184.61 55.618 1185.24 54.848C1185.14 58.026 1183.99 59.118 1182.66 59.118C1182 59.118 1181.37 58.824 1180.95 58.334L1180.24 59.132C1180.81 59.734 1181.6 60.182 1182.7 60.182ZM1190.97 56.57H1194.55V55.59H1190.97V56.57ZM1202 60.182C1203.82 60.182 1205.29 59.09 1205.29 57.256C1205.29 55.856 1204.33 54.932 1203.12 54.652V54.596C1204.2 54.19 1204.94 53.364 1204.94 52.118C1204.94 50.494 1203.68 49.542 1201.96 49.542C1200.77 49.542 1199.86 50.06 1199.09 50.774L1199.78 51.586C1200.35 50.998 1201.08 50.592 1201.91 50.592C1202.97 50.592 1203.64 51.236 1203.64 52.216C1203.64 53.322 1202.91 54.176 1200.8 54.176V55.156C1203.17 55.156 1203.99 55.982 1203.99 57.2C1203.99 58.39 1203.12 59.118 1201.91 59.118C1200.74 59.118 1199.96 58.572 1199.36 57.942L1198.71 58.782C1199.39 59.51 1200.39 60.182 1202 60.182ZM1208.02 60.182C1208.52 60.182 1208.94 59.79 1208.94 59.216C1208.94 58.628 1208.52 58.222 1208.02 58.222C1207.52 58.222 1207.1 58.628 1207.1 59.216C1207.1 59.79 1207.52 60.182 1208.02 60.182ZM1210.59 60H1217.04V58.894H1214.2C1213.68 58.894 1213.05 58.95 1212.52 58.992C1214.93 56.71 1216.54 54.624 1216.54 52.58C1216.54 50.746 1215.39 49.542 1213.55 49.542C1212.25 49.542 1211.37 50.144 1210.53 51.054L1211.27 51.782C1211.83 51.11 1212.56 50.592 1213.4 50.592C1214.67 50.592 1215.29 51.446 1215.29 52.622C1215.29 54.386 1213.81 56.43 1210.59 59.244V60ZM1218.35 60H1224.81V58.894H1221.96C1221.45 58.894 1220.82 58.95 1220.28 58.992C1222.69 56.71 1224.3 54.624 1224.3 52.58C1224.3 50.746 1223.15 49.542 1221.32 49.542C1220.02 49.542 1219.14 50.144 1218.3 51.054L1219.04 51.782C1219.6 51.11 1220.33 50.592 1221.17 50.592C1222.44 50.592 1223.06 51.446 1223.06 52.622C1223.06 54.386 1221.57 56.43 1218.35 59.244V60Z" fill="#FF4040"/>
<rect x="140" width="22" height="22" fill="#FF4040"/>
<path d="M154.798 16V14.292H150.598C153.09 12.15 154.56 10.68 154.56 8.72C154.56 6.62 152.978 5.962 150.738 5.962C149.24 5.962 147.658 6.522 147.658 6.522L147.728 9.112H149.198L149.338 7.922C149.338 7.922 149.898 7.67 150.64 7.67C151.634 7.67 152.278 8.216 152.278 9.07C152.278 10.442 150.556 11.87 147.56 14.292V16H154.798Z" fill="white"/>
<rect x="140" y="34" width="22" height="22" fill="#FF4040"/>
<path d="M152.474 44.834C153.706 44.498 154.21 43.546 154.21 42.482C154.21 40.62 152.628 39.948 150.808 39.948C149.716 39.948 148.526 40.186 147.518 40.55L147.588 43H149.058L149.198 41.88C149.576 41.754 150.052 41.67 150.5 41.67C151.312 41.67 152.082 41.964 152.082 42.832C152.082 43.742 151.41 44.19 150.29 44.19H149.128V45.66H150.22C151.508 45.66 152.208 46.094 152.208 47.032C152.208 47.956 151.382 48.404 150.416 48.404C149.534 48.404 148.54 48.124 147.938 47.83L147.35 49.412C148.134 49.874 149.31 50.182 150.486 50.182C152.334 50.182 154.448 49.328 154.448 47.06C154.448 46.052 153.72 45.128 152.474 44.834Z" fill="white"/>
<rect x="488" y="16" width="22" height="22" fill="#FF4040"/>
<path d="M502.33 30.012V28.29H500.93V22.13L498.592 21.92C497.122 24.062 495.666 26.218 494.21 28.36L494.42 30.012H498.774V32H500.93V30.012H502.33ZM498.802 28.29H496.31L498.802 24.594V28.29Z" fill="white"/>
<rect x="605" y="16" width="22" height="22" fill="#FF4040"/>
<path d="M612.84 29.872L612.238 31.412C613.162 31.874 614.296 32.182 615.36 32.182C617.824 32.182 619.252 30.53 619.252 28.92C619.252 27.31 618.062 26.036 615.738 25.98L614.926 25.952L615.024 23.852H618.734L618.776 22.13H613.036L612.798 27.562H614.506C616.326 27.562 616.914 28.234 616.914 29.06C616.914 29.928 616.284 30.446 615.276 30.446C614.506 30.446 613.582 30.194 612.84 29.872Z" fill="white"/>
<rect x="838" y="16" width="22" height="22" fill="#FF4040"/>
<path d="M852.182 23.74L852.28 22.102C852.28 22.102 851.846 21.962 851.02 21.962C847.45 21.962 845.77 24.51 845.77 27.87C845.77 30.32 847.072 32.182 849.55 32.182C851.65 32.182 853.232 30.74 853.232 28.78C853.232 26.82 851.86 25.84 850.152 25.84C848.962 25.84 847.968 26.442 847.968 26.442C847.968 26.442 848.08 23.67 851.09 23.67C851.762 23.67 852.182 23.74 852.182 23.74ZM847.912 28.318V27.982C847.912 27.982 848.612 27.492 849.508 27.492C850.516 27.492 851.02 28.038 851.02 28.99C851.02 29.9 850.418 30.46 849.536 30.46C848.668 30.46 847.912 29.858 847.912 28.318Z" fill="white"/>
<rect x="1183" y="16" width="22" height="22" fill="#FF4040"/>
<path d="M1197.21 22.13H1190.07V25.182H1191.48L1191.76 23.88H1194.86L1191.23 32H1193.54L1197.21 23.642V22.13Z" fill="white"/>
</svg>
