<svg width="508" height="69" viewBox="0 0 508 69" fill="none" xmlns="http://www.w3.org/2000/svg">
<path d="M45.3688 31.76V9.368H50.3368V31.76H45.3688ZM29.3848 31.76V31.4C30.4648 31.184 31.1848 30.68 31.5448 30.248L23.4808 24.128L19.3768 28.376H16.3528L15.1288 27.944C17.4328 22.256 19.0168 16.064 19.9528 9.368H35.6488V31.76H29.3848ZM15.4168 53.648V30.392H20.0248V53.648H15.4168ZM60.4168 30.824V9.368H66.6088C67.6168 9.368 68.4088 9.008 68.6248 8.216C65.3848 5.264 59.9128 0.799998 59.9128 0.799998L55.0888 7.352H32.7688C29.4568 4.544 24.9928 1.088 24.9928 1.088L20.0968 7.352H1.08884L1.66484 9.368H9.44084C8.28884 23.192 5.62484 37.808 0.296836 48.176L1.16084 48.824C3.03284 46.952 4.83284 45.08 6.41684 43.064V65.096H8.07284C12.6808 65.096 15.4168 63.08 15.4168 62.432V55.664H20.0248V61.064H21.6808C24.7768 61.064 29.3128 59.264 29.3848 58.688V32.984L29.6008 33.776H35.6488C35.5768 47.168 33.9208 59.048 22.9048 68.48L23.4808 68.984C43.1368 60.776 45.2248 47.24 45.3688 33.776H50.3368V68.696H52.2088C57.3928 68.696 60.3448 66.608 60.4168 65.96V33.776H69.0568C70.0648 33.776 70.8568 33.416 71.0008 32.624C68.5528 29.672 63.8728 25.064 63.8728 25.064L60.4168 30.824ZM88.1368 12.032C87.2008 22.112 82.5208 29.672 70.4248 34.856L70.6408 35.648C88.3528 32.408 97.4968 24.848 99.7288 12.032H104.697V23.624C104.697 29.888 105.993 31.616 113.697 31.616H119.601C130.473 31.616 133.641 29.96 133.641 26C133.641 24.2 133.065 22.976 130.545 21.896L130.257 17.288H129.537C128.313 19.664 127.161 21.248 126.441 21.896C125.937 22.328 125.217 22.472 124.425 22.472C123.633 22.544 122.265 22.544 120.969 22.544H116.649C115.209 22.544 114.993 22.256 114.993 21.392V13.112V12.032H121.041C120.537 14.552 119.745 17.648 119.025 19.736L119.457 20.168C123.561 18.8 129.033 16.28 132.345 14.264C133.929 14.192 134.577 13.976 135.225 13.328L126.009 4.688L120.609 10.016H107.361V3.32C109.161 3.032 109.593 2.384 109.665 1.52L96.5608 0.511998V10.016H81.5128C81.2248 8.36 80.6488 6.56 79.8568 4.688H79.0648C78.9928 8.36 75.6808 11.528 73.0168 12.68C70.1368 13.976 68.1208 16.424 69.0568 19.808C70.1368 23.48 74.3848 24.704 77.2648 23.048C80.2168 21.392 82.3048 17.504 81.8008 12.032H88.1368ZM133.569 48.176H132.849C131.265 52.064 129.969 54.8 129.177 55.88C128.673 56.528 128.241 56.672 127.521 56.744H124.857H121.401C120.177 56.744 119.961 56.456 119.961 55.592V43.568C121.185 43.352 121.905 42.992 122.265 42.416L113.409 35.36L108.369 40.904H102.177C102.681 38.312 102.897 35.648 103.041 32.84C104.841 32.624 105.633 31.832 105.705 30.68L90.7288 29.816C91.0888 33.488 91.1608 37.232 90.7288 40.904H72.1528L72.8008 42.92H90.4408C88.7848 52.64 83.0968 61.64 67.8328 67.832L68.2648 68.552C90.8008 64.16 98.9368 55.016 101.745 42.92H109.233V58.328C109.233 65.096 110.457 67.04 118.089 67.04H123.345C132.921 67.04 136.737 64.664 136.737 60.56C136.737 58.544 136.233 57.32 133.785 56.168L133.569 48.176ZM145.521 13.472C146.745 11.6 147.897 9.584 148.905 7.496C149.553 7.496 150.129 7.352 150.561 7.136V13.472H145.521ZM164.529 24.632H160.065V15.488H174.177C175.185 15.488 175.977 15.128 176.193 14.336C173.169 11.528 168.057 7.352 168.057 7.352L163.593 13.472H160.065V4.256C162.081 3.968 162.585 3.248 162.729 2.168L150.561 1.016V5.624L139.617 2.6C138.825 9.872 137.169 18.08 135.513 23.408L136.449 23.912C139.185 21.68 141.777 18.8 144.153 15.488H150.561V24.632H134.721L135.297 26.648H150.561V34.856H146.745L137.097 31.112V62.576H138.465C142.281 62.576 146.313 60.56 146.313 59.696V36.872H150.561V68.696H152.361C155.961 68.696 160.065 66.392 160.065 65.384V36.872H164.385V51.704C164.385 52.424 164.169 52.784 163.377 52.784C162.513 52.784 160.497 52.64 160.497 52.64V53.576C162.369 54.008 163.017 55.016 163.377 56.168C163.881 57.464 163.953 59.48 163.953 62.216C172.665 61.496 173.817 58.328 173.817 52.568V38.456C175.329 38.168 176.265 37.448 176.697 36.872L167.769 30.248L163.665 34.856H160.065V26.648H175.473C176.481 26.648 177.273 26.288 177.489 25.496C174.321 22.688 169.137 18.584 169.137 18.584L164.529 24.632ZM186.849 8.432C188.577 8.144 189.081 7.496 189.225 6.56L178.065 5.552V52.064H179.721C183.033 52.064 186.849 50.336 186.849 49.544V8.432ZM191.169 1.52V57.176C191.169 58.04 190.809 58.4 189.729 58.4C188.145 58.4 180.945 57.968 180.945 57.968V58.904C184.545 59.552 185.985 60.56 187.137 62C188.289 63.512 188.649 65.672 188.865 68.768C199.161 67.832 200.529 64.304 200.529 57.824V4.688C202.329 4.4 203.049 3.752 203.193 2.672L191.169 1.52ZM219.033 22.256C222.201 17.504 225.081 12.248 227.601 6.272C229.329 6.344 230.265 5.768 230.625 4.832L216.945 0.367995C213.705 14.84 207.153 29.888 201.033 39.248L201.753 39.824C204.921 37.592 207.945 35.072 210.753 32.264V68.84H212.697C216.801 68.84 221.049 66.68 221.193 65.96V25.28C222.633 24.992 223.209 24.488 223.425 23.84L219.033 22.256ZM268.641 18.368C269.721 18.368 270.585 18.008 270.801 17.216C267.129 13.976 261.009 9.224 261.009 9.224L255.537 16.352H241.857C243.801 13.328 245.601 10.088 247.257 6.632C248.985 6.776 249.921 6.2 250.281 5.264L236.457 0.439999C233.433 13.256 227.601 26.864 222.273 35.288L222.993 35.792C229.545 31.472 235.305 25.856 240.273 18.728V68.696H242.289C247.833 68.696 251.073 66.68 251.073 66.104V49.616H267.489C268.569 49.616 269.433 49.256 269.649 48.464C265.905 45.224 259.713 40.4 259.713 40.4L254.241 47.6H251.073V33.848H266.049C267.129 33.848 267.921 33.488 268.137 32.696C264.681 29.672 258.993 25.208 258.993 25.208L253.953 31.832H251.073V18.368H268.641ZM301.689 44.576H307.161C308.313 49.184 309.897 52.856 311.841 55.952C308.385 56.312 304.929 56.6 301.689 56.888V44.576ZM286.713 42.56C287.361 39.248 287.721 35.864 287.865 32.624H294.489V42.56H286.713ZM321.345 7.568V17.864H288.009V7.568H321.345ZM304.281 30.608V23.84C305.721 23.624 306.153 23.048 306.225 22.256L294.489 21.248V30.608H287.937C288.009 28.808 288.009 27.08 288.009 25.352V19.88H321.345V22.256L311.769 21.464V30.608H304.281ZM311.769 42.56H304.281V32.624H311.769V42.56ZM322.929 44.576C320.841 46.664 317.601 49.616 314.865 51.848C312.273 49.976 310.113 47.6 308.529 44.576H322.929ZM325.305 44.576H335.241C336.321 44.576 337.041 44.216 337.257 43.424C334.305 40.616 329.337 36.512 329.337 36.512L324.873 42.56H321.417V32.624H334.449C335.457 32.624 336.249 32.264 336.465 31.472C333.513 28.664 328.473 24.56 328.473 24.56L324.081 30.608H321.417V24.128C322.857 23.84 323.361 23.264 323.433 22.544C326.673 22.472 331.785 20.96 331.929 20.456V9.224C333.441 8.936 334.305 8.288 334.737 7.712L325.161 0.583997L320.625 5.552H289.521L277.425 1.52V25.352C277.425 39.68 276.777 55.664 268.785 68.264L269.361 68.696C279.513 62.216 284.121 53.504 286.281 44.576H292.041V57.608C287.865 57.968 284.409 58.184 282.177 58.256L286.785 68.912C287.649 68.768 288.441 68.12 288.945 67.184C300.105 62.792 307.521 59.48 312.489 56.888C316.665 62.864 322.497 66.248 330.201 68.984C331.281 64.088 333.801 60.776 337.761 59.624V58.76C330.057 57.968 322.641 56.528 316.881 53.144C321.489 52.64 326.529 51.848 330.201 51.128C331.785 51.56 332.505 51.2 332.937 50.552L325.305 44.576ZM386.798 62V53.216H365.198C378.014 42.2 385.574 34.64 385.574 24.56C385.574 13.76 377.438 10.376 365.918 10.376C358.214 10.376 350.078 13.256 350.078 13.256L350.438 26.576H357.998L358.718 20.456C358.718 20.456 361.598 19.16 365.414 19.16C370.526 19.16 373.838 21.968 373.838 26.36C373.838 33.416 364.982 40.76 349.574 53.216V62H386.798ZM409.292 10.376C395.108 10.376 389.708 20.24 389.708 37.016C389.708 53.72 395.108 62.936 408.572 62.936C422.108 62.936 427.868 53.216 427.868 35.936C427.868 19.52 423.548 10.376 409.292 10.376ZM408.86 19.376C414.404 19.376 416.132 23.696 416.132 36.296C416.132 49.256 414.188 53.936 408.86 53.936C403.532 53.936 401.372 49.256 401.372 36.656C401.372 23.696 403.388 19.376 408.86 19.376ZM466.859 62V53.216H445.259C458.075 42.2 465.635 34.64 465.635 24.56C465.635 13.76 457.499 10.376 445.979 10.376C438.275 10.376 430.139 13.256 430.139 13.256L430.499 26.576H438.059L438.779 20.456C438.779 20.456 441.659 19.16 445.475 19.16C450.587 19.16 453.899 21.968 453.899 26.36C453.899 33.416 445.043 40.76 429.635 53.216V62H466.859ZM489.353 10.376C475.169 10.376 469.769 20.24 469.769 37.016C469.769 53.72 475.169 62.936 488.633 62.936C502.169 62.936 507.929 53.216 507.929 35.936C507.929 19.52 503.609 10.376 489.353 10.376ZM488.921 19.376C494.465 19.376 496.193 23.696 496.193 36.296C496.193 49.256 494.249 53.936 488.921 53.936C483.593 53.936 481.433 49.256 481.433 36.656C481.433 23.696 483.449 19.376 488.921 19.376Z" fill="black"/>
</svg>
